Grade -1 lc.ufo
<glyph name="exclam" format="2">
  <advance width="587"/>
  <unicode hex="0021"/>
  <outline>
    <contour>
      <point x="187.82333333333332" y="84.74666666666666" type="qcurve" smooth="yes"/>
      <point x="187.82333333333332" y="126.80000000000001"/>
      <point x="247.08333333333331" y="188.89"/>
      <point x="293.4" y="188.89" type="qcurve" smooth="yes"/>
      <point x="339.7366666666667" y="188.89"/>
      <point x="398.99666666666667" y="126.80000000000001"/>
      <point x="398.99666666666667" y="84.74666666666666" type="qcurve" smooth="yes"/>
      <point x="398.99666666666667" y="42.95666666666667"/>
      <point x="339.7366666666667" y="-19.133333333333333"/>
      <point x="293.4" y="-19.133333333333333" type="qcurve" smooth="yes"/>
      <point x="247.08333333333331" y="-19.133333333333333"/>
      <point x="187.82333333333332" y="42.95666666666667"/>
    </contour>
    <contour>
      <point x="232.36666666666667" y="1400.3166666666666" type="line" smooth="yes"/>
      <point x="229.38666666666668" y="1468.3166666666666"/>
      <point x="257.18333333333334" y="1541.7"/>
      <point x="294.98333333333335" y="1541.9833333333333" type="qcurve" smooth="yes"/>
      <point x="332.7833333333333" y="1542.2666666666667"/>
      <point x="360.28000000000003" y="1470.3166666666666"/>
      <point x="357.3" y="1401.3166666666666" type="qcurve" smooth="yes"/>
      <point x="347.73333333333335" y="1107.4" type="line"/>
      <point x="332.3333333333333" y="799.4" type="line"/>
      <point x="320.76666666666665" y="434.0" type="line"/>
      <point x="266.9" y="434.0" type="line"/>
      <point x="255.33333333333334" y="799.4" type="line"/>
      <point x="241.93333333333334" y="1107.4" type="line"/>
    </contour>
  </outline>
</glyph>
<glyph name="ampersand" format="2">
  <advance width="1573"/>
  <unicode hex="0026"/>
  <outline>
    <contour>
      <point x="562.68" y="-28.0" type="qcurve" smooth="yes"/>
      <point x="316.85333333333335" y="-28.0"/>
      <point x="87.98333333333333" y="192.62"/>
      <point x="89.82666666666667" y="373.6" type="qcurve" smooth="yes"/>
      <point x="91.14333333333333" y="500.81333333333333"/>
      <point x="277.42333333333335" y="747.9966666666667"/>
      <point x="574.8133333333333" y="897.7133333333333" type="qcurve"/>
      <point x="712.61" y="949.2033333333333"/>
      <point x="835.34" y="1121.0"/>
      <point x="835.34" y="1211.0" type="qcurve" smooth="yes"/>
      <point x="835.34" y="1314.8333333333335"/>
      <point x="714.7533333333333" y="1444.0333333333333"/>
      <point x="610.4533333333333" y="1444.0333333333333" type="qcurve" smooth="yes"/>
      <point x="497.83000000000004" y="1444.0333333333333"/>
      <point x="355.81333333333333" y="1309.2766666666666"/>
      <point x="355.81333333333333" y="1194.9266666666665" type="qcurve" smooth="yes"/>
      <point x="355.81333333333333" y="1089.57"/>
      <point x="481.6333333333333" y="916.8"/>
      <point x="600.3566666666667" y="890.52" type="qcurve"/>
      <point x="1075.6233333333334" y="245.17666666666665" type="line" smooth="yes"/>
      <point x="1146.1633333333332" y="148.95999999999998"/>
      <point x="1264.56" y="53.46"/>
      <point x="1338.86" y="53.46" type="qcurve" smooth="yes"/>
      <point x="1399.5" y="53.46"/>
      <point x="1469.22" y="87.45333333333332"/>
      <point x="1498.1733333333334" y="121.02" type="qcurve"/>
      <point x="1535.73" y="87.44" type="line"/>
      <point x="1506.04" y="37.79"/>
      <point x="1400.3133333333333" y="-32.196666666666665"/>
      <point x="1325.77" y="-32.46" type="qcurve" smooth="yes"/>
      <point x="1234.8866666666665" y="-32.723333333333336"/>
      <point x="1096.2633333333335" y="45.92"/>
      <point x="1006.78" y="167.56" type="qcurve" smooth="yes"/>
      <point x="519.8733333333333" y="832.7933333333334" type="line"/>
      <point x="421.68" y="862.2666666666667"/>
      <point x="259.32" y="1054.0466666666669"/>
      <point x="261.4266666666667" y="1192.6266666666668" type="qcurve" smooth="yes"/>
      <point x="263.53333333333336" y="1329.2433333333333"/>
      <point x="451.12666666666667" y="1516.2"/>
      <point x="608.7666666666668" y="1516.2" type="qcurve" smooth="yes"/>
      <point x="750.9499999999999" y="1516.2"/>
      <point x="919.38" y="1356.15"/>
      <point x="919.38" y="1209.21" type="qcurve" smooth="yes"/>
      <point x="919.38" y="1087.75"/>
      <point x="757.8166666666667" y="903.1833333333333"/>
      <point x="619.9766666666667" y="851.24" type="qcurve"/>
      <point x="373.17" y="726.3866666666668"/>
      <point x="200.42666666666668" y="502.8933333333333"/>
      <point x="199.11" y="382.3333333333333" type="qcurve" smooth="yes"/>
      <point x="197.53" y="230.68333333333334"/>
      <point x="388.18" y="54.65"/>
      <point x="570.6066666666667" y="54.65" type="qcurve" smooth="yes"/>
      <point x="862.5933333333332" y="54.65"/>
      <point x="1338.32" y="586.5333333333334"/>
      <point x="1472.8133333333333" y="893.9" type="qcurve"/>
      <point x="1539.72" y="893.2333333333333" type="line"/>
      <point x="1410.98" y="559.8266666666666"/>
      <point x="879.46" y="-28.0"/>
    </contour>
    <contour>
      <point x="1060.8333333333335" y="859.3000000000001" type="line"/>
      <point x="1087.3066666666666" y="909.9"/>
      <point x="1180.02" y="969.65"/>
      <point x="1226.74" y="969.65" type="qcurve" smooth="yes"/>
      <point x="1272.46" y="969.65"/>
      <point x="1389.9266666666667" y="911.31"/>
      <point x="1436.3066666666666" y="911.31" type="qcurve" smooth="yes"/>
      <point x="1464.6933333333332" y="911.31"/>
      <point x="1505.2033333333334" y="928.1166666666667"/>
      <point x="1526.8766666666666" y="948.1166666666667" type="qcurve"/>
      <point x="1566.5800000000002" y="911.52" type="line"/>
      <point x="1520.7633333333333" y="845.2133333333334"/>
      <point x="1454.4933333333333" y="811.86"/>
      <point x="1413.9033333333334" y="811.9" type="qcurve" smooth="yes"/>
      <point x="1378.3033333333335" y="811.92"/>
      <point x="1266.0566666666668" y="875.6333333333333"/>
      <point x="1226.2966666666669" y="875.6333333333333" type="qcurve" smooth="yes"/>
      <point x="1186.5366666666666" y="875.6333333333333"/>
      <point x="1115.6333333333332" y="844.9"/>
      <point x="1092.6933333333332" y="825.0" type="qcurve"/>
    </contour>
  </outline>
</glyph>
<glyph name="parenleft" format="2">
  <advance width="576"/>
  <unicode hex="0028"/>
  <outline>
    <contour>
      <point x="68.6" y="672.0" type="qcurve" smooth="yes"/>
      <point x="68.6" y="930.1666666666666"/>
      <point x="353.8666666666667" y="1399.25"/>
      <point x="506.1333333333333" y="1516.6833333333334" type="qcurve"/>
      <point x="550.7666666666667" y="1476.9" type="line"/>
      <point x="419.6" y="1349.05"/>
      <point x="181.1833333333333" y="925.2"/>
      <point x="181.1833333333333" y="672.0" type="qcurve" smooth="yes"/>
      <point x="181.1833333333333" y="418.8"/>
      <point x="417.75" y="-6.9"/>
      <point x="550.7666666666667" y="-132.9" type="qcurve"/>
      <point x="506.1333333333333" y="-172.68333333333334" type="line"/>
      <point x="353.8666666666667" y="-55.25"/>
      <point x="68.6" y="410.28333333333336"/>
    </contour>
  </outline>
</glyph>
<glyph name="parenright" format="2">
  <advance width="576"/>
  <unicode hex="0029"/>
  <outline>
    <contour>
      <point x="507.1833333333333" y="672.0" type="qcurve" smooth="yes"/>
      <point x="507.1833333333333" y="410.28333333333336"/>
      <point x="221.2" y="-55.25"/>
      <point x="69.65" y="-172.68333333333334" type="qcurve"/>
      <point x="25.016666666666666" y="-132.9" type="line"/>
      <point x="158.03333333333333" y="-6.9"/>
      <point x="394.59999999999997" y="418.8"/>
      <point x="394.59999999999997" y="672.0" type="qcurve" smooth="yes"/>
      <point x="394.59999999999997" y="925.2"/>
      <point x="156.18333333333334" y="1349.05"/>
      <point x="25.016666666666666" y="1476.9" type="qcurve"/>
      <point x="69.65" y="1516.6833333333334" type="line"/>
      <point x="221.2" y="1399.25"/>
      <point x="507.1833333333333" y="930.1666666666666"/>
    </contour>
  </outline>
</glyph>
<glyph name="period" format="2">
  <advance width="564"/>
  <unicode hex="002E"/>
  <outline>
    <contour>
      <point x="176.58333333333331" y="84.74666666666666" type="qcurve" smooth="yes"/>
      <point x="176.58333333333331" y="126.80000000000001"/>
      <point x="235.84333333333333" y="188.89"/>
      <point x="282.15999999999997" y="188.89" type="qcurve" smooth="yes"/>
      <point x="328.49666666666667" y="188.89"/>
      <point x="387.75666666666666" y="126.80000000000001"/>
      <point x="387.75666666666666" y="84.74666666666666" type="qcurve" smooth="yes"/>
      <point x="387.75666666666666" y="42.95666666666667"/>
      <point x="328.49666666666667" y="-19.133333333333333"/>
      <point x="282.15999999999997" y="-19.133333333333333" type="qcurve"/>
      <point x="235.84333333333333" y="-19.133333333333333"/>
      <point x="176.58333333333331" y="42.95666666666667"/>
    </contour>
  </outline>
</glyph>
<glyph name="two" format="2">
  <advance width="936"/>
  <unicode hex="0032"/>
  <outline>
    <contour>
      <point x="39.68666666666667" y="0.0" type="line"/>
      <point x="39.68666666666667" y="99.78333333333333" type="line"/>
      <point x="56.68333333333333" y="235.96666666666667"/>
      <point x="219.98666666666665" y="493.3933333333333"/>
      <point x="384.28999999999996" y="628.2166666666667" type="qcurve" smooth="yes"/>
      <point x="541.3100000000001" y="756.9266666666666"/>
      <point x="746.7666666666667" y="982.6833333333333"/>
      <point x="746.7666666666667" y="1142.3166666666666" type="qcurve" smooth="yes"/>
      <point x="746.7666666666667" y="1288.1166666666666"/>
      <point x="573.07" y="1431.82"/>
      <point x="449.3933333333333" y="1431.82" type="qcurve" smooth="yes"/>
      <point x="327.4266666666666" y="1431.82"/>
      <point x="162.29333333333332" y="1344.89"/>
      <point x="98.12333333333333" y="1264.8666666666666" type="qcurve"/>
      <point x="56.263333333333335" y="1321.95" type="line"/>
      <point x="112.85333333333332" y="1401.9"/>
      <point x="311.0" y="1520.0"/>
      <point x="470.47" y="1520.0" type="qcurve" smooth="yes"/>
      <point x="635.6566666666666" y="1520.0"/>
      <point x="857.4833333333332" y="1318.3333333333335"/>
      <point x="857.4833333333332" y="1142.0833333333335" type="qcurve" smooth="yes"/>
      <point x="857.4833333333332" y="946.6933333333334"/>
      <point x="578.61" y="668.68"/>
      <point x="440.99333333333334" y="564.3833333333333" type="qcurve" smooth="yes"/>
      <point x="307.35333333333335" y="464.02000000000004"/>
      <point x="143.99666666666664" y="241.21666666666667"/>
      <point x="124.0" y="106.76666666666667" type="qcurve"/>
      <point x="131.09333333333333" y="98.63333333333333" type="line"/>
      <point x="906.5533333333333" y="98.63333333333333" type="line"/>
      <point x="906.5533333333333" y="0.0" type="line"/>
    </contour>
  </outline>
</glyph>
<glyph name="three" format="2">
  <advance width="952"/>
  <unicode hex="0033"/>
  <outline>
    <contour>
      <point x="2.4866666666666664" y="159.56333333333336" type="qcurve"/>
      <point x="48.60333333333333" y="223.49333333333334" type="line"/>
      <point x="122.41333333333334" y="136.39"/>
      <point x="298.75333333333333" y="56.47666666666667"/>
      <point x="423.45" y="56.47666666666667" type="qcurve" smooth="yes"/>
      <point x="569.9966666666667" y="56.47666666666667"/>
      <point x="759.8966666666668" y="235.54666666666665"/>
      <point x="759.8966666666668" y="397.26666666666665" type="qcurve" smooth="yes"/>
      <point x="759.8966666666668" y="564.55"/>
      <point x="490.9266666666667" y="743.7666666666667"/>
      <point x="284.77" y="743.7666666666667" type="qcurve" smooth="yes"/>
      <point x="248.55" y="743.7666666666667" type="line"/>
      <point x="224.30666666666664" y="809.65" type="line"/>
      <point x="305.52000000000004" y="812.5" type="line" smooth="yes"/>
      <point x="494.1166666666667" y="818.35"/>
      <point x="729.47" y="1006.7166666666667"/>
      <point x="729.47" y="1168.8833333333334" type="qcurve" smooth="yes"/>
      <point x="729.47" y="1305.2333333333333"/>
      <point x="566.59" y="1437.8566666666666"/>
      <point x="443.60333333333335" y="1437.8566666666666" type="qcurve" smooth="yes"/>
      <point x="339.74" y="1437.8566666666666"/>
      <point x="182.49333333333334" y="1365.6866666666665"/>
      <point x="100.40333333333334" y="1282.6100000000001" type="qcurve"/>
      <point x="65.78333333333333" y="1344.6566666666668" type="line"/>
      <point x="136.4" y="1426.2133333333334"/>
      <point x="331.2866666666667" y="1520.0"/>
      <point x="457.56333333333333" y="1520.0" type="qcurve" smooth="yes"/>
      <point x="621.0400000000001" y="1520.0"/>
      <point x="836.2966666666666" y="1340.0833333333335"/>
      <point x="836.2966666666666" y="1184.0" type="qcurve" smooth="yes"/>
      <point x="836.2966666666666" y="1026.2833333333333"/>
      <point x="652.4333333333334" y="836.1166666666667"/>
      <point x="486.65999999999997" y="792.8333333333334" type="qcurve"/>
      <point x="486.65999999999997" y="787.2666666666667" type="line"/>
      <point x="653.8666666666667" y="762.4166666666666"/>
      <point x="869.9866666666667" y="552.4833333333333"/>
      <point x="869.9866666666667" y="385.21666666666664" type="qcurve" smooth="yes"/>
      <point x="869.9866666666667" y="197.08333333333331"/>
      <point x="613.4166666666666" y="-27.733333333333334"/>
      <point x="423.36" y="-27.733333333333334" type="qcurve" smooth="yes"/>
      <point x="283.7933333333333" y="-27.733333333333334"/>
      <point x="70.57666666666665" y="75.64"/>
    </contour>
  </outline>
</glyph>
<glyph name="four" format="2">
  <advance width="1088"/>
  <unicode hex="0034"/>
  <outline>
    <contour>
      <point x="38.18333333333334" y="524.6166666666667" type="line"/>
      <point x="720.8633333333333" y="1525.8166666666666" type="line"/>
      <point x="785.95" y="1509.8" type="line"/>
      <point x="814.9433333333333" y="1484.9" type="line"/>
      <point x="811.83" y="494.5833333333333" type="line"/>
      <point x="811.83" y="90.91666666666667" type="line"/>
      <point x="1043.4666666666667" y="60.93333333333333" type="line"/>
      <point x="1043.4666666666667" y="0.0" type="line"/>
      <point x="446.1133333333333" y="0.0" type="line"/>
      <point x="446.1133333333333" y="60.93333333333333" type="line"/>
      <point x="708.5333333333333" y="90.91666666666667" type="line"/>
      <point x="711.0433333333333" y="491.8666666666667" type="line"/>
      <point x="711.0433333333333" y="1382.3500000000001" type="line"/>
      <point x="140.17666666666668" y="538.1666666666666" type="line"/>
      <point x="144.72333333333336" y="531.0333333333333" type="line"/>
      <point x="1033.4966666666667" y="523.8666666666667" type="line"/>
      <point x="1033.4966666666667" y="459.9166666666667" type="line"/>
      <point x="48.07" y="456.6333333333333" type="line"/>
    </contour>
  </outline>
</glyph>
<glyph name="semicolon" format="2">
  <advance width="600"/>
  <unicode hex="003B"/>
  <outline>
    <contour>
      <point x="174.83666666666664" y="-200.86333333333334" type="line"/>
      <point x="217.58333333333334" y="-166.66333333333333"/>
      <point x="295.46333333333337" y="-69.09"/>
      <point x="311.14" y="-10.173333333333332" type="qcurve"/>
      <point x="248.96" y="-16.62333333333333"/>
      <point x="187.83333333333334" y="40.24"/>
      <point x="187.83333333333334" y="84.72666666666666" type="qcurve" smooth="yes"/>
      <point x="187.83333333333334" y="128.23333333333335"/>
      <point x="246.37666666666667" y="188.89"/>
      <point x="291.97666666666663" y="188.89" type="qcurve" smooth="yes"/>
      <point x="335.03" y="188.89"/>
      <point x="396.14000000000004" y="131.02666666666667"/>
      <point x="396.14000000000004" y="76.48333333333332" type="qcurve" smooth="yes"/>
      <point x="396.14000000000004" y="-15.056666666666665"/>
      <point x="275.2833333333333" y="-179.43666666666664"/>
      <point x="196.93333333333334" y="-228.94" type="qcurve"/>
    </contour>
    <contour>
      <point x="194.28333333333333" y="919.7900000000001" type="qcurve" smooth="yes"/>
      <point x="194.28333333333333" y="961.8633333333332"/>
      <point x="253.54333333333332" y="1023.9533333333333"/>
      <point x="299.85999999999996" y="1023.9533333333333" type="qcurve" smooth="yes"/>
      <point x="346.19666666666666" y="1023.9533333333333"/>
      <point x="405.4566666666667" y="961.8633333333332"/>
      <point x="405.4566666666667" y="919.7900000000001" type="qcurve" smooth="yes"/>
      <point x="405.4566666666667" y="878.02"/>
      <point x="346.19666666666666" y="815.93"/>
      <point x="299.85999999999996" y="815.93" type="qcurve" smooth="yes"/>
      <point x="253.54333333333332" y="815.93"/>
      <point x="194.28333333333333" y="878.02"/>
    </contour>
  </outline>
</glyph>
<glyph name="equal" format="2">
  <advance width="993"/>
  <unicode hex="003D"/>
  <outline>
    <contour>
      <point x="108.14666666666666" y="381.7233333333333" type="line"/>
      <point x="108.14666666666666" y="484.3033333333333" type="line"/>
      <point x="494.4433333333333" y="481.02" type="line"/>
      <point x="884.74" y="484.3033333333333" type="line"/>
      <point x="884.74" y="381.7233333333333" type="line"/>
      <point x="494.4433333333333" y="385.7233333333333" type="line"/>
    </contour>
    <contour>
      <point x="108.14666666666666" y="750.53" type="line"/>
      <point x="108.14666666666666" y="853.11" type="line"/>
      <point x="494.4433333333333" y="849.11" type="line"/>
      <point x="884.74" y="853.11" type="line"/>
      <point x="884.74" y="750.53" type="line"/>
      <point x="494.4433333333333" y="753.8133333333334" type="line"/>
    </contour>
  </outline>
</glyph>
<glyph name="greater" format="2">
  <advance width="993"/>
  <unicode hex="003E"/>
  <outline>
    <contour>
      <point x="220.17666666666668" y="254.10333333333335" type="qcurve" smooth="yes"/>
      <point x="359.46999999999997" y="378.97333333333336"/>
      <point x="675.23" y="635.7433333333333"/>
      <point x="677.0033333333333" y="636.2833333333333" type="qcurve"/>
      <point x="675.37" y="636.7633333333333"/>
      <point x="360.15333333333336" y="889.9633333333334"/>
      <point x="221.87333333333333" y="1014.07" type="qcurve" smooth="yes"/>
      <point x="186.08" y="1046.36"/>
      <point x="232.09" y="1104.7633333333333"/>
      <point x="269.37333333333333" y="1075.06" type="qcurve" smooth="yes"/>
      <point x="340.9066666666667" y="1016.1433333333333"/>
      <point x="819.6233333333333" y="638.8633333333333"/>
      <point x="820.21" y="637.73" type="qcurve"/>
      <point x="819.38" y="636.6166666666667"/>
      <point x="342.13" y="252.07"/>
      <point x="270.5966666666667" y="194.35666666666665" type="qcurve" smooth="yes"/>
      <point x="233.29333333333335" y="164.44333333333333"/>
      <point x="184.64666666666668" y="221.85333333333332"/>
    </contour>
  </outline>
</glyph>
<glyph name="question" format="2">
  <advance width="880"/>
  <unicode hex="003F"/>
  <outline>
    <contour>
      <point x="218.05666666666667" y="84.74666666666666" type="qcurve" smooth="yes"/>
      <point x="218.05666666666667" y="126.80000000000001"/>
      <point x="277.31666666666666" y="188.89"/>
      <point x="323.6333333333333" y="188.89" type="qcurve" smooth="yes"/>
      <point x="369.97" y="188.89"/>
      <point x="429.23" y="126.80000000000001"/>
      <point x="429.23" y="84.74666666666666" type="qcurve" smooth="yes"/>
      <point x="429.23" y="42.95666666666667"/>
      <point x="369.97" y="-19.133333333333333"/>
      <point x="323.6333333333333" y="-19.133333333333333" type="qcurve" smooth="yes"/>
      <point x="277.31666666666666" y="-19.133333333333333"/>
      <point x="218.05666666666667" y="42.95666666666667"/>
    </contour>
    <contour>
      <point x="69.41" y="1284.1666666666667" type="qcurve" smooth="yes"/>
      <point x="69.41" y="1392.05"/>
      <point x="290.84000000000003" y="1540.0"/>
      <point x="466.07000000000005" y="1540.0" type="qcurve" smooth="yes"/>
      <point x="638.6400000000001" y="1540.0"/>
      <point x="859.34" y="1355.8833333333334"/>
      <point x="859.34" y="1180.9166666666667" type="qcurve" smooth="yes"/>
      <point x="859.34" y="1012.5266666666668"/>
      <point x="665.9533333333333" y="817.3266666666667"/>
      <point x="545.4366666666666" y="754.2" type="qcurve" smooth="yes"/>
      <point x="461.21666666666664" y="710.5633333333334"/>
      <point x="353.2266666666667" y="604.2833333333333"/>
      <point x="353.2266666666667" y="520.88" type="qcurve" smooth="yes"/>
      <point x="353.2266666666667" y="419.6666666666667" type="line"/>
      <point x="289.26" y="419.6666666666667" type="line"/>
      <point x="279.33666666666664" y="501.8" type="line" smooth="yes"/>
      <point x="268.6066666666667" y="598.3"/>
      <point x="382.5733333333333" y="752.9333333333333"/>
      <point x="495.16999999999996" y="817.85" type="qcurve" smooth="yes"/>
      <point x="609.1966666666666" y="883.4466666666667"/>
      <point x="751.7666666666667" y="1029.0466666666669"/>
      <point x="751.7666666666667" y="1176.8333333333333" type="qcurve" smooth="yes"/>
      <point x="751.7666666666667" y="1319.0"/>
      <point x="581.94" y="1465.55"/>
      <point x="451.74333333333334" y="1465.55" type="qcurve" smooth="yes"/>
      <point x="325.20666666666665" y="1465.55"/>
      <point x="162.68333333333334" y="1383.5666666666666"/>
      <point x="162.68333333333334" y="1339.8833333333334" type="qcurve" smooth="yes"/>
      <point x="162.68333333333334" y="1318.05"/>
      <point x="255.95" y="1265.6333333333334"/>
      <point x="257.23333333333335" y="1228.8166666666666" type="qcurve" smooth="yes"/>
      <point x="258.78" y="1198.1333333333334"/>
      <point x="215.23999999999998" y="1153.4833333333333"/>
      <point x="173.39666666666668" y="1153.4833333333333" type="qcurve" smooth="yes"/>
      <point x="123.42333333333335" y="1153.4833333333333"/>
      <point x="69.41" y="1222.1166666666668"/>
    </contour>
  </outline>
</glyph>
<glyph name="at" format="2">
  <advance width="1623"/>
  <unicode hex="0040"/>
  <outline>
    <contour>
      <point x="66.61999999999999" y="746.38" type="qcurve" smooth="yes"/>
      <point x="66.61999999999999" y="1071.22"/>
      <point x="479.25" y="1519.2833333333333"/>
      <point x="824.7266666666666" y="1519.2833333333333" type="qcurve" smooth="yes"/>
      <point x="1159.82" y="1519.2833333333333"/>
      <point x="1570.8133333333333" y="1143.6833333333334"/>
      <point x="1570.8133333333333" y="837.9166666666666" type="qcurve" smooth="yes"/>
      <point x="1570.8133333333333" y="604.2"/>
      <point x="1355.0133333333333" y="351.15"/>
      <point x="1216.4366666666667" y="351.15" type="qcurve" smooth="yes"/>
      <point x="1136.1633333333334" y="351.15"/>
      <point x="1030.1799999999998" y="417.2"/>
      <point x="1019.3333333333335" y="488.23333333333335" type="qcurve"/>
      <point x="985.3000000000001" y="424.09"/>
      <point x="824.9466666666667" y="333.68333333333334"/>
      <point x="729.86" y="333.68333333333334" type="qcurve" smooth="yes"/>
      <point x="601.5666666666667" y="333.68333333333334"/>
      <point x="469.31333333333333" y="458.01666666666665"/>
      <point x="469.31333333333333" y="554.75" type="qcurve" smooth="yes"/>
      <point x="469.31333333333333" y="664.15"/>
      <point x="719.1933333333334" y="825.55"/>
      <point x="1027.8966666666668" y="873.1666666666666" type="qcurve"/>
      <point x="1032.2533333333333" y="819.4" type="line"/>
      <point x="796.66" y="784.2166666666667"/>
      <point x="567.1466666666666" y="662.5"/>
      <point x="567.1466666666666" y="559.5666666666667" type="qcurve" smooth="yes"/>
      <point x="567.1466666666666" y="485.3666666666667"/>
      <point x="671.89" y="406.3833333333333"/>
      <point x="752.9166666666667" y="406.3833333333333" type="qcurve" smooth="yes"/>
      <point x="842.8833333333333" y="406.3833333333333"/>
      <point x="992.2066666666667" y="504.09"/>
      <point x="1013.1833333333333" y="567.0333333333333" type="qcurve"/>
      <point x="1014.4666666666666" y="869.45" type="line" smooth="yes"/>
      <point x="1014.73" y="1007.85"/>
      <point x="900.7633333333333" y="1129.7166666666667"/>
      <point x="806.91" y="1129.7166666666667" type="qcurve" smooth="yes"/>
      <point x="733.7733333333333" y="1129.7166666666667"/>
      <point x="630.67" y="1088.32"/>
      <point x="606.3000000000001" y="1058.1833333333334" type="qcurve"/>
      <point x="620.2633333333333" y="1044.3"/>
      <point x="639.76" y="1012.8"/>
      <point x="641.76" y="996.5166666666667" type="qcurve" smooth="yes"/>
      <point x="645.1366666666667" y="969.7533333333333"/>
      <point x="616.38" y="933.7333333333333"/>
      <point x="589.0866666666666" y="933.7333333333333" type="qcurve" smooth="yes"/>
      <point x="559.9566666666666" y="933.7333333333333"/>
      <point x="524.6133333333332" y="979.7199999999999"/>
      <point x="524.6333333333333" y="1021.9533333333333" type="qcurve" smooth="yes"/>
      <point x="524.6733333333333" y="1088.1866666666667"/>
      <point x="698.57" y="1197.75"/>
      <point x="826.5633333333334" y="1197.75" type="qcurve" smooth="yes"/>
      <point x="950.73" y="1197.75"/>
      <point x="1104.6333333333332" y="1031.9666666666667"/>
      <point x="1105.9166666666665" y="848.9833333333333" type="qcurve" smooth="yes"/>
      <point x="1108.7266666666667" y="472.5" type="line" smooth="yes"/>
      <point x="1108.7266666666667" y="451.4833333333333"/>
      <point x="1151.1433333333334" y="413.81666666666666"/>
      <point x="1200.3966666666665" y="413.81666666666666" type="qcurve" smooth="yes"/>
      <point x="1334.2066666666665" y="413.81666666666666"/>
      <point x="1488.77" y="628.3"/>
      <point x="1488.77" y="832.2" type="qcurve" smooth="yes"/>
      <point x="1488.77" y="1100.3999999999999"/>
      <point x="1144.7366666666665" y="1435.0833333333335"/>
      <point x="828.11" y="1435.0833333333335" type="qcurve" smooth="yes"/>
      <point x="509.6833333333333" y="1435.0833333333335"/>
      <point x="154.04" y="1048.2833333333333"/>
      <point x="154.75666666666666" y="753.4833333333333" type="qcurve" smooth="yes"/>
      <point x="155.4733333333333" y="448.00333333333333"/>
      <point x="526.4300000000001" y="50.266666666666666"/>
      <point x="825.0433333333333" y="50.266666666666666" type="qcurve" smooth="yes"/>
      <point x="955.6033333333332" y="50.266666666666666"/>
      <point x="1151.3566666666666" y="116.41666666666666"/>
      <point x="1205.4133333333334" y="163.46666666666667" type="qcurve"/>
      <point x="1241.79" y="116.00333333333334" type="line"/>
      <point x="1176.7" y="52.82"/>
      <point x="957.66" y="-29.283333333333335"/>
      <point x="821.4966666666667" y="-29.283333333333335" type="qcurve" smooth="yes"/>
      <point x="492.7033333333333" y="-29.283333333333335"/>
      <point x="66.61999999999999" y="401.8433333333333"/>
    </contour>
  </outline>
</glyph>
<glyph name="B" format="2">
  <advance width="1249"/>
  <unicode hex="0042"/>
  <outline>
    <contour>
      <point x="85.38" y="0.0" type="line"/>
      <point x="85.38" y="62.653333333333336" type="line"/>
      <point x="306.7133333333333" y="97.91666666666667" type="line"/>
      <point x="308.7133333333333" y="787.6999999999999" type="line"/>
      <point x="307.43" y="1400.1366666666665" type="line"/>
      <point x="85.38" y="1434.1366666666665" type="line"/>
      <point x="85.38" y="1500.0" type="line"/>
      <point x="676.1833333333334" y="1500.0" type="line" smooth="yes"/>
      <point x="874.0666666666667" y="1500.0"/>
      <point x="1066.6366666666665" y="1319.3"/>
      <point x="1066.6366666666665" y="1171.1633333333334" type="qcurve" smooth="yes"/>
      <point x="1066.6366666666665" y="1029.2733333333333"/>
      <point x="924.9866666666666" y="850.3966666666666"/>
      <point x="823.3433333333334" y="830.7166666666667" type="qcurve"/>
      <point x="823.3433333333334" y="825.15" type="line"/>
      <point x="968.84" y="807.5566666666667"/>
      <point x="1173.1266666666668" y="614.75"/>
      <point x="1173.1266666666668" y="439.45" type="qcurve" smooth="yes"/>
      <point x="1173.1266666666668" y="238.83333333333334"/>
      <point x="914.2833333333333" y="0.0"/>
      <point x="698.28" y="0.0" type="qcurve" smooth="yes"/>
    </contour>
    <contour>
      <point x="414.11" y="93.43333333333334" type="line"/>
      <point x="444.78000000000003" y="75.58333333333334" type="line"/>
      <point x="666.9033333333334" y="74.86666666666667" type="line" smooth="yes"/>
      <point x="852.5" y="74.15"/>
      <point x="1058.2566666666667" y="251.65"/>
      <point x="1058.2566666666667" y="440.0" type="qcurve" smooth="yes"/>
      <point x="1058.2566666666667" y="596.9"/>
      <point x="878.7433333333333" y="770.9666666666667"/>
      <point x="720.4366666666667" y="770.9666666666667" type="qcurve" smooth="yes"/>
      <point x="418.77" y="770.9666666666667" type="line"/>
      <point x="412.6766666666667" y="759.1166666666667" type="line"/>
    </contour>
    <contour>
      <point x="412.4133333333333" y="855.25" type="line"/>
      <point x="420.63666666666666" y="843.4" type="line"/>
      <point x="674.7133333333334" y="843.4" type="line" smooth="yes"/>
      <point x="801.2233333333334" y="843.4"/>
      <point x="954.86" y="1006.05"/>
      <point x="954.86" y="1151.9333333333334" type="qcurve" smooth="yes"/>
      <point x="954.86" y="1286.6133333333332"/>
      <point x="803.1333333333333" y="1420.8833333333334"/>
      <point x="654.3733333333333" y="1420.8833333333334" type="qcurve" smooth="yes"/>
      <point x="447.08" y="1420.8833333333334" type="line"/>
      <point x="414.6766666666667" y="1401.45" type="line"/>
    </contour>
  </outline>
</glyph>
<glyph name="C" format="2">
  <advance width="1433"/>
  <unicode hex="0043"/>
  <outline>
    <contour>
      <point x="83.26333333333334" y="704.16" type="qcurve" smooth="yes"/>
      <point x="83.26333333333334" y="1069.9199999999998"/>
      <point x="500.40333333333336" y="1519.1633333333334"/>
      <point x="832.5799999999999" y="1519.1633333333334" type="qcurve" smooth="yes"/>
      <point x="964.2700000000001" y="1519.1633333333334"/>
      <point x="1173.2866666666666" y="1458.0566666666666"/>
      <point x="1241.0600000000002" y="1413.3366666666666" type="qcurve"/>
      <point x="1264.8966666666668" y="1499.98" type="line"/>
      <point x="1333.0366666666666" y="1499.98" type="line"/>
      <point x="1333.0366666666666" y="1038.1466666666668" type="line"/>
      <point x="1260.6833333333334" y="1038.1466666666668" type="line"/>
      <point x="1230.97" y="1220.1433333333332" type="line" smooth="yes"/>
      <point x="1212.32" y="1336.6299999999999"/>
      <point x="988.5633333333333" y="1437.0300000000002"/>
      <point x="841.2766666666666" y="1437.0300000000002" type="qcurve" smooth="yes"/>
      <point x="554.8100000000001" y="1437.0300000000002"/>
      <point x="195.36" y="1073.44"/>
      <point x="198.03666666666666" y="731.16" type="qcurve" smooth="yes"/>
      <point x="199.99666666666667" y="425.61333333333334"/>
      <point x="563.37" y="63.156666666666666"/>
      <point x="845.1433333333333" y="63.156666666666666" type="qcurve" smooth="yes"/>
      <point x="1043.79" y="63.156666666666666"/>
      <point x="1298.9599999999998" y="197.89"/>
      <point x="1365.9533333333334" y="294.6133333333333" type="qcurve"/>
      <point x="1423.2133333333334" y="239.92333333333332" type="line"/>
      <point x="1333.2733333333333" y="116.13333333333334"/>
      <point x="1036.3266666666666" y="-29.363333333333333"/>
      <point x="839.5899999999999" y="-29.363333333333333" type="qcurve" smooth="yes"/>
      <point x="490.43666666666667" y="-29.363333333333333"/>
      <point x="83.26333333333334" y="389.99"/>
    </contour>
  </outline>
</glyph>
<glyph name="D" format="2">
  <advance width="1580"/>
  <unicode hex="0044"/>
  <outline>
    <contour>
      <point x="85.38" y="0.0" type="line"/>
      <point x="85.38" y="62.63333333333333" type="line"/>
      <point x="306.7133333333333" y="97.63333333333334" type="line"/>
      <point x="308.7133333333333" y="754.0" type="line"/>
      <point x="306.7133333333333" y="1400.1366666666665" type="line"/>
      <point x="85.38" y="1434.1366666666665" type="line"/>
      <point x="85.38" y="1500.0" type="line"/>
      <point x="713.84" y="1500.0" type="line" smooth="yes"/>
      <point x="1050.4966666666667" y="1500.0"/>
      <point x="1496.1966666666667" y="1119.0"/>
      <point x="1496.1966666666667" y="777.0" type="qcurve" smooth="yes"/>
      <point x="1496.1966666666667" y="410.0"/>
      <point x="1057.21" y="0.0"/>
      <point x="674.16" y="0.0" type="qcurve" smooth="yes"/>
    </contour>
    <contour>
      <point x="414.8266666666667" y="88.33333333333334" type="line"/>
      <point x="450.63666666666666" y="83.05000000000001"/>
      <point x="622.4000000000001" y="72.61666666666667"/>
      <point x="708.8633333333333" y="72.61666666666667" type="qcurve" smooth="yes"/>
      <point x="1006.4566666666667" y="72.61666666666667"/>
      <point x="1380.1399999999999" y="420.3666666666667"/>
      <point x="1382.1399999999999" y="768.1666666666666" type="qcurve" smooth="yes"/>
      <point x="1384.12" y="1088.1"/>
      <point x="985.5433333333333" y="1425.2866666666666"/>
      <point x="666.49" y="1425.2866666666666" type="qcurve" smooth="yes"/>
      <point x="609.0866666666667" y="1425.2866666666666"/>
      <point x="456.2" y="1416.87"/>
      <point x="414.8266666666667" y="1411.87" type="qcurve"/>
      <point x="412.11" y="759.7333333333333" type="line"/>
    </contour>
  </outline>
</glyph>
<glyph name="E" format="2">
  <advance width="1281"/>
  <unicode hex="0045"/>
  <outline>
    <contour>
      <point x="85.38" y="0.0" type="line"/>
      <point x="85.38" y="62.653333333333336" type="line"/>
      <point x="307.43" y="98.17999999999999" type="line"/>
      <point x="308.7133333333333" y="783.1366666666667" type="line"/>
      <point x="307.43" y="1400.1366666666665" type="line"/>
      <point x="85.38" y="1434.1366666666665" type="line"/>
      <point x="85.38" y="1500.0" type="line"/>
      <point x="1122.3966666666665" y="1500.0" type="line"/>
      <point x="1122.3966666666665" y="1157.9333333333334" type="line"/>
      <point x="1052.59" y="1157.9333333333334" type="line"/>
      <point x="1010.6233333333333" y="1425.7166666666667" type="line"/>
      <point x="440.51666666666665" y="1425.7166666666667" type="line"/>
      <point x="413.13" y="1401.4166666666667" type="line"/>
      <point x="411.8666666666667" y="783.7166666666667" type="line"/>
      <point x="413.13" y="97.6" type="line"/>
      <point x="439.3666666666667" y="71.45" type="line"/>
      <point x="1072.5266666666666" y="71.45" type="line"/>
      <point x="1154.5366666666666" y="372.26666666666665" type="line"/>
      <point x="1223.6266666666668" y="372.26666666666665" type="line"/>
      <point x="1183.8666666666668" y="0.0" type="line"/>
    </contour>
    <contour>
      <point x="362.2" y="753.05" type="line"/>
      <point x="362.2" y="818.95" type="line"/>
      <point x="872.67" y="822.5" type="line"/>
      <point x="903.1700000000001" y="1001.1333333333333" type="line"/>
      <point x="972.26" y="1001.1333333333333" type="line"/>
      <point x="972.26" y="568.0" type="line"/>
      <point x="903.1700000000001" y="568.0" type="line"/>
      <point x="872.67" y="750.2166666666667" type="line"/>
    </contour>
  </outline>
</glyph>
<glyph name="F" format="2">
  <advance width="1177"/>
  <unicode hex="0046"/>
  <outline>
    <contour>
      <point x="85.38" y="0.0" type="line"/>
      <point x="85.38" y="62.653333333333336" type="line"/>
      <point x="307.43" y="98.17999999999999" type="line"/>
      <point x="308.7133333333333" y="762.03" type="line"/>
      <point x="307.43" y="1400.1366666666665" type="line"/>
      <point x="85.38" y="1434.1366666666665" type="line"/>
      <point x="85.38" y="1500.0" type="line"/>
      <point x="1109.1433333333334" y="1500.0" type="line"/>
      <point x="1109.1433333333334" y="1147.9333333333334" type="line"/>
      <point x="1039.3366666666666" y="1147.9333333333334" type="line"/>
      <point x="1005.97" y="1425.7166666666667" type="line"/>
      <point x="441.0833333333333" y="1425.7166666666667" type="line"/>
      <point x="413.4133333333333" y="1401.4166666666667" type="line"/>
      <point x="412.13" y="762.15" type="line"/>
      <point x="413.4133333333333" y="96.84333333333332" type="line"/>
      <point x="667.2666666666667" y="62.653333333333336" type="line"/>
      <point x="667.2666666666667" y="0.0" type="line"/>
    </contour>
    <contour>
      <point x="360.50333333333333" y="733.3666666666667" type="line"/>
      <point x="360.50333333333333" y="800.9666666666667" type="line"/>
      <point x="862.2233333333334" y="803.6666666666666" type="line"/>
      <point x="892.7233333333334" y="987.2833333333333" type="line"/>
      <point x="962.59" y="987.2833333333333" type="line"/>
      <point x="962.59" y="529.8833333333333" type="line"/>
      <point x="892.7233333333334" y="529.8833333333333" type="line"/>
      <point x="862.2233333333334" y="731.3833333333333" type="line"/>
    </contour>
  </outline>
</glyph>
<glyph name="H" format="2">
  <advance width="1723"/>
  <unicode hex="0048"/>
  <outline>
    <contour>
      <point x="85.38" y="0.0" type="line"/>
      <point x="85.38" y="62.653333333333336" type="line"/>
      <point x="306.7133333333333" y="97.65333333333334" type="line"/>
      <point x="308.7133333333333" y="754.0" type="line"/>
      <point x="306.7133333333333" y="1400.1366666666665" type="line"/>
      <point x="85.38" y="1434.1366666666665" type="line"/>
      <point x="85.38" y="1500.0" type="line"/>
      <point x="643.1466666666666" y="1500.0" type="line"/>
      <point x="643.1466666666666" y="1434.1366666666665" type="line"/>
      <point x="414.8466666666667" y="1400.1366666666665" type="line"/>
      <point x="412.8466666666667" y="754.0" type="line"/>
      <point x="414.8466666666667" y="97.65333333333334" type="line"/>
      <point x="643.1466666666666" y="62.653333333333336" type="line"/>
      <point x="643.1466666666666" y="0.0" type="line"/>
    </contour>
    <contour>
      <point x="375.2133333333333" y="745.4233333333333" type="line"/>
      <point x="375.2133333333333" y="827.1766666666667" type="line"/>
      <point x="868.78" y="819.1766666666667" type="line"/>
      <point x="1346.8133333333335" y="827.1766666666667" type="line"/>
      <point x="1346.8133333333335" y="745.4233333333333" type="line"/>
      <point x="868.78" y="745.4233333333333" type="line"/>
    </contour>
    <contour>
      <point x="1079.68" y="0.0" type="line"/>
      <point x="1079.68" y="62.653333333333336" type="line"/>
      <point x="1307.98" y="97.65333333333334" type="line"/>
      <point x="1309.98" y="754.0" type="line"/>
      <point x="1307.98" y="1400.1366666666665" type="line"/>
      <point x="1079.68" y="1434.1366666666665" type="line"/>
      <point x="1079.68" y="1500.0" type="line"/>
      <point x="1637.4466666666667" y="1500.0" type="line"/>
      <point x="1637.4466666666667" y="1434.1366666666665" type="line"/>
      <point x="1416.1133333333335" y="1400.1366666666665" type="line"/>
      <point x="1414.1133333333335" y="754.0" type="line"/>
      <point x="1416.1133333333335" y="97.65333333333334" type="line"/>
      <point x="1637.4466666666667" y="62.653333333333336" type="line"/>
      <point x="1637.4466666666667" y="0.0" type="line"/>
    </contour>
  </outline>
</glyph>
<glyph name="P" format="2">
  <advance width="1261"/>
  <unicode hex="0050"/>
  <outline>
    <contour>
      <point x="72.48" y="0.0" type="line"/>
      <point x="72.48" y="62.63333333333333" type="line"/>
      <point x="306.7133333333333" y="98.16" type="line"/>
      <point x="308.7133333333333" y="759.7333333333333" type="line"/>
      <point x="307.43" y="1400.1366666666665" type="line"/>
      <point x="85.38" y="1434.1366666666665" type="line"/>
      <point x="85.38" y="1500.0" type="line"/>
      <point x="705.75" y="1500.0" type="line" smooth="yes"/>
      <point x="936.3433333333334" y="1500.0"/>
      <point x="1184.01" y="1287.5833333333333"/>
      <point x="1184.01" y="1079.1666666666667" type="qcurve" smooth="yes"/>
      <point x="1184.01" y="873.1666666666666"/>
      <point x="927.1766666666667" y="611.1833333333333"/>
      <point x="680.5333333333334" y="611.1833333333333" type="qcurve" smooth="yes"/>
      <point x="590.09" y="611.1833333333333"/>
      <point x="412.99333333333334" y="630.0333333333333"/>
      <point x="364.84" y="640.1833333333333" type="qcurve"/>
      <point x="370.19666666666666" y="709.6333333333333" type="line"/>
      <point x="428.8566666666667" y="694.4833333333333"/>
      <point x="560.1366666666667" y="684.05"/>
      <point x="661.5366666666666" y="684.05" type="qcurve" smooth="yes"/>
      <point x="850.13" y="684.05"/>
      <point x="1070.3533333333332" y="888.6666666666666"/>
      <point x="1070.3533333333332" y="1080.6" type="qcurve" smooth="yes"/>
      <point x="1070.3533333333332" y="1252.8"/>
      <point x="859.8066666666667" y="1424.2833333333333"/>
      <point x="676.4" y="1424.2833333333333" type="qcurve" smooth="yes"/>
      <point x="448.1733333333333" y="1424.2833333333333" type="line"/>
      <point x="414.3733333333333" y="1403.7166666666667" type="line"/>
      <point x="412.11" y="765.4333333333333" type="line"/>
      <point x="414.11" y="96.84333333333332" type="line"/>
      <point x="667.2466666666667" y="62.653333333333336" type="line"/>
      <point x="667.2466666666667" y="0.0" type="line"/>
    </contour>
  </outline>
</glyph>
<glyph name="Q" format="2">
  <advance width="1653"/>
  <unicode hex="0051"/>
  <outline>
    <contour>
      <point x="83.26333333333334" y="739.4499999999999" type="qcurve" smooth="yes"/>
      <point x="83.26333333333334" y="1068.04"/>
      <point x="496.46000000000004" y="1520.0"/>
      <point x="826.3" y="1520.0" type="qcurve" smooth="yes"/>
      <point x="1156.14" y="1520.0"/>
      <point x="1569.3166666666668" y="1097.04"/>
      <point x="1569.3166666666668" y="752.6066666666667" type="qcurve" smooth="yes"/>
      <point x="1569.3166666666668" y="418.1166666666667"/>
      <point x="1154.45" y="-27.923333333333332"/>
      <point x="829.2066666666667" y="-27.923333333333332" type="qcurve" smooth="yes"/>
      <point x="502.30333333333334" y="-27.923333333333332"/>
      <point x="83.26333333333334" y="402.19666666666666"/>
    </contour>
    <contour>
      <point x="194.45333333333332" y="777.0766666666666" type="qcurve" smooth="yes"/>
      <point x="194.98" y="461.5933333333333"/>
      <point x="545.1466666666666" y="51.11"/>
      <point x="829.3766666666667" y="51.11" type="qcurve" smooth="yes"/>
      <point x="1128.1866666666667" y="51.11"/>
      <point x="1458.3366666666668" y="425.5466666666666"/>
      <point x="1458.8633333333335" y="748.4733333333332" type="qcurve" smooth="yes"/>
      <point x="1459.39" y="1045.9333333333334"/>
      <point x="1117.64" y="1434.4866666666667"/>
      <point x="830.43" y="1434.4866666666667" type="qcurve" smooth="yes"/>
      <point x="528.4166666666666" y="1434.4866666666667"/>
      <point x="193.92666666666668" y="1074.6333333333334"/>
    </contour>
    <contour>
      <point x="285.09" y="-273.4666666666667" type="qcurve"/>
      <point x="238.97" y="-230.45" type="line"/>
      <point x="283.38666666666666" y="-160.21666666666667"/>
      <point x="459.18666666666667" y="-48.846666666666664"/>
      <point x="537.0433333333333" y="-39.98" type="qcurve"/>
      <point x="697.4599999999999" y="237.11666666666667" type="line"/>
      <point x="763.5866666666667" y="203.58333333333331" type="line"/>
      <point x="610.6366666666667" y="-58.19" type="line"/>
      <point x="1210.2866666666666" y="-311.4433333333333" type="line"/>
      <point x="1279.9199999999998" y="-311.4433333333333"/>
      <point x="1404.8433333333332" y="-217.19333333333333"/>
      <point x="1444.0733333333335" y="-135.96" type="qcurve"/>
      <point x="1504.47" y="-169.98333333333332" type="line"/>
      <point x="1464.1466666666665" y="-271.83333333333337"/>
      <point x="1291.0466666666666" y="-407.81666666666666"/>
      <point x="1175.7333333333333" y="-407.81666666666666" type="qcurve"/>
      <point x="558.9166666666667" y="-143.11666666666667" type="line"/>
      <point x="473.97" y="-139.53333333333333"/>
      <point x="337.39000000000004" y="-212.15"/>
    </contour>
  </outline>
</glyph>
<glyph name="R" format="2">
  <advance width="1334"/>
  <unicode hex="0052"/>
  <outline>
    <contour>
      <point x="72.48" y="0.0" type="line"/>
      <point x="72.48" y="62.63333333333333" type="line"/>
      <point x="306.7133333333333" y="97.89666666666666" type="line"/>
      <point x="308.7133333333333" y="784.6" type="line"/>
      <point x="307.43" y="1400.1366666666665" type="line"/>
      <point x="85.38" y="1434.1366666666665" type="line"/>
      <point x="85.38" y="1500.0" type="line"/>
      <point x="707.7033333333334" y="1500.0" type="line" smooth="yes"/>
      <point x="908.41" y="1499.98"/>
      <point x="1106.9933333333333" y="1322.7633333333335"/>
      <point x="1106.9933333333333" y="1159.63" type="qcurve" smooth="yes"/>
      <point x="1106.9933333333333" y="973.1666666666666"/>
      <point x="869.9366666666666" y="751.7466666666667"/>
      <point x="684.5166666666667" y="751.7466666666667" type="qcurve" smooth="yes"/>
      <point x="620.72" y="751.7466666666667"/>
      <point x="428.59000000000003" y="758.5166666666667"/>
      <point x="363.34999999999997" y="761.3666666666667" type="qcurve"/>
      <point x="363.34999999999997" y="823.5" type="line"/>
      <point x="640.9666666666667" y="821.35" type="line" smooth="yes"/>
      <point x="812.7099999999999" y="819.9166666666666"/>
      <point x="991.9933333333333" y="995.6833333333333"/>
      <point x="991.9933333333333" y="1154.2" type="qcurve" smooth="yes"/>
      <point x="991.9933333333333" y="1287.4"/>
      <point x="828.5633333333333" y="1424.2833333333333"/>
      <point x="682.31" y="1424.2833333333333" type="qcurve" smooth="yes"/>
      <point x="447.06" y="1424.2833333333333" type="line"/>
      <point x="414.65666666666664" y="1404.85" type="line"/>
      <point x="412.11" y="773.9333333333333" type="line"/>
      <point x="414.11" y="97.89666666666666" type="line"/>
      <point x="655.4866666666667" y="62.653333333333336" type="line"/>
      <point x="655.4866666666667" y="0.0" type="line"/>
    </contour>
    <contour>
      <point x="628.55" y="768.2766666666666" type="line"/>
      <point x="729.5533333333333" y="794.3766666666667" type="line"/>
      <point x="1061.3500000000001" y="262.68333333333334" type="line" smooth="yes"/>
      <point x="1148.3400000000001" y="123.55"/>
      <point x="1274.3933333333332" y="63.733333333333334"/>
      <point x="1378.7533333333333" y="62.733333333333334" type="qcurve"/>
      <point x="1378.7533333333333" y="0.0" type="line"/>
      <point x="1112.59" y="0.0" type="line"/>
      <point x="1088.07" y="14.983333333333334" type="line"/>
    </contour>
  </outline>
</glyph>
<glyph name="X" format="2">
  <advance width="1359"/>
  <unicode hex="0058"/>
  <outline>
    <contour>
      <point x="-40.32333333333333" y="0.0" type="line"/>
      <point x="-40.36333333333333" y="62.67333333333333" type="line"/>
      <point x="152.5966666666667" y="98.39" type="line"/>
      <point x="635.6433333333333" y="836.4366666666666" type="line"/>
      <point x="640.8666666666667" y="836.4766666666667" type="line"/>
      <point x="1008.4766666666667" y="1403.04" type="line"/>
      <point x="804.6266666666667" y="1434.1366666666665" type="line"/>
      <point x="804.6266666666667" y="1500.0" type="line"/>
      <point x="1310.5566666666666" y="1500.0" type="line"/>
      <point x="1310.5566666666666" y="1434.1366666666665" type="line"/>
      <point x="1109.0900000000001" y="1400.9266666666665" type="line"/>
      <point x="688.49" y="768.79" type="line"/>
      <point x="684.0433333333333" y="768.75" type="line"/>
      <point x="253.94666666666666" y="96.27666666666666" type="line"/>
      <point x="456.06333333333333" y="62.67333333333333" type="line"/>
      <point x="456.06333333333333" y="0.0" type="line"/>
    </contour>
    <contour>
      <point x="5.6933333333333325" y="1434.1366666666665" type="line"/>
      <point x="5.6933333333333325" y="1500.0" type="line"/>
      <point x="540.8366666666667" y="1500.0" type="line"/>
      <point x="540.8366666666667" y="1434.1366666666665" type="line"/>
      <point x="325.52" y="1400.3799999999999" type="line"/>
      <point x="697.01" y="836.0166666666667" type="line"/>
      <point x="1195.1166666666666" y="97.65333333333334" type="line"/>
      <point x="1404.74" y="62.67333333333333" type="line"/>
      <point x="1404.74" y="0.0" type="line"/>
      <point x="858.62" y="0.0" type="line"/>
      <point x="858.62" y="62.67333333333333" type="line"/>
      <point x="1069.9366666666667" y="97.65333333333334" type="line"/>
      <point x="625.63" y="765.9466666666667" type="line"/>
      <point x="201.75333333333333" y="1400.9266666666665" type="line"/>
    </contour>
  </outline>
</glyph>
<glyph name="Z" format="2">
  <advance width="1171"/>
  <unicode hex="005A"/>
  <outline>
    <contour>
      <point x="61.596666666666664" y="0.0" type="line"/>
      <point x="39.6" y="65.48333333333333" type="line"/>
      <point x="957.6566666666666" y="1416.2833333333333" type="line"/>
      <point x="950.8466666666666" y="1425.7166666666667" type="line"/>
      <point x="199.76666666666665" y="1425.7166666666667" type="line"/>
      <point x="152.35999999999999" y="1103.2333333333333" type="line"/>
      <point x="83.59333333333333" y="1103.2333333333333" type="line"/>
      <point x="83.59333333333333" y="1500.0" type="line"/>
      <point x="1088.31" y="1500.0" type="line"/>
      <point x="1088.31" y="1432.65" type="line"/>
      <point x="171.3466666666667" y="81.03333333333333" type="line"/>
      <point x="177.17666666666665" y="71.45" type="line"/>
      <point x="998.1533333333334" y="71.45" type="line"/>
      <point x="1083.89" y="373.18333333333334" type="line"/>
      <point x="1154.3933333333332" y="373.18333333333334" type="line"/>
      <point x="1111.2066666666667" y="0.0" type="line"/>
    </contour>
  </outline>
</glyph>
<glyph name="backslash" format="2">
  <advance width="634"/>
  <unicode hex="005C"/>
  <outline>
    <contour>
      <point x="-31.263333333333332" y="1526.5333333333333" type="line"/>
      <point x="52.06333333333333" y="1548.55" type="line"/>
      <point x="674.9200000000001" y="-133.76666666666668" type="line"/>
      <point x="591.5933333333332" y="-156.5" type="line"/>
    </contour>
  </outline>
</glyph>
<glyph name="underscore" format="2">
  <advance width="1388"/>
  <unicode hex="005F"/>
  <outline>
    <contour>
      <point x="-18.566666666666666" y="-479.92" type="line"/>
      <point x="-18.566666666666666" y="-394.39666666666665" type="line"/>
      <point x="697.8366666666666" y="-388.4166666666667" type="line"/>
      <point x="1406.2800000000002" y="-394.39666666666665" type="line"/>
      <point x="1406.2800000000002" y="-479.92" type="line"/>
      <point x="697.8366666666666" y="-487.9166666666667" type="line"/>
    </contour>
  </outline>
</glyph>
<glyph name="grave" format="2">
  <advance width="1024"/>
  <unicode hex="0060"/>
  <outline>
    <contour>
      <point x="322.69" y="1397.7433333333333" type="qcurve" smooth="yes"/>
      <point x="322.72999999999996" y="1417.5533333333333"/>
      <point x="357.65000000000003" y="1447.5733333333335"/>
      <point x="380.8" y="1447.5733333333335" type="qcurve" smooth="yes"/>
      <point x="404.8" y="1447.5733333333335"/>
      <point x="449.4433333333333" y="1413.5833333333335"/>
      <point x="472.14" y="1388.1499999999999" type="qcurve" smooth="yes"/>
      <point x="664.8266666666666" y="1164.4733333333334" type="line"/>
      <point x="627.7366666666667" y="1124.5266666666666" type="line"/>
      <point x="372.5733333333333" y="1321.8133333333333" type="line" smooth="yes"/>
      <point x="348.8933333333334" y="1339.1533333333334"/>
      <point x="322.65" y="1373.9966666666667"/>
    </contour>
  </outline>
</glyph>
<glyph name="a" format="2">
  <advance width="1018"/>
  <unicode hex="0061"/>
  <outline>
    <contour>
      <point x="78.21666666666667" y="247.47666666666666" type="qcurve" smooth="yes"/>
      <point x="78.21666666666667" y="381.79"/>
      <point x="365.38666666666666" y="578.85"/>
      <point x="708.6500000000001" y="633.6733333333334" type="qcurve"/>
      <point x="713.29" y="574.3566666666667" type="line"/>
      <point x="443.4433333333333" y="529.7966666666666"/>
      <point x="186.92666666666668" y="379.59"/>
      <point x="186.92666666666668" y="256.97666666666663" type="qcurve" smooth="yes"/>
      <point x="186.92666666666668" y="163.36666666666667"/>
      <point x="298.2233333333333" y="63.2"/>
      <point x="396.79" y="63.2" type="qcurve" smooth="yes"/>
      <point x="488.6933333333333" y="63.2"/>
      <point x="654.9866666666667" y="164.83333333333334"/>
      <point x="684.4866666666667" y="222.85000000000002" type="qcurve"/>
      <point x="685.73" y="618.6566666666668" type="line" smooth="yes"/>
      <point x="685.9933333333333" y="802.82"/>
      <point x="558.5166666666667" y="943.2666666666667"/>
      <point x="452.63" y="943.2666666666667" type="qcurve" smooth="yes"/>
      <point x="357.06" y="943.2666666666667"/>
      <point x="253.65" y="899.9533333333334"/>
      <point x="227.74333333333334" y="865.7433333333333" type="qcurve"/>
      <point x="242.93" y="849.86"/>
      <point x="264.3833333333333" y="815.1966666666666"/>
      <point x="266.6066666666667" y="796.23" type="qcurve" smooth="yes"/>
      <point x="270.6" y="767.2633333333333"/>
      <point x="238.80333333333334" y="726.8166666666666"/>
      <point x="208.39" y="726.8166666666666" type="qcurve" smooth="yes"/>
      <point x="176.56333333333336" y="726.8166666666666"/>
      <point x="135.93333333333334" y="777.8566666666667"/>
      <point x="135.93333333333334" y="825.8166666666667" type="qcurve" smooth="yes"/>
      <point x="135.93333333333334" y="899.7466666666667"/>
      <point x="313.9666666666667" y="1022.2033333333333"/>
      <point x="462.04" y="1022.2033333333333" type="qcurve" smooth="yes"/>
      <point x="615.5500000000001" y="1022.2033333333333"/>
      <point x="784.8066666666666" y="839.3066666666667"/>
      <point x="786.24" y="618.5533333333333" type="qcurve" smooth="yes"/>
      <point x="789.1066666666667" y="80.6" type="line"/>
      <point x="955.5200000000001" y="51.33333333333333" type="line"/>
      <point x="955.5200000000001" y="0.0" type="line"/>
      <point x="716.5166666666667" y="0.0" type="line"/>
      <point x="693.5233333333333" y="31.113333333333333" type="line"/>
      <point x="684.4866666666667" y="146.45" type="line"/>
      <point x="648.7433333333333" y="82.44999999999999"/>
      <point x="470.00666666666666" y="-14.433333333333334"/>
      <point x="354.78333333333336" y="-14.433333333333334" type="qcurve" smooth="yes"/>
      <point x="220.94333333333336" y="-14.433333333333334"/>
      <point x="78.21666666666667" y="132.16333333333333"/>
    </contour>
  </outline>
</glyph>
<glyph name="e" format="2">
  <advance width="1006"/>
  <unicode hex="0065"/>
  <outline>
    <contour>
      <point x="66.32333333333332" y="507.8833333333333" type="qcurve" smooth="yes"/>
      <point x="66.32333333333332" y="728.7866666666667"/>
      <point x="324.7266666666667" y="1021.94"/>
      <point x="531.43" y="1021.94" type="qcurve" smooth="yes"/>
      <point x="718.8000000000001" y="1021.94"/>
      <point x="942.8633333333332" y="788.7"/>
      <point x="961.8266666666667" y="589.4333333333333" type="qcurve"/>
      <point x="961.8266666666667" y="548.0666666666667" type="line"/>
      <point x="156.25333333333336" y="548.0666666666667" type="line"/>
      <point x="158.40333333333334" y="613.25" type="line"/>
      <point x="859.4433333333334" y="613.25" type="line"/>
      <point x="842.38" y="763.7166666666667"/>
      <point x="665.6266666666667" y="948.7900000000001"/>
      <point x="520.0266666666666" y="948.7900000000001" type="qcurve" smooth="yes"/>
      <point x="362.91999999999996" y="948.7900000000001"/>
      <point x="176.50666666666666" y="720.7833333333333"/>
      <point x="176.79" y="520.7166666666667" type="qcurve" smooth="yes"/>
      <point x="177.76999999999998" y="296.7833333333333"/>
      <point x="402.5333333333333" y="64.98"/>
      <point x="586.0533333333333" y="64.98" type="qcurve" smooth="yes"/>
      <point x="695.4866666666667" y="64.98"/>
      <point x="849.1566666666668" y="129.6"/>
      <point x="897.48" y="178.78333333333333" type="qcurve"/>
      <point x="930.5633333333334" y="144.32666666666668" type="line"/>
      <point x="883.0866666666667" y="76.86666666666667"/>
      <point x="699.0266666666666" y="-21.9"/>
      <point x="570.26" y="-21.9" type="qcurve" smooth="yes"/>
      <point x="338.01666666666665" y="-21.9"/>
      <point x="66.32333333333332" y="258.31666666666666"/>
    </contour>
  </outline>
</glyph>
<glyph name="f" format="2">
  <advance width="609"/>
  <unicode hex="0066"/>
  <outline>
    <contour>
      <point x="51.13333333333333" y="0.0" type="line"/>
      <point x="51.13333333333333" y="51.33333333333333" type="line"/>
      <point x="246.8" y="80.6" type="line"/>
      <point x="250.95" y="527.0" type="line"/>
      <point x="250.1" y="905.9833333333333" type="line"/>
      <point x="60.65" y="917.4333333333334" type="line"/>
      <point x="60.65" y="974.6" type="line"/>
      <point x="251.38333333333333" y="987.5833333333334" type="line"/>
      <point x="251.76000000000002" y="1313.6033333333332" type="line" smooth="yes"/>
      <point x="252.04333333333335" y="1405.4033333333332"/>
      <point x="360.46999999999997" y="1520.1366666666665"/>
      <point x="446.2366666666667" y="1520.1366666666665" type="qcurve" smooth="yes"/>
      <point x="483.65666666666664" y="1520.1366666666665"/>
      <point x="550.9633333333334" y="1501.2933333333335"/>
      <point x="575.6633333333333" y="1485.35" type="qcurve" smooth="yes"/>
      <point x="588.1533333333334" y="1477.9166666666665" type="line"/>
      <point x="575.5966666666666" y="1417.63" type="line"/>
      <point x="563.1666666666666" y="1421.5900000000001" type="line" smooth="yes"/>
      <point x="546.19" y="1428.1533333333334"/>
      <point x="504.53" y="1436.6233333333334"/>
      <point x="475.49666666666667" y="1436.6233333333334" type="qcurve" smooth="yes"/>
      <point x="407.5333333333333" y="1436.6233333333334"/>
      <point x="349.34666666666664" y="1357.0966666666666"/>
      <point x="349.61" y="1293.0733333333333" type="qcurve" smooth="yes"/>
      <point x="350.13666666666666" y="985.0" type="line"/>
      <point x="577.3033333333333" y="985.0" type="line"/>
      <point x="577.3033333333333" y="910.55" type="line"/>
      <point x="350.13666666666666" y="910.55" type="line"/>
      <point x="349.9866666666667" y="527.0" type="line"/>
      <point x="354.83666666666664" y="80.6" type="line"/>
      <point x="566.47" y="51.33333333333333" type="line"/>
      <point x="566.47" y="0.0" type="line"/>
    </contour>
  </outline>
</glyph>
<glyph name="g" format="2">
  <advance width="1039"/>
  <unicode hex="0067"/>
  <outline>
    <contour>
      <point x="16.9" y="-263.12333333333333" type="qcurve" smooth="yes"/>
      <point x="16.9" y="-179.55666666666667"/>
      <point x="135.25333333333333" y="-52.513333333333335"/>
      <point x="245.23333333333335" y="-11.556666666666668" type="qcurve"/>
      <point x="307.69666666666666" y="-36.373333333333335" type="line"/>
      <point x="210.92333333333335" y="-77.17333333333333"/>
      <point x="118.28" y="-179.27333333333334"/>
      <point x="118.28" y="-246.87333333333333" type="qcurve" smooth="yes"/>
      <point x="118.28" y="-340.19"/>
      <point x="322.44666666666666" y="-445.25"/>
      <point x="539.7366666666667" y="-445.25" type="qcurve" smooth="yes"/>
      <point x="741.4933333333333" y="-445.25"/>
      <point x="955.1" y="-337.98333333333335"/>
      <point x="955.1" y="-239.26333333333332" type="qcurve" smooth="yes"/>
      <point x="955.1" y="-151.2133333333333"/>
      <point x="794.6666666666666" y="-82.80666666666666"/>
      <point x="543.9666666666667" y="-73.64" type="qcurve" smooth="yes"/>
      <point x="309.57666666666665" y="-64.47333333333334"/>
      <point x="89.25333333333333" y="41.36333333333333"/>
      <point x="89.25333333333333" y="137.17666666666668" type="qcurve" smooth="yes"/>
      <point x="89.25333333333333" y="218.20666666666668"/>
      <point x="211.89000000000001" y="315.33666666666664"/>
      <point x="291.75" y="342.85" type="qcurve"/>
      <point x="326.56666666666666" y="299.5" type="line"/>
      <point x="264.08333333333337" y="275.62333333333333"/>
      <point x="184.67333333333335" y="211.42333333333335"/>
      <point x="184.67333333333335" y="158.61333333333334" type="qcurve" smooth="yes"/>
      <point x="184.67333333333335" y="96.09333333333333"/>
      <point x="340.11333333333334" y="27.743333333333332"/>
      <point x="559.6966666666666" y="20.576666666666664" type="qcurve" smooth="yes"/>
      <point x="826.1533333333333" y="12.693333333333332"/>
      <point x="1058.5633333333335" y="-88.19"/>
      <point x="1058.5633333333335" y="-205.32333333333335" type="qcurve" smooth="yes"/>
      <point x="1058.5633333333335" y="-337.00666666666666"/>
      <point x="808.9499999999999" y="-512.2666666666667"/>
      <point x="518.7466666666667" y="-512.2666666666667" type="qcurve" smooth="yes"/>
      <point x="270.62333333333333" y="-512.2666666666667"/>
      <point x="16.9" y="-379.98999999999995"/>
    </contour>
    <contour>
      <point x="114.16666666666667" y="634.0766666666666" type="qcurve" smooth="yes"/>
      <point x="114.16666666666667" y="802.03"/>
      <point x="338.11" y="1021.94"/>
      <point x="516.4266666666666" y="1021.94" type="qcurve" smooth="yes"/>
      <point x="695.0266666666668" y="1021.94"/>
      <point x="922.3633333333333" y="820.18"/>
      <point x="922.3633333333333" y="641.9433333333333" type="qcurve" smooth="yes"/>
      <point x="923.08" y="474.23"/>
      <point x="699.44" y="234.08333333333334"/>
      <point x="521.3866666666667" y="234.08333333333334" type="qcurve" smooth="yes"/>
      <point x="342.07" y="234.08333333333334"/>
      <point x="114.16666666666667" y="452.36333333333334"/>
    </contour>
    <contour>
      <point x="225.66" y="643.3599999999999" type="qcurve" smooth="yes"/>
      <point x="225.66" y="477.31333333333333"/>
      <point x="385.53000000000003" y="300.25"/>
      <point x="517.1433333333333" y="300.25" type="qcurve" smooth="yes"/>
      <point x="657.93" y="300.25"/>
      <point x="809.6066666666666" y="476.49666666666667"/>
      <point x="809.6066666666666" y="640.2433333333332" type="qcurve" smooth="yes"/>
      <point x="809.6066666666666" y="786.98"/>
      <point x="652.17" y="949.5066666666668"/>
      <point x="519.8399999999999" y="949.5066666666668" type="qcurve" smooth="yes"/>
      <point x="380.0333333333333" y="949.5066666666668"/>
      <point x="225.66" y="790.08"/>
    </contour>
    <contour>
      <point x="655.9433333333334" y="937.9" type="line"/>
      <point x="641.0233333333334" y="992.8333333333334" type="line"/>
      <point x="1061.8666666666666" y="993.55" type="line"/>
      <point x="1061.8666666666666" y="910.8666666666667" type="line"/>
    </contour>
  </outline>
</glyph>
<glyph name="h" format="2">
  <advance width="1245"/>
  <unicode hex="0068"/>
  <outline>
    <contour>
      <point x="82.56666666666668" y="0.0" type="line"/>
      <point x="82.56666666666668" y="51.33333333333333" type="line"/>
      <point x="242.36" y="80.6" type="line"/>
      <point x="244.36" y="527.0" type="line"/>
      <point x="242.36" y="1413.1866666666667" type="line"/>
      <point x="50.82333333333333" y="1436.8166666666666" type="line"/>
      <point x="50.82333333333333" y="1500.0" type="line"/>
      <point x="314.85333333333335" y="1519.6666666666667" type="line"/>
      <point x="329.6533333333333" y="1516.0833333333333" type="line"/>
      <point x="344.0366666666667" y="1491.9666666666667" type="line"/>
      <point x="344.45" y="837.1566666666666" type="line"/>
      <point x="403.4533333333334" y="915.28"/>
      <point x="611.3233333333334" y="1021.1633333333333"/>
      <point x="739.36" y="1021.1633333333333" type="qcurve" smooth="yes"/>
      <point x="879.26" y="1021.1633333333333"/>
      <point x="1025.8733333333332" y="881.78"/>
      <point x="1025.8733333333332" y="742.6433333333333" type="qcurve" smooth="yes"/>
      <point x="1025.8733333333332" y="675.3733333333333"/>
      <point x="1024.4966666666667" y="532.0999999999999"/>
      <point x="1024.4966666666667" y="527.7" type="qcurve"/>
      <point x="1029.4566666666665" y="80.6" type="line"/>
      <point x="1183.0066666666667" y="51.33333333333333" type="line"/>
      <point x="1183.0066666666667" y="0.0" type="line"/>
      <point x="771.32" y="0.0" type="line"/>
      <point x="771.32" y="51.33333333333333" type="line"/>
      <point x="922.0266666666666" y="80.6" type="line"/>
      <point x="923.9866666666667" y="527.7" type="line"/>
      <point x="923.9866666666667" y="726.3533333333332" type="line" smooth="yes"/>
      <point x="923.9866666666667" y="821.9566666666667"/>
      <point x="805.01" y="923.03"/>
      <point x="690.9433333333334" y="923.03" type="qcurve" smooth="yes"/>
      <point x="590.4066666666666" y="923.03"/>
      <point x="398.47333333333336" y="825.0733333333333"/>
      <point x="344.20666666666665" y="745.4866666666667" type="qcurve"/>
      <point x="344.20666666666665" y="527.7" type="line"/>
      <point x="350.4666666666667" y="80.6" type="line"/>
      <point x="503.57" y="51.33333333333333" type="line"/>
      <point x="503.57" y="0.0" type="line"/>
    </contour>
  </outline>
</glyph>
<glyph name="i" format="2">
  <advance width="615"/>
  <unicode hex="0069"/>
  <outline>
    <contour>
      <point x="72.75666666666667" y="0.0" type="line"/>
      <point x="72.75666666666667" y="52.766666666666666" type="line"/>
      <point x="263.90333333333336" y="80.6" type="line"/>
      <point x="265.90333333333336" y="527.0" type="line"/>
      <point x="261.87" y="894.3166666666667" type="line"/>
      <point x="75.02333333333333" y="918.5833333333334" type="line"/>
      <point x="75.02333333333333" y="981.05" type="line"/>
      <point x="330.68" y="1002.15" type="line"/>
      <point x="355.4633333333333" y="1000.7166666666667" type="line"/>
      <point x="369.86333333333334" y="965.4" type="line"/>
      <point x="365.73" y="527.0" type="line"/>
      <point x="371.31333333333333" y="80.6" type="line"/>
      <point x="556.01" y="52.766666666666666" type="line"/>
      <point x="556.01" y="0.0" type="line"/>
    </contour>
    <contour>
      <point x="205.35" y="1323.86" type="qcurve" smooth="yes"/>
      <point x="205.35" y="1366.9733333333334"/>
      <point x="249.42666666666665" y="1413.6333333333334"/>
      <point x="293.1066666666666" y="1413.6333333333334" type="qcurve" smooth="yes"/>
      <point x="332.78666666666663" y="1413.6333333333334"/>
      <point x="380.86333333333334" y="1364.4066666666668"/>
      <point x="380.86333333333334" y="1323.86" type="qcurve" smooth="yes"/>
      <point x="380.86333333333334" y="1281.4633333333334"/>
      <point x="335.3533333333333" y="1234.7833333333333"/>
      <point x="293.1066666666666" y="1234.7833333333333" type="qcurve" smooth="yes"/>
      <point x="251.9933333333333" y="1234.7833333333333"/>
      <point x="205.35" y="1284.01"/>
    </contour>
  </outline>
</glyph>
<glyph name="q" format="2">
  <advance width="1166"/>
  <unicode hex="0071"/>
  <outline>
    <contour>
      <point x="67.68" y="487.31666666666666" type="qcurve" smooth="yes"/>
      <point x="67.68" y="733.7066666666667"/>
      <point x="332.91" y="1030.65"/>
      <point x="549.1766666666666" y="1030.65" type="qcurve" smooth="yes"/>
      <point x="652.34" y="1030.65"/>
      <point x="815.3733333333333" y="971.6166666666667"/>
      <point x="857.9966666666667" y="928.4000000000001" type="qcurve"/>
      <point x="891.9833333333333" y="1016.37" type="line"/>
      <point x="1144.8999999999999" y="993.1966666666666" type="line"/>
      <point x="1144.8999999999999" y="933.0833333333334" type="line"/>
      <point x="955.95" y="911.0666666666667" type="line"/>
      <point x="952.5733333333333" y="433.01666666666665" type="line"/>
      <point x="954.5533333333333" y="-399.4" type="line"/>
      <point x="1135.7533333333333" y="-428.6666666666667" type="line"/>
      <point x="1135.7533333333333" y="-480.0" type="line"/>
      <point x="639.6099999999999" y="-480.0" type="line"/>
      <point x="639.6099999999999" y="-428.6666666666667" type="line"/>
      <point x="847.9200000000001" y="-399.4" type="line"/>
      <point x="853.1633333333333" y="151.82" type="line"/>
      <point x="805.1433333333334" y="82.77"/>
      <point x="630.97" y="-14.733333333333334"/>
      <point x="510.7966666666666" y="-14.733333333333334" type="qcurve" smooth="yes"/>
      <point x="320.16" y="-14.733333333333334"/>
      <point x="67.68" y="254.71666666666667"/>
    </contour>
    <contour>
      <point x="181.90333333333334" y="504.43333333333334" type="qcurve" smooth="yes"/>
      <point x="181.90333333333334" y="292.05"/>
      <point x="374.18333333333334" y="66.83333333333334"/>
      <point x="533.3333333333333" y="66.83333333333334" type="qcurve" smooth="yes"/>
      <point x="645.0066666666667" y="66.83333333333334"/>
      <point x="808.5133333333333" y="161.02333333333334"/>
      <point x="853.4466666666666" y="229.14000000000001" type="qcurve"/>
      <point x="854.0133333333333" y="832.75" type="line"/>
      <point x="813.58" y="890.8933333333333"/>
      <point x="660.8366666666666" y="964.1999999999999"/>
      <point x="553.8333333333334" y="964.1999999999999" type="qcurve" smooth="yes"/>
      <point x="384.7833333333333" y="964.1999999999999"/>
      <point x="181.90333333333334" y="709.5333333333333"/>
    </contour>
  </outline>
</glyph>
<glyph name="u" format="2">
  <advance width="1242"/>
  <unicode hex="0075"/>
  <outline>
    <contour>
      <point x="45.60666666666667" y="917.15" type="line"/>
      <point x="45.60666666666667" y="980.3333333333334" type="line"/>
      <point x="294.9833333333333" y="1000.0" type="line"/>
      <point x="315.43" y="995.7" type="line"/>
      <point x="326.67333333333335" y="966.8666666666667" type="line"/>
      <point x="324.67333333333335" y="473.0" type="line"/>
      <point x="326.12666666666667" y="276.29333333333335" type="line" smooth="yes"/>
      <point x="326.8433333333333" y="174.23999999999998"/>
      <point x="448.7866666666667" y="76.85000000000001"/>
      <point x="552.82" y="76.85000000000001" type="qcurve" smooth="yes"/>
      <point x="652.3766666666667" y="76.85000000000001"/>
      <point x="849.9433333333334" y="170.92333333333335"/>
      <point x="905.6433333333333" y="256.69666666666666" type="qcurve"/>
      <point x="905.19" y="473.0" type="line"/>
      <point x="902.4933333333333" y="894.3166666666667" type="line"/>
      <point x="736.33" y="917.15" type="line"/>
      <point x="736.33" y="980.3333333333334" type="line"/>
      <point x="978.2333333333333" y="1000.0" type="line"/>
      <point x="995.8133333333333" y="995.7" type="line"/>
      <point x="1007.0566666666666" y="966.15" type="line"/>
      <point x="1005.7533333333333" y="473.0" type="line"/>
      <point x="1007.0366666666666" y="95.50333333333333" type="line"/>
      <point x="1183.46" y="75.53666666666666" type="line"/>
      <point x="1183.46" y="19.606666666666666" type="line"/>
      <point x="945.91" y="-0.7766666666666666" type="line"/>
      <point x="922.3766666666667" y="22.64" type="line"/>
      <point x="905.0066666666667" y="164.65666666666667" type="line"/>
      <point x="849.3633333333333" y="86.97"/>
      <point x="636.8599999999999" y="-18.650000000000002"/>
      <point x="524.0533333333334" y="-18.650000000000002" type="qcurve" smooth="yes"/>
      <point x="382.32" y="-18.650000000000002"/>
      <point x="222.09" y="118.48333333333333"/>
      <point x="222.09" y="248.30333333333334" type="qcurve" smooth="yes"/>
      <point x="222.09" y="324.36333333333334"/>
      <point x="224.92" y="466.31666666666666"/>
      <point x="224.92" y="473.0" type="qcurve" smooth="yes"/>
      <point x="222.10999999999999" y="894.3166666666667" type="line"/>
    </contour>
  </outline>
</glyph>
<glyph name="v" format="2">
  <advance width="1038"/>
  <unicode hex="0076"/>
  <outline>
    <contour>
      <point x="-29.150000000000002" y="935.8" type="line"/>
      <point x="-29.150000000000002" y="1000.0" type="line"/>
      <point x="387.2766666666667" y="1000.0" type="line"/>
      <point x="387.2766666666667" y="935.8" type="line"/>
      <point x="238.65333333333334" y="908.8333333333334" type="line"/>
      <point x="374.84333333333336" y="522.6966666666667" type="line"/>
      <point x="531.7700000000001" y="113.30666666666667" type="line"/>
      <point x="687.0966666666667" y="528.5033333333333" type="line"/>
      <point x="823.0633333333333" y="910.8166666666667" type="line"/>
      <point x="665.5833333333334" y="935.8" type="line"/>
      <point x="665.5833333333334" y="1000.0" type="line"/>
      <point x="1072.3166666666666" y="1000.0" type="line"/>
      <point x="1072.3166666666666" y="935.8" type="line"/>
      <point x="915.3233333333333" y="909.4" type="line"/>
      <point x="756.8166666666667" y="503.39" type="line"/>
      <point x="567.7766666666666" y="-7.283333333333333" type="line"/>
      <point x="471.4766666666667" y="-7.283333333333333" type="line"/>
      <point x="285.88" y="491.99" type="line"/>
      <point x="126.03333333333333" y="908.6833333333334" type="line"/>
    </contour>
  </outline>
</glyph>
<glyph name="z" format="2">
  <advance width="897"/>
  <unicode hex="007A"/>
  <outline>
    <contour>
      <point x="54.21666666666667" y="0.0" type="line"/>
      <point x="54.21666666666667" y="64.91666666666667" type="line"/>
      <point x="699.4399999999999" y="924.85" type="line"/>
      <point x="198.72" y="924.85" type="line"/>
      <point x="158.98000000000002" y="740.0" type="line"/>
      <point x="89.22333333333333" y="740.0" type="line"/>
      <point x="89.22333333333333" y="1000.0" type="line"/>
      <point x="825.1633333333333" y="1000.0" type="line"/>
      <point x="825.1633333333333" y="936.0833333333334" type="line"/>
      <point x="174.08333333333334" y="74.43333333333334" type="line"/>
      <point x="737.3" y="74.43333333333334" type="line"/>
      <point x="777.0400000000001" y="259.28333333333336" type="line"/>
      <point x="846.08" y="259.28333333333336" type="line"/>
      <point x="846.08" y="0.0" type="line"/>
    </contour>
  </outline>
</glyph>
<glyph name="braceleft" format="2">
  <advance width="675"/>
  <unicode hex="007B"/>
  <outline>
    <contour>
      <point x="58.25" y="500.35" type="line"/>
      <point x="58.25" y="569.65" type="line"/>
      <point x="182.91666666666669" y="579.65" type="line" smooth="yes"/>
      <point x="249.66666666666669" y="585.1233333333333"/>
      <point x="333.78333333333336" y="650.6833333333333"/>
      <point x="333.78333333333336" y="727.4666666666667" type="qcurve" smooth="yes"/>
      <point x="333.78333333333336" y="830.4166666666666"/>
      <point x="210.88333333333335" y="1070.7"/>
      <point x="210.88333333333335" y="1194.2333333333333" type="qcurve" smooth="yes"/>
      <point x="210.88333333333335" y="1338.9"/>
      <point x="359.5833333333333" y="1510.0"/>
      <point x="506.26666666666665" y="1510.0" type="qcurve" smooth="yes"/>
      <point x="563.05" y="1510.0"/>
      <point x="629.4300000000001" y="1503.02"/>
      <point x="664.1999999999999" y="1500.0" type="qcurve"/>
      <point x="664.1999999999999" y="1426.85" type="line"/>
      <point x="621.5166666666667" y="1428.85"/>
      <point x="566.9333333333333" y="1430.2833333333333"/>
      <point x="522.95" y="1430.2833333333333" type="qcurve" smooth="yes"/>
      <point x="420.2666666666667" y="1430.2833333333333"/>
      <point x="311.2333333333333" y="1311.4"/>
      <point x="311.2333333333333" y="1202.1333333333334" type="qcurve" smooth="yes"/>
      <point x="311.2333333333333" y="1083.25"/>
      <point x="418.01666666666665" y="857.2"/>
      <point x="418.01666666666665" y="768.35" type="qcurve" smooth="yes"/>
      <point x="418.01666666666665" y="674.0666666666667"/>
      <point x="338.68333333333334" y="565.9833333333333"/>
      <point x="280.51666666666665" y="548.5666666666667" type="qcurve"/>
      <point x="358.56666666666666" y="533.2"/>
      <point x="416.5833333333333" y="434.1666666666667"/>
      <point x="416.5833333333333" y="339.8" type="qcurve" smooth="yes"/>
      <point x="416.5833333333333" y="222.28333333333333"/>
      <point x="292.7" y="-66.53333333333333"/>
      <point x="292.7" y="-177.53333333333333" type="qcurve" smooth="yes"/>
      <point x="292.7" y="-300.6166666666667"/>
      <point x="410.21666666666664" y="-415.56666666666666"/>
      <point x="506.45" y="-415.56666666666666" type="qcurve" smooth="yes"/>
      <point x="552.5833333333333" y="-415.56666666666666"/>
      <point x="610.7833333333333" y="-414.85"/>
      <point x="659.1999999999999" y="-411.4166666666667" type="qcurve"/>
      <point x="659.1999999999999" y="-484.0" type="line"/>
      <point x="622.9166666666666" y="-487.77666666666664"/>
      <point x="549.0" y="-495.0"/>
      <point x="492.01666666666665" y="-495.0" type="qcurve" smooth="yes"/>
      <point x="347.48333333333335" y="-495.0"/>
      <point x="192.35000000000002" y="-328.6333333333333"/>
      <point x="192.35000000000002" y="-169.63333333333333" type="qcurve" smooth="yes"/>
      <point x="192.35000000000002" y="-50.2"/>
      <point x="329.2" y="252.45"/>
      <point x="329.2" y="381.2" type="qcurve"/>
      <point x="317.0166666666667" y="495.3333333333333" type="line"/>
    </contour>
  </outline>
</glyph>
<glyph name="braceright" format="2">
  <advance width="675"/>
  <unicode hex="007D"/>
  <outline>
    <contour>
      <point x="15.6" y="-484.0" type="qcurve"/>
      <point x="15.6" y="-411.4166666666667" type="line"/>
      <point x="64.01666666666667" y="-414.85"/>
      <point x="116.95" y="-415.56666666666666"/>
      <point x="163.08333333333334" y="-415.56666666666666" type="qcurve" smooth="yes"/>
      <point x="259.31666666666666" y="-415.56666666666666"/>
      <point x="376.8333333333333" y="-300.6166666666667"/>
      <point x="376.8333333333333" y="-177.53333333333333" type="qcurve" smooth="yes"/>
      <point x="376.8333333333333" y="-66.53333333333333"/>
      <point x="258.2166666666667" y="222.28333333333333"/>
      <point x="258.2166666666667" y="339.8" type="qcurve" smooth="yes"/>
      <point x="258.2166666666667" y="434.1666666666667"/>
      <point x="316.1333333333333" y="533.2"/>
      <point x="394.18333333333334" y="548.5666666666667" type="qcurve"/>
      <point x="336.01666666666665" y="565.9833333333333"/>
      <point x="256.78333333333336" y="674.0666666666667"/>
      <point x="256.78333333333336" y="768.35" type="qcurve" smooth="yes"/>
      <point x="256.78333333333336" y="857.2"/>
      <point x="368.8333333333333" y="1083.25"/>
      <point x="368.8333333333333" y="1202.1333333333334" type="qcurve" smooth="yes"/>
      <point x="368.8333333333333" y="1311.4"/>
      <point x="259.90000000000003" y="1430.2833333333333"/>
      <point x="157.21666666666664" y="1430.2833333333333" type="qcurve" smooth="yes"/>
      <point x="113.23333333333333" y="1430.2833333333333"/>
      <point x="53.28333333333334" y="1428.85"/>
      <point x="10.6" y="1426.85" type="qcurve"/>
      <point x="10.6" y="1500.0" type="line"/>
      <point x="45.370000000000005" y="1503.02"/>
      <point x="117.01666666666667" y="1510.0"/>
      <point x="173.79999999999998" y="1510.0" type="qcurve" smooth="yes"/>
      <point x="320.48333333333335" y="1510.0"/>
      <point x="469.18333333333334" y="1338.9"/>
      <point x="469.18333333333334" y="1194.2333333333333" type="qcurve" smooth="yes"/>
      <point x="469.18333333333334" y="1070.7"/>
      <point x="341.01666666666665" y="830.4166666666666"/>
      <point x="341.01666666666665" y="727.4666666666667" type="qcurve" smooth="yes"/>
      <point x="341.01666666666665" y="650.6833333333333"/>
      <point x="425.1333333333333" y="585.0833333333334"/>
      <point x="491.8833333333333" y="579.65" type="qcurve" smooth="yes"/>
      <point x="616.5500000000001" y="569.65" type="line"/>
      <point x="616.5500000000001" y="500.35" type="line"/>
      <point x="357.7833333333333" y="495.3333333333333" type="line"/>
      <point x="345.59999999999997" y="381.2" type="line"/>
      <point x="345.59999999999997" y="252.45"/>
      <point x="477.18333333333334" y="-50.2"/>
      <point x="477.18333333333334" y="-169.63333333333333" type="qcurve" smooth="yes"/>
      <point x="477.18333333333334" y="-328.6333333333333"/>
      <point x="322.04999999999995" y="-495.0"/>
      <point x="177.51666666666668" y="-495.0" type="qcurve" smooth="yes"/>
      <point x="120.53333333333333" y="-495.0"/>
      <point x="51.88333333333333" y="-487.77666666666664"/>
    </contour>
  </outline>
</glyph>
<glyph name="exclamdown" format="2">
  <advance width="587"/>
  <unicode hex="00A1"/>
  <outline>
    <contour>
      <point x="398.99666666666667" y="1243.52" type="qcurve" smooth="yes"/>
      <point x="398.99666666666667" y="1201.4666666666667"/>
      <point x="339.7366666666667" y="1139.3766666666668"/>
      <point x="293.41999999999996" y="1139.3766666666668" type="qcurve" smooth="yes"/>
      <point x="247.08333333333331" y="1139.3766666666668"/>
      <point x="187.82333333333332" y="1201.4666666666667"/>
      <point x="187.82333333333332" y="1243.52" type="qcurve" smooth="yes"/>
      <point x="187.82333333333332" y="1285.3100000000002"/>
      <point x="247.08333333333331" y="1347.4"/>
      <point x="293.41999999999996" y="1347.4" type="qcurve" smooth="yes"/>
      <point x="339.7366666666667" y="1347.4"/>
      <point x="398.99666666666667" y="1285.3100000000002"/>
    </contour>
    <contour>
      <point x="354.4533333333333" y="-79.95" type="line" smooth="yes"/>
      <point x="357.43333333333334" y="-147.95"/>
      <point x="329.63666666666666" y="-221.33333333333334"/>
      <point x="291.83666666666664" y="-221.61666666666667" type="qcurve" smooth="yes"/>
      <point x="254.0366666666667" y="-221.9"/>
      <point x="226.54" y="-149.95"/>
      <point x="229.52" y="-80.95" type="qcurve" smooth="yes"/>
      <point x="239.87666666666667" y="220.86666666666667" type="line"/>
      <point x="254.48666666666668" y="528.8666666666667" type="line"/>
      <point x="266.05333333333334" y="894.2666666666667" type="line"/>
      <point x="319.91999999999996" y="894.2666666666667" type="line"/>
      <point x="331.4866666666666" y="528.8666666666667" type="line"/>
      <point x="344.09666666666664" y="220.86666666666667" type="line"/>
    </contour>
  </outline>
</glyph>
<glyph name="cent" format="2">
  <advance width="968"/>
  <unicode hex="00A2"/>
  <outline>
    <contour>
      <point x="87.37" y="484.87666666666667" type="qcurve" smooth="yes"/>
      <point x="87.37" y="717.2066666666667"/>
      <point x="345.02" y="1020.5066666666668"/>
      <point x="551.6033333333334" y="1020.5066666666668" type="qcurve" smooth="yes"/>
      <point x="633.7333333333332" y="1020.5066666666668"/>
      <point x="750.3100000000001" y="981.8133333333334"/>
      <point x="786.52" y="948.5166666666667" type="qcurve"/>
      <point x="806.8533333333334" y="1014.7" type="line"/>
      <point x="870.6833333333333" y="999.4366666666667" type="line"/>
      <point x="880.85" y="680.4033333333333" type="line"/>
      <point x="819.98" y="669.9333333333333" type="line"/>
      <point x="795.3666666666667" y="767.3166666666667" type="line" smooth="yes"/>
      <point x="772.7299999999999" y="854.48"/>
      <point x="640.5766666666666" y="949.0833333333334"/>
      <point x="552.6633333333334" y="949.0833333333334" type="qcurve" smooth="yes"/>
      <point x="388.9433333333333" y="949.0833333333334"/>
      <point x="193.35333333333335" y="718.1666666666666"/>
      <point x="194.07000000000002" y="504.1" type="qcurve" smooth="yes"/>
      <point x="194.07000000000002" y="287.05"/>
      <point x="409.45" y="65.61666666666667"/>
      <point x="586.0333333333333" y="65.61666666666667" type="qcurve" smooth="yes"/>
      <point x="687.0633333333334" y="65.61666666666667"/>
      <point x="846.9166666666666" y="148.23333333333335"/>
      <point x="900.1633333333333" y="217.86666666666667" type="qcurve"/>
      <point x="932.3299999999999" y="180.12333333333333" type="line"/>
      <point x="881.9666666666667" y="96.12"/>
      <point x="684.6866666666666" y="-21.9"/>
      <point x="548.6066666666667" y="-21.9" type="qcurve" smooth="yes"/>
      <point x="345.0866666666667" y="-21.9"/>
      <point x="87.37" y="244.76666666666665"/>
    </contour>
    <contour>
      <point x="501.5" y="-195.66666666666666" type="line"/>
      <point x="501.5" y="23.333333333333332" type="line"/>
      <point x="512.5333333333334" y="23.333333333333332" type="line"/>
      <point x="512.5333333333334" y="512.8333333333334" type="line"/>
      <point x="580.3" y="485.1666666666667" type="line"/>
      <point x="580.3" y="23.333333333333332" type="line"/>
      <point x="593.3333333333334" y="23.333333333333332" type="line"/>
      <point x="593.3333333333334" y="-160.1" type="line"/>
    </contour>
    <contour>
      <point x="500.5" y="1155.6666666666667" type="line"/>
      <point x="592.3333333333334" y="1180.2333333333333" type="line"/>
      <point x="592.3333333333334" y="988.0" type="line"/>
      <point x="580.3" y="988.0" type="line"/>
      <point x="580.3" y="485.1666666666667" type="line"/>
      <point x="512.5333333333334" y="512.8333333333334" type="line"/>
      <point x="512.5333333333334" y="988.0" type="line"/>
      <point x="500.5" y="988.0" type="line"/>
    </contour>
  </outline>
</glyph>
<glyph name="currency" format="2">
  <advance width="1301"/>
  <unicode hex="00A4"/>
  <outline>
    <contour>
      <point x="158.53333333333333" y="757.1966666666666" type="qcurve" smooth="yes"/>
      <point x="158.53333333333333" y="964.44"/>
      <point x="423.3066666666667" y="1251.64"/>
      <point x="637.9033333333333" y="1251.64" type="qcurve" smooth="yes"/>
      <point x="853.48" y="1251.64"/>
      <point x="1121.99" y="979.3833333333333"/>
      <point x="1121.99" y="758.8766666666667" type="qcurve" smooth="yes"/>
      <point x="1121.99" y="552.6333333333333"/>
      <point x="854.8766666666667" y="254.87"/>
      <point x="639.5833333333334" y="254.87" type="qcurve" smooth="yes"/>
      <point x="423.9866666666667" y="254.87"/>
      <point x="158.53333333333333" y="534.69"/>
    </contour>
    <contour>
      <point x="249.19666666666666" y="762.54" type="qcurve" smooth="yes"/>
      <point x="249.48" y="581.4133333333334"/>
      <point x="468.2633333333333" y="341.16"/>
      <point x="637.3366666666667" y="341.16" type="qcurve" smooth="yes"/>
      <point x="819.0866666666667" y="341.16"/>
      <point x="1026.0433333333333" y="570.4866666666667"/>
      <point x="1026.0433333333333" y="758.6133333333333" type="qcurve" smooth="yes"/>
      <point x="1026.0433333333333" y="932.0233333333334"/>
      <point x="807.9766666666666" y="1159.37"/>
      <point x="637.9033333333333" y="1159.37" type="qcurve" smooth="yes"/>
      <point x="454.89" y="1159.37"/>
      <point x="248.19666666666666" y="940.2333333333333"/>
    </contour>
    <contour>
      <point x="331.98" y="1064.8433333333332" type="line"/>
      <point x="120.75333333333333" y="1281.6066666666666" type="line"/>
      <point x="186.28666666666666" y="1354.8966666666668" type="line"/>
      <point x="398.94666666666666" y="1136.7" type="line"/>
    </contour>
    <contour>
      <point x="959.9766666666666" y="1054.81" type="line"/>
      <point x="893.01" y="1126.6666666666667" type="line"/>
      <point x="1114.27" y="1354.8966666666668" type="line"/>
      <point x="1179.8033333333333" y="1281.6066666666666" type="line"/>
    </contour>
    <contour>
      <point x="339.1466666666667" y="429.59" type="line"/>
      <point x="406.11333333333334" y="357.73333333333335" type="line"/>
      <point x="186.28666666666666" y="132.37" type="line"/>
      <point x="120.75333333333333" y="205.66000000000003" type="line"/>
    </contour>
    <contour>
      <point x="952.81" y="439.6233333333333" type="line"/>
      <point x="1179.8033333333333" y="205.66000000000003" type="line"/>
      <point x="1114.27" y="132.37" type="line"/>
      <point x="885.8433333333334" y="367.7666666666667" type="line"/>
    </contour>
  </outline>
</glyph>
<glyph name="yen" format="2">
  <advance width="1271"/>
  <unicode hex="00A5"/>
  <outline>
    <contour>
      <point x="217.76666666666665" y="631.0" type="line"/>
      <point x="199.23333333333332" y="703.9666666666667" type="line"/>
      <point x="1079.3" y="703.9666666666667" type="line"/>
      <point x="1058.6166666666666" y="631.0" type="line"/>
    </contour>
    <contour>
      <point x="588.2833333333333" y="627.1833333333334" type="line"/>
      <point x="390.5966666666667" y="996.0666666666667" type="line"/>
      <point x="172.61666666666667" y="1405.8266666666666" type="line"/>
      <point x="-20.35" y="1434.1366666666665" type="line"/>
      <point x="-20.35" y="1500.0" type="line"/>
      <point x="485.55" y="1500.0" type="line"/>
      <point x="485.55" y="1437.7199999999998" type="line"/>
      <point x="293.78000000000003" y="1403.4566666666667" type="line"/>
      <point x="472.88" y="1044.25" type="line"/>
      <point x="652.8066666666667" y="721.7766666666666" type="line"/>
      <point x="842.7133333333334" y="1072.9833333333333" type="line"/>
      <point x="1011.45" y="1405.3" type="line"/>
      <point x="806.5833333333333" y="1437.7199999999998" type="line"/>
      <point x="806.5833333333333" y="1500.0" type="line"/>
      <point x="1294.76" y="1500.0" type="line"/>
      <point x="1294.76" y="1434.1366666666665" type="line"/>
      <point x="1110.8433333333332" y="1405.5633333333333" type="line"/>
      <point x="905.1099999999999" y="1028.9166666666667" type="line"/>
      <point x="690.9833333333332" y="637.2" type="line"/>
      <point x="691.55" y="92.63666666666667" type="line"/>
      <point x="944.3833333333333" y="62.653333333333336" type="line"/>
      <point x="944.3833333333333" y="0.0" type="line"/>
      <point x="330.53" y="0.0" type="line"/>
      <point x="330.53" y="62.653333333333336" type="line"/>
      <point x="587.0" y="92.63666666666667" type="line"/>
    </contour>
    <contour>
      <point x="263.43333333333334" y="352.5" type="line"/>
      <point x="244.89999999999998" y="425.46666666666664" type="line"/>
      <point x="1033.6333333333334" y="425.46666666666664" type="line"/>
      <point x="1012.95" y="352.5" type="line"/>
    </contour>
  </outline>
</glyph>
<glyph name="logicalnot" format="2">
  <advance width="993"/>
  <unicode hex="00AC"/>
  <outline>
    <contour>
      <point x="87.93333333333334" y="730.0233333333333" type="line"/>
      <point x="896.8733333333333" y="730.0233333333333" type="line"/>
      <point x="896.8733333333333" y="235.26666666666668" type="line"/>
      <point x="806.1533333333333" y="235.26666666666668" type="line"/>
      <point x="806.1533333333333" y="637.15" type="line"/>
      <point x="87.93333333333334" y="637.15" type="line"/>
    </contour>
  </outline>
</glyph>
<glyph name="degree" format="2">
  <advance width="833"/>
  <unicode hex="00B0"/>
  <outline>
    <contour>
      <point x="113.48666666666666" y="1243.74" type="qcurve" smooth="yes"/>
      <point x="113.48666666666666" y="1369.29"/>
      <point x="283.78000000000003" y="1555.7"/>
      <point x="416.62666666666667" y="1555.7" type="qcurve" smooth="yes"/>
      <point x="548.7766666666666" y="1555.7"/>
      <point x="719.07" y="1369.29"/>
      <point x="719.07" y="1243.74" type="qcurve" smooth="yes"/>
      <point x="719.07" y="1121.17"/>
      <point x="548.7766666666666" y="933.76"/>
      <point x="416.62666666666667" y="933.76" type="qcurve" smooth="yes"/>
      <point x="283.78000000000003" y="933.76"/>
      <point x="113.48666666666666" y="1121.17"/>
    </contour>
    <contour>
      <point x="194.29333333333335" y="1243.86" type="qcurve" smooth="yes"/>
      <point x="194.29333333333335" y="1153.01"/>
      <point x="319.7033333333333" y="1015.2833333333333"/>
      <point x="416.62666666666667" y="1015.2833333333333" type="qcurve" smooth="yes"/>
      <point x="515.2866666666667" y="1015.2833333333333"/>
      <point x="638.9799999999999" y="1153.01"/>
      <point x="638.9799999999999" y="1243.86" type="qcurve" smooth="yes"/>
      <point x="638.9799999999999" y="1338.6499999999999"/>
      <point x="515.2866666666667" y="1474.1166666666666"/>
      <point x="416.62666666666667" y="1474.1166666666666" type="qcurve" smooth="yes"/>
      <point x="319.7033333333333" y="1474.1166666666666"/>
      <point x="194.29333333333335" y="1338.6499999999999"/>
    </contour>
  </outline>
</glyph>
<glyph name="threesuperior" format="2">
  <advance width="695"/>
  <unicode hex="00B3"/>
  <outline>
    <contour>
      <point x="41.64" y="738.2833333333333" type="qcurve"/>
      <point x="76.05666666666667" y="798.3166666666666" type="line"/>
      <point x="131.35333333333332" y="753.8833333333333"/>
      <point x="247.14" y="722.0333333333333"/>
      <point x="313.40666666666664" y="722.0333333333333" type="qcurve" smooth="yes"/>
      <point x="415.34" y="722.0333333333333"/>
      <point x="531.73" y="811.4833333333333"/>
      <point x="531.73" y="897.15" type="qcurve" smooth="yes"/>
      <point x="531.73" y="985.3166666666666"/>
      <point x="386.46000000000004" y="1073.4333333333332"/>
      <point x="255.72000000000003" y="1074.8666666666666" type="qcurve" smooth="yes"/>
      <point x="196.13333333333333" y="1074.8666666666666" type="line"/>
      <point x="178.62" y="1137.4166666666667" type="line"/>
      <point x="257.26666666666665" y="1140.4166666666667" type="line" smooth="yes"/>
      <point x="380.69" y="1144.9833333333333"/>
      <point x="506.87" y="1248.6"/>
      <point x="506.87" y="1318.6" type="qcurve" smooth="yes"/>
      <point x="506.87" y="1384.0666666666666"/>
      <point x="423.56" y="1446.8166666666666"/>
      <point x="347.17999999999995" y="1446.8166666666666" type="qcurve" smooth="yes"/>
      <point x="274.34" y="1446.8166666666666"/>
      <point x="154.23000000000002" y="1405.3666666666666"/>
      <point x="106.47333333333334" y="1370.0333333333333" type="qcurve"/>
      <point x="76.24333333333334" y="1419.1333333333334" type="line"/>
      <point x="131.12333333333333" y="1465.1333333333334"/>
      <point x="263.29333333333335" y="1520.0"/>
      <point x="355.7133333333333" y="1520.0" type="qcurve" smooth="yes"/>
      <point x="483.4533333333333" y="1520.0"/>
      <point x="600.6733333333333" y="1412.2666666666667"/>
      <point x="600.6733333333333" y="1331.2666666666667" type="qcurve" smooth="yes"/>
      <point x="600.6733333333333" y="1246.2666666666667"/>
      <point x="487.24333333333334" y="1139.85"/>
      <point x="385.66666666666663" y="1117.2833333333333" type="qcurve"/>
      <point x="385.66666666666663" y="1113.2833333333333" type="line"/>
      <point x="495.7866666666667" y="1107.4166666666667"/>
      <point x="625.6133333333332" y="1001.0"/>
      <point x="625.6133333333332" y="897.8333333333334" type="qcurve" smooth="yes"/>
      <point x="625.6133333333332" y="790.1666666666666"/>
      <point x="464.3066666666667" y="649.0"/>
      <point x="314.6066666666666" y="649.0" type="qcurve" smooth="yes"/>
      <point x="235.23666666666668" y="649.0"/>
      <point x="93.54" y="696.2833333333333"/>
    </contour>
  </outline>
</glyph>
<glyph name="paragraph" format="2">
  <advance width="1155"/>
  <unicode hex="00B6"/>
  <outline>
    <contour>
      <point x="1018.7" y="62.653333333333336" type="line"/>
      <point x="1018.7" y="0.0" type="line"/>
      <point x="265.9" y="0.0" type="line"/>
      <point x="265.9" y="62.653333333333336" type="line"/>
      <point x="779.5333333333334" y="90.99000000000001" type="line"/>
      <point x="781.5333333333334" y="808.5" type="line"/>
      <point x="742.5333333333334" y="802.5"/>
      <point x="533.0333333333334" y="794.5"/>
      <point x="474.0333333333333" y="794.5" type="qcurve" smooth="yes"/>
      <point x="266.7" y="794.5"/>
      <point x="54.2" y="989.0"/>
      <point x="54.2" y="1155.0" type="qcurve" smooth="yes"/>
      <point x="54.2" y="1326.0"/>
      <point x="276.2" y="1500.0"/>
      <point x="468.2" y="1500.0" type="qcurve" smooth="yes"/>
      <point x="1071.3" y="1500.0" type="line"/>
      <point x="1071.3" y="1434.1366666666665" type="line"/>
      <point x="870.7" y="1399.4199999999998" type="line"/>
      <point x="868.7" y="754.0" type="line"/>
      <point x="870.7" y="92.34666666666666" type="line"/>
    </contour>
    <contour>
      <point x="547.7" y="51.0" type="line"/>
      <point x="453.9" y="46.0" type="line"/>
      <point x="455.9" y="808.5" type="line"/>
      <point x="545.7" y="815.5" type="line"/>
    </contour>
  </outline>
</glyph>
<glyph name="periodcentered" format="2">
  <advance width="564"/>
  <unicode hex="00B7"/>
  <outline>
    <contour>
      <point x="176.58333333333331" y="690.2066666666667" type="qcurve" smooth="yes"/>
      <point x="176.58333333333331" y="732.26"/>
      <point x="235.84333333333333" y="794.35"/>
      <point x="282.15999999999997" y="794.35" type="qcurve" smooth="yes"/>
      <point x="328.49666666666667" y="794.35"/>
      <point x="387.75666666666666" y="732.26"/>
      <point x="387.75666666666666" y="690.2066666666667" type="qcurve" smooth="yes"/>
      <point x="387.75666666666666" y="648.4166666666667"/>
      <point x="328.49666666666667" y="586.3266666666667"/>
      <point x="282.15999999999997" y="586.3266666666667" type="qcurve" smooth="yes"/>
      <point x="235.84333333333333" y="586.3266666666667"/>
      <point x="176.58333333333331" y="648.4166666666667"/>
    </contour>
  </outline>
</glyph>
<glyph name="ordmasculine" format="2">
  <advance width="1026"/>
  <unicode hex="00BA"/>
  <outline>
    <contour>
      <point x="105.96000000000001" y="1101.4066666666668" type="qcurve" smooth="yes"/>
      <point x="105.96000000000001" y="1284.6399999999999"/>
      <point x="327.82" y="1542.0"/>
      <point x="511.3866666666667" y="1542.0" type="qcurve" smooth="yes"/>
      <point x="697.3666666666667" y="1542.0"/>
      <point x="919.9566666666666" y="1301.6399999999999"/>
      <point x="919.9566666666666" y="1106.4066666666668" type="qcurve" smooth="yes"/>
      <point x="919.9566666666666" y="923.4566666666667"/>
      <point x="699.38" y="660.1366666666667"/>
      <point x="515.57" y="660.1366666666667" type="qcurve" smooth="yes"/>
      <point x="332.45666666666665" y="660.1366666666667"/>
      <point x="105.96000000000001" y="904.1933333333333"/>
    </contour>
    <contour>
      <point x="207.49333333333334" y="1119.84" type="qcurve" smooth="yes"/>
      <point x="208.23000000000002" y="950.5766666666666"/>
      <point x="373.65999999999997" y="723.3833333333333"/>
      <point x="511.57666666666665" y="723.3833333333333" type="qcurve" smooth="yes"/>
      <point x="659.11" y="723.3833333333333"/>
      <point x="816.8433333333334" y="929.9000000000001"/>
      <point x="816.8433333333334" y="1106.1433333333334" type="qcurve" smooth="yes"/>
      <point x="816.8433333333334" y="1269.6699999999998"/>
      <point x="651.4333333333333" y="1477.0533333333333"/>
      <point x="513.5366666666666" y="1477.0533333333333" type="qcurve" smooth="yes"/>
      <point x="362.55" y="1477.0533333333333"/>
      <point x="206.49333333333334" y="1287.8933333333334"/>
    </contour>
  </outline>
</glyph>
<glyph name="multiply" format="2">
  <advance width="993"/>
  <unicode hex="00D7"/>
  <outline>
    <contour>
      <point x="215.04666666666668" y="282.34999999999997" type="line"/>
      <point x="154.3" y="343.09666666666664" type="line"/>
      <point x="777.88" y="981.65" type="line"/>
      <point x="838.5866666666667" y="920.9033333333334" type="line"/>
    </contour>
    <contour>
      <point x="776.5233333333333" y="281.03333333333336" type="line"/>
      <point x="152.98333333333335" y="919.5866666666667" type="line"/>
      <point x="216.32333333333332" y="982.9666666666667" type="line"/>
      <point x="839.9033333333333" y="344.41333333333336" type="line"/>
    </contour>
  </outline>
</glyph>
<glyph name="ae" format="2">
  <advance width="1616"/>
  <unicode hex="00E6"/>
  <outline>
    <contour>
      <point x="78.21666666666667" y="247.19666666666666" type="qcurve" smooth="yes"/>
      <point x="78.21666666666667" y="381.79"/>
      <point x="360.5" y="581.0433333333333"/>
      <point x="699.1966666666666" y="610.25" type="qcurve"/>
      <point x="703.8366666666667" y="549.0899999999999" type="line"/>
      <point x="445.1066666666666" y="529.4066666666666"/>
      <point x="186.92666666666668" y="379.85"/>
      <point x="186.92666666666668" y="256.71666666666664" type="qcurve" smooth="yes"/>
      <point x="186.92666666666668" y="163.36666666666667"/>
      <point x="293.1166666666667" y="61.153333333333336"/>
      <point x="396.95" y="61.153333333333336" type="qcurve" smooth="yes"/>
      <point x="493.7133333333333" y="61.153333333333336"/>
      <point x="670.95" y="168.36333333333334"/>
      <point x="724.6566666666666" y="264.7266666666667" type="qcurve"/>
      <point x="710.4333333333334" y="304.8366666666667"/>
      <point x="691.92" y="420.18666666666667"/>
      <point x="691.2033333333333" y="510.74666666666667" type="qcurve" smooth="yes"/>
      <point x="690.4866666666667" y="617.7166666666667" type="line" smooth="yes"/>
      <point x="689.0533333333333" y="802.0566666666667"/>
      <point x="558.6966666666666" y="943.2666666666667"/>
      <point x="440.6066666666666" y="943.2666666666667" type="qcurve" smooth="yes"/>
      <point x="357.06" y="943.2666666666667"/>
      <point x="253.65" y="899.4266666666666"/>
      <point x="227.60333333333335" y="865.8833333333334" type="qcurve"/>
      <point x="242.93" y="849.86"/>
      <point x="264.12333333333333" y="815.1966666666666"/>
      <point x="266.4066666666667" y="796.45" type="qcurve" smooth="yes"/>
      <point x="270.5" y="767.3033333333334"/>
      <point x="238.66333333333336" y="726.8166666666666"/>
      <point x="208.29" y="726.8166666666666" type="qcurve" smooth="yes"/>
      <point x="176.44333333333336" y="726.8166666666666"/>
      <point x="138.12" y="777.6566666666666"/>
      <point x="138.16" y="825.6366666666668" type="qcurve" smooth="yes"/>
      <point x="138.22" y="899.4066666666668"/>
      <point x="313.8266666666667" y="1022.2033333333333"/>
      <point x="461.94" y="1022.2033333333333" type="qcurve" smooth="yes"/>
      <point x="583.91" y="1022.2033333333333"/>
      <point x="736.0833333333334" y="910.6700000000001"/>
      <point x="760.2966666666667" y="801.33" type="qcurve"/>
      <point x="763.35" y="801.33" type="line"/>
      <point x="807.5033333333333" y="899.5866666666666"/>
      <point x="1009.8033333333333" y="1021.94"/>
      <point x="1143.75" y="1021.94" type="qcurve" smooth="yes"/>
      <point x="1331.12" y="1021.94"/>
      <point x="1553.0766666666666" y="788.7"/>
      <point x="1572.04" y="589.4333333333333" type="qcurve"/>
      <point x="1572.04" y="548.0666666666667" type="line"/>
      <point x="767.0466666666666" y="548.0666666666667" type="line"/>
      <point x="769.1966666666666" y="613.25" type="line"/>
      <point x="1469.6566666666665" y="613.25" type="line"/>
      <point x="1452.5933333333332" y="763.7166666666667"/>
      <point x="1275.84" y="948.7900000000001"/>
      <point x="1130.24" y="948.7900000000001" type="qcurve" smooth="yes"/>
      <point x="973.1333333333333" y="948.7900000000001"/>
      <point x="785.9300000000001" y="720.7833333333333"/>
      <point x="786.2133333333334" y="520.7166666666667" type="qcurve" smooth="yes"/>
      <point x="787.1933333333333" y="296.7833333333333"/>
      <point x="1014.0633333333334" y="64.98"/>
      <point x="1197.8466666666666" y="64.98" type="qcurve" smooth="yes"/>
      <point x="1308.07" y="64.98"/>
      <point x="1459.3700000000001" y="129.6"/>
      <point x="1507.6933333333334" y="178.78333333333333" type="qcurve"/>
      <point x="1540.4766666666665" y="143.86666666666667" type="line"/>
      <point x="1493.0400000000002" y="76.56666666666666"/>
      <point x="1311.6100000000001" y="-21.9"/>
      <point x="1182.8433333333335" y="-21.9" type="qcurve" smooth="yes"/>
      <point x="1028.2" y="-21.9"/>
      <point x="814.4933333333333" y="100.87333333333333"/>
      <point x="760.05" y="199.48999999999998" type="qcurve"/>
      <point x="690.03" y="89.93"/>
      <point x="484.69666666666666" y="-15.223333333333333"/>
      <point x="357.41666666666663" y="-15.223333333333333" type="qcurve" smooth="yes"/>
      <point x="216.99333333333334" y="-15.223333333333333"/>
      <point x="78.21666666666667" y="132.16333333333333"/>
    </contour>
  </outline>
</glyph>
<glyph name="eth" format="2">
  <advance width="1162"/>
  <unicode hex="00F0"/>
  <outline>
    <contour>
      <point x="66.58666666666666" y="497.1666666666667" type="qcurve" smooth="yes"/>
      <point x="66.58666666666666" y="714.5266666666666"/>
      <point x="347.6" y="1017.1999999999999"/>
      <point x="578.2" y="1017.1999999999999" type="qcurve" smooth="yes"/>
      <point x="799.05" y="1017.1999999999999"/>
      <point x="1062.5666666666666" y="744.65"/>
      <point x="1079.1833333333332" y="511.05" type="qcurve"/>
      <point x="978.5566666666666" y="511.05" type="line"/>
      <point x="990.99" y="700.5966666666666"/>
      <point x="766.3" y="941.3733333333333"/>
      <point x="580.35" y="941.3733333333333" type="qcurve" smooth="yes"/>
      <point x="384.66333333333336" y="941.3733333333333"/>
      <point x="176.58666666666667" y="717.2333333333333"/>
      <point x="177.58666666666667" y="519.3166666666667" type="qcurve" smooth="yes"/>
      <point x="178.58666666666667" y="319.68333333333334"/>
      <point x="398.63" y="46.21"/>
      <point x="578.3299999999999" y="46.49333333333333" type="qcurve" smooth="yes"/>
      <point x="773.66" y="46.77666666666667"/>
      <point x="985.1533333333333" y="312.1166666666667"/>
      <point x="980.8533333333334" y="599.5" type="qcurve" smooth="yes"/>
      <point x="975.8366666666667" y="955.2"/>
      <point x="604.59" y="1419.05"/>
      <point x="287.6066666666666" y="1520.9166666666665" type="qcurve"/>
      <point x="312.12" y="1584.0" type="line"/>
      <point x="695.8" y="1474.0"/>
      <point x="1089.4399999999998" y="926.2"/>
      <point x="1089.4399999999998" y="598.2" type="qcurve" smooth="yes"/>
      <point x="1089.4399999999998" y="300.9733333333333"/>
      <point x="819.4166666666667" y="-21.9"/>
      <point x="583.8166666666667" y="-21.9" type="qcurve" smooth="yes"/>
      <point x="352.21666666666664" y="-21.9"/>
      <point x="66.58666666666666" y="264.1666666666667"/>
    </contour>
    <contour>
      <point x="425.6666666666667" y="1213.8" type="line"/>
      <point x="889.5866666666666" y="1533.8" type="line"/>
      <point x="934.37" y="1475.8166666666666" type="line"/>
      <point x="470.45" y="1155.8166666666666" type="line"/>
    </contour>
  </outline>
</glyph>
<glyph name="oe" format="2">
  <advance width="1914"/>
  <unicode hex="0153"/>
  <outline>
    <contour>
      <point x="66.58666666666666" y="500.0" type="qcurve" smooth="yes"/>
      <point x="66.58666666666666" y="717.2"/>
      <point x="347.64" y="1021.94"/>
      <point x="578.16" y="1021.94" type="qcurve" smooth="yes"/>
      <point x="749.0033333333333" y="1021.94"/>
      <point x="983.5466666666667" y="869.38"/>
      <point x="1033.6599999999999" y="750.7633333333333" type="qcurve"/>
      <point x="1038.3133333333335" y="750.7633333333333" type="line"/>
      <point x="1081.6833333333334" y="869.4133333333333"/>
      <point x="1292.5966666666668" y="1021.94"/>
      <point x="1439.78" y="1021.94" type="qcurve" smooth="yes"/>
      <point x="1627.1499999999999" y="1021.94"/>
      <point x="1851.2133333333334" y="788.7"/>
      <point x="1870.1766666666667" y="589.4333333333333" type="qcurve"/>
      <point x="1870.1766666666667" y="548.0666666666667" type="line"/>
      <point x="1065.1833333333334" y="548.0666666666667" type="line"/>
      <point x="1067.3333333333335" y="613.25" type="line"/>
      <point x="1767.7933333333333" y="613.25" type="line"/>
      <point x="1750.73" y="763.7166666666667"/>
      <point x="1573.9766666666667" y="948.7900000000001"/>
      <point x="1428.3766666666668" y="948.7900000000001" type="qcurve" smooth="yes"/>
      <point x="1271.27" y="948.7900000000001"/>
      <point x="1084.8566666666666" y="720.7833333333333"/>
      <point x="1085.1399999999999" y="520.7166666666667" type="qcurve" smooth="yes"/>
      <point x="1086.12" y="296.7833333333333"/>
      <point x="1312.2" y="64.98"/>
      <point x="1495.9833333333333" y="64.98" type="qcurve" smooth="yes"/>
      <point x="1606.2066666666667" y="64.98"/>
      <point x="1757.5066666666667" y="129.6"/>
      <point x="1805.8300000000002" y="178.78333333333333" type="qcurve"/>
      <point x="1838.6133333333335" y="143.86666666666667" type="line"/>
      <point x="1791.1766666666667" y="76.56666666666666"/>
      <point x="1609.7466666666667" y="-21.9"/>
      <point x="1477.03" y="-21.9" type="qcurve" smooth="yes"/>
      <point x="1316.2666666666667" y="-21.9"/>
      <point x="1076.8033333333335" y="130.32333333333335"/>
      <point x="1028.2933333333333" y="261.7733333333333" type="qcurve"/>
      <point x="1025.7266666666665" y="261.7733333333333" type="line"/>
      <point x="980.11" y="140.37333333333333"/>
      <point x="747.5333333333333" y="-21.9"/>
      <point x="584.04" y="-21.9" type="qcurve" smooth="yes"/>
      <point x="352.54" y="-21.9"/>
      <point x="66.58666666666666" y="266.8"/>
    </contour>
    <contour>
      <point x="177.58666666666667" y="522.15" type="qcurve" smooth="yes"/>
      <point x="178.58666666666667" y="322.31666666666666"/>
      <point x="398.59000000000003" y="46.49333333333333"/>
      <point x="578.35" y="46.49333333333333" type="qcurve" smooth="yes"/>
      <point x="770.4433333333334" y="46.49333333333333"/>
      <point x="979.5799999999999" y="298.1666666666667"/>
      <point x="979.5799999999999" y="506.71666666666664" type="qcurve" smooth="yes"/>
      <point x="979.5799999999999" y="698.8333333333334"/>
      <point x="761.05" y="946.1133333333333"/>
      <point x="580.31" y="946.1133333333333" type="qcurve" smooth="yes"/>
      <point x="384.78333333333336" y="946.1133333333333"/>
      <point x="176.58666666666667" y="720.2666666666668"/>
    </contour>
  </outline>
</glyph>
<glyph name="florin" format="2">
  <advance width="631"/>
  <unicode hex="0192"/>
  <outline>
    <contour>
      <point x="360.0" y="-106.53333333333333" type="line" smooth="yes"/>
      <point x="361.2833333333333" y="-195.5"/>
      <point x="251.21666666666667" y="-310.43333333333334"/>
      <point x="165.55" y="-310.43333333333334" type="qcurve" smooth="yes"/>
      <point x="130.4" y="-310.43333333333334"/>
      <point x="60.85" y="-292.68333333333334"/>
      <point x="36.15" y="-277.0833333333333" type="qcurve" smooth="yes"/>
      <point x="23.03333333333333" y="-269.93333333333334" type="line"/>
      <point x="35.45" y="-206.65" type="line"/>
      <point x="49.416666666666664" y="-211.5" type="line" smooth="yes"/>
      <point x="65.3" y="-217.8"/>
      <point x="107.76666666666667" y="-227.1"/>
      <point x="135.95" y="-227.1" type="qcurve" smooth="yes"/>
      <point x="204.23333333333335" y="-227.1"/>
      <point x="263.18333333333334" y="-150.26666666666665"/>
      <point x="262.6166666666667" y="-86.58333333333334" type="qcurve" smooth="yes"/>
      <point x="251.5" y="901.5666666666667" type="line"/>
      <point x="49.1" y="917.15" type="line"/>
      <point x="46.26666666666667" y="974.6" type="line"/>
      <point x="249.95" y="989.0166666666667" type="line"/>
      <point x="247.53333333333333" y="1316.5" type="line" smooth="yes"/>
      <point x="246.96666666666667" y="1405.4666666666665"/>
      <point x="356.48333333333335" y="1515.1333333333334"/>
      <point x="442.35" y="1515.1333333333334" type="qcurve" smooth="yes"/>
      <point x="477.5" y="1515.1333333333334"/>
      <point x="546.3333333333333" y="1496.1399999999999"/>
      <point x="571.75" y="1481.7833333333333" type="qcurve" smooth="yes"/>
      <point x="584.8666666666667" y="1474.6333333333334" type="line"/>
      <point x="572.4499999999999" y="1411.35" type="line"/>
      <point x="558.4833333333332" y="1416.2" type="line" smooth="yes"/>
      <point x="542.5999999999999" y="1422.5"/>
      <point x="500.1333333333333" y="1431.8"/>
      <point x="471.95" y="1431.8" type="qcurve" smooth="yes"/>
      <point x="403.6666666666667" y="1431.8"/>
      <point x="344.7133333333333" y="1360.2333333333333"/>
      <point x="345.54333333333335" y="1296.55" type="qcurve" smooth="yes"/>
      <point x="348.8833333333333" y="985.0" type="line"/>
      <point x="576.75" y="985.0" type="line"/>
      <point x="576.75" y="913.1" type="line"/>
      <point x="348.8833333333333" y="909.9833333333333" type="line"/>
    </contour>
  </outline>
</glyph>
<glyph name="schwa" format="2">
  <advance width="1023"/>
  <unicode hex="0259"/>
  <outline>
    <contour>
      <point x="956.73" y="492.1566666666667" type="qcurve" smooth="yes"/>
      <point x="956.73" y="271.2533333333334"/>
      <point x="698.3266666666667" y="-21.9"/>
      <point x="491.62333333333333" y="-21.9" type="qcurve" smooth="yes"/>
      <point x="304.25333333333333" y="-21.9"/>
      <point x="80.19" y="211.34"/>
      <point x="61.22666666666667" y="410.6066666666667" type="qcurve"/>
      <point x="61.22666666666667" y="451.97333333333336" type="line"/>
      <point x="866.22" y="451.97333333333336" type="line"/>
      <point x="864.0699999999999" y="386.79" type="line"/>
      <point x="163.61" y="386.79" type="line"/>
      <point x="180.67333333333332" y="236.32333333333332"/>
      <point x="357.4266666666667" y="51.25"/>
      <point x="503.02666666666664" y="51.25" type="qcurve" smooth="yes"/>
      <point x="660.1333333333333" y="51.25"/>
      <point x="846.5466666666666" y="279.25666666666666"/>
      <point x="846.2633333333333" y="479.3233333333334" type="qcurve" smooth="yes"/>
      <point x="845.2833333333334" y="703.2566666666667"/>
      <point x="619.2033333333334" y="935.06"/>
      <point x="435.42" y="935.06" type="qcurve" smooth="yes"/>
      <point x="325.19666666666666" y="935.06"/>
      <point x="173.89666666666668" y="870.44"/>
      <point x="125.57333333333334" y="821.2566666666668" type="qcurve"/>
      <point x="92.79" y="856.1733333333334" type="line"/>
      <point x="140.22666666666666" y="923.4733333333334"/>
      <point x="324.55333333333334" y="1021.94"/>
      <point x="459.1133333333333" y="1021.94" type="qcurve" smooth="yes"/>
      <point x="682.6666666666666" y="1021.94"/>
      <point x="956.73" y="741.7233333333332"/>
    </contour>
  </outline>
</glyph>
<glyph name="doubleprimemod" format="2">
  <advance width="790"/>
  <unicode hex="02BA"/>
  <outline>
    <contour>
      <point x="250.83333333333334" y="1502.0" type="line"/>
      <point x="386.08333333333337" y="1502.0" type="line"/>
      <point x="268.78" y="994.4233333333333" type="line"/>
      <point x="196.9466666666667" y="999.4233333333333" type="line"/>
    </contour>
    <contour>
      <point x="550.6333333333333" y="1502.0" type="line"/>
      <point x="685.8833333333333" y="1502.0" type="line"/>
      <point x="568.58" y="994.4233333333333" type="line"/>
      <point x="496.74666666666667" y="999.4233333333333" type="line"/>
    </contour>
  </outline>
</glyph>
<glyph name="apostrophemod" format="2">
  <advance width="569"/>
  <unicode hex="02BC"/>
  <outline>
    <contour>
      <point x="183.20333333333332" y="1149.7166666666667" type="line"/>
      <point x="226.05" y="1183.9766666666667"/>
      <point x="303.93" y="1281.57"/>
      <point x="319.6066666666667" y="1340.4666666666667" type="qcurve"/>
      <point x="257.38666666666666" y="1334.0966666666666"/>
      <point x="196.32" y="1390.94"/>
      <point x="196.32" y="1435.4866666666665" type="qcurve" smooth="yes"/>
      <point x="196.32" y="1479.0333333333333"/>
      <point x="254.94333333333333" y="1537.4"/>
      <point x="300.58333333333337" y="1537.4" type="qcurve" smooth="yes"/>
      <point x="343.69666666666666" y="1537.4"/>
      <point x="407.7633333333333" y="1474.21"/>
      <point x="407.7633333333333" y="1419.5866666666666" type="qcurve" smooth="yes"/>
      <point x="407.7633333333333" y="1327.9466666666667"/>
      <point x="285.73333333333335" y="1168.6533333333334"/>
      <point x="205.46" y="1121.48" type="qcurve"/>
    </contour>
  </outline>
</glyph>
<glyph name="circumflex" format="2">
  <advance width="1024"/>
  <unicode hex="02C6"/>
  <outline>
    <contour>
      <point x="512.0" y="1454.09" type="qcurve" smooth="yes"/>
      <point x="538.7733333333334" y="1454.09"/>
      <point x="575.0733333333334" y="1422.4133333333334"/>
      <point x="607.4466666666666" y="1381.23" type="qcurve" smooth="yes"/>
      <point x="788.2466666666667" y="1160.8466666666668" type="line"/>
      <point x="746.34" y="1119.62" type="line"/>
      <point x="512.0" y="1334.2" type="line"/>
      <point x="277.66" y="1119.62" type="line"/>
      <point x="235.75333333333333" y="1160.8466666666668" type="line"/>
      <point x="416.55333333333334" y="1381.23" type="line" smooth="yes"/>
      <point x="456.69666666666666" y="1430.15"/>
      <point x="485.2266666666667" y="1454.09"/>
    </contour>
  </outline>
</glyph>
<glyph name="caron" format="2">
  <advance width="1024"/>
  <unicode hex="02C7"/>
  <outline>
    <contour>
      <point x="512.0" y="1119.62" type="qcurve" smooth="yes"/>
      <point x="485.2266666666667" y="1119.62"/>
      <point x="448.9266666666667" y="1151.2966666666666"/>
      <point x="416.55333333333334" y="1192.48" type="qcurve" smooth="yes"/>
      <point x="235.75333333333333" y="1412.8633333333332" type="line"/>
      <point x="277.66" y="1454.09" type="line"/>
      <point x="512.0" y="1239.51" type="line"/>
      <point x="746.34" y="1454.09" type="line"/>
      <point x="788.2466666666667" y="1412.8633333333332" type="line"/>
      <point x="607.4466666666666" y="1192.48" type="line" smooth="yes"/>
      <point x="567.3033333333333" y="1143.56"/>
      <point x="538.7733333333334" y="1119.62"/>
    </contour>
  </outline>
</glyph>
<glyph name="dotaccent" format="2">
  <advance width="1024"/>
  <unicode hex="02D9"/>
  <outline>
    <contour>
      <point x="418.71333333333337" y="1261.06" type="qcurve" smooth="yes"/>
      <point x="418.71333333333337" y="1305.06"/>
      <point x="466.14" y="1353.02"/>
      <point x="511.28333333333336" y="1353.02" type="qcurve" smooth="yes"/>
      <point x="554.5966666666667" y="1353.02"/>
      <point x="605.2866666666666" y="1302.4933333333333"/>
      <point x="605.2866666666666" y="1261.06" type="qcurve" smooth="yes"/>
      <point x="605.2866666666666" y="1217.08"/>
      <point x="557.86" y="1169.1"/>
      <point x="511.28333333333336" y="1169.1" type="qcurve" smooth="yes"/>
      <point x="468.68666666666667" y="1169.1"/>
      <point x="418.71333333333337" y="1218.91"/>
    </contour>
  </outline>
</glyph>
<glyph name="ogonek" format="2">
  <advance width="1024"/>
  <unicode hex="02DB"/>
  <outline>
    <contour>
      <point x="425.09000000000003" y="-248.00333333333333" type="qcurve" smooth="yes"/>
      <point x="425.09000000000003" y="-292.75"/>
      <point x="484.1433333333334" y="-354.8333333333333"/>
      <point x="553.0699999999999" y="-354.8333333333333" type="qcurve" smooth="yes"/>
      <point x="601.76" y="-354.8333333333333"/>
      <point x="699.6333333333333" y="-313.91333333333336"/>
      <point x="745.6066666666667" y="-274.03333333333336" type="qcurve"/>
      <point x="778.9833333333332" y="-321.2233333333333" type="line"/>
      <point x="740.67" y="-367.23333333333335"/>
      <point x="612.6999999999999" y="-439.52666666666664"/>
      <point x="529.5833333333334" y="-439.52666666666664" type="qcurve" smooth="yes"/>
      <point x="428.7866666666667" y="-439.52666666666664"/>
      <point x="318.85" y="-352.97333333333336"/>
      <point x="318.85" y="-276.94666666666666" type="qcurve" smooth="yes"/>
      <point x="318.85" y="-198.65666666666667"/>
      <point x="434.06" y="-51.39333333333333"/>
      <point x="512.3666666666667" y="8.843333333333332" type="qcurve" smooth="yes"/>
      <point x="539.4366666666667" y="29.5" type="line"/>
      <point x="587.7966666666667" y="-4.423333333333334" type="line"/>
      <point x="565.8000000000001" y="-24.513333333333335" type="line" smooth="yes"/>
      <point x="494.94" y="-89.89666666666668"/>
      <point x="425.09000000000003" y="-187.41333333333333"/>
    </contour>
  </outline>
</glyph>
<glyph name="tilde" format="2">
  <advance width="1024"/>
  <unicode hex="02DC"/>
  <outline>
    <contour>
      <point x="208.58333333333334" y="1237.1166666666666" type="line"/>
      <point x="236.93333333333334" y="1287.0766666666668"/>
      <point x="337.37333333333333" y="1372.01"/>
      <point x="396.70666666666665" y="1372.01" type="qcurve" smooth="yes"/>
      <point x="432.32" y="1372.01"/>
      <point x="494.0" y="1349.0866666666666"/>
      <point x="527.0466666666666" y="1328.86" type="qcurve" smooth="yes"/>
      <point x="549.85" y="1314.7666666666667"/>
      <point x="624.5833333333334" y="1272.9"/>
      <point x="660.8933333333333" y="1272.9" type="qcurve" smooth="yes"/>
      <point x="694.77" y="1272.9"/>
      <point x="760.43" y="1315.9666666666667"/>
      <point x="780.7066666666666" y="1345.72" type="qcurve"/>
      <point x="818.05" y="1303.6299999999999" type="line"/>
      <point x="786.4166666666666" y="1242.8400000000001"/>
      <point x="693.97" y="1176.4266666666667"/>
      <point x="646.86" y="1176.4266666666667" type="qcurve" smooth="yes"/>
      <point x="605.0233333333333" y="1176.4266666666667"/>
      <point x="523.0666666666666" y="1211.9499999999998"/>
      <point x="499.22333333333336" y="1228.3266666666666" type="qcurve" smooth="yes"/>
      <point x="471.15666666666664" y="1246.9866666666667"/>
      <point x="407.49666666666667" y="1275.4766666666667"/>
      <point x="382.6933333333333" y="1275.4766666666667" type="qcurve" smooth="yes"/>
      <point x="341.5733333333334" y="1275.4766666666667"/>
      <point x="267.12333333333333" y="1217.2333333333333"/>
      <point x="251.07" y="1195.0266666666666" type="qcurve"/>
    </contour>
  </outline>
</glyph>
<glyph name="hungarumlaut" format="2">
  <advance width="1024"/>
  <unicode hex="02DD"/>
  <outline>
    <contour>
      <point x="619.2533333333333" y="1397.9833333333333" type="qcurve" smooth="yes"/>
      <point x="619.3933333333333" y="1374.2566666666667"/>
      <point x="592.4399999999999" y="1341.1566666666665"/>
      <point x="569.65" y="1321.8733333333334" type="qcurve" smooth="yes"/>
      <point x="322.7733333333333" y="1115.5733333333333" type="line"/>
      <point x="285.48333333333335" y="1155.3000000000002" type="line"/>
      <point x="477.4166666666667" y="1387.6899999999998" type="line" smooth="yes"/>
      <point x="499.18333333333334" y="1413.9933333333333"/>
      <point x="536.9433333333334" y="1447.4133333333334"/>
      <point x="560.9233333333334" y="1447.5333333333333" type="qcurve" smooth="yes"/>
      <point x="584.0733333333334" y="1447.6333333333334"/>
      <point x="619.1133333333333" y="1417.7933333333333"/>
    </contour>
    <contour>
      <point x="914.0666666666667" y="1398.0033333333333" type="qcurve" smooth="yes"/>
      <point x="914.2066666666667" y="1374.2566666666667"/>
      <point x="887.2733333333333" y="1341.1566666666665"/>
      <point x="864.4633333333333" y="1321.8733333333334" type="qcurve" smooth="yes"/>
      <point x="617.5866666666666" y="1115.5733333333333" type="line"/>
      <point x="580.2966666666667" y="1155.3000000000002" type="line"/>
      <point x="772.4933333333333" y="1387.6899999999998" type="line" smooth="yes"/>
      <point x="794.26" y="1413.9933333333333"/>
      <point x="831.7566666666668" y="1447.4333333333334"/>
      <point x="855.7366666666667" y="1447.5333333333333" type="qcurve" smooth="yes"/>
      <point x="878.8866666666667" y="1447.6333333333334"/>
      <point x="913.9266666666666" y="1417.7933333333333"/>
    </contour>
  </outline>
</glyph>
<glyph name="hookabovecomb" format="2">
  <advance width="1024"/>
  <unicode hex="0309"/>
  <outline>
    <contour>
      <point x="423.0566666666667" y="1013.55" type="line"/>
      <point x="423.0566666666667" y="1133.76" type="line"/>
      <point x="465.0466666666666" y="1175.7533333333333" type="line"/>
      <point x="481.31" y="1170.47"/>
      <point x="526.9066666666666" y="1164.7333333333333"/>
      <point x="553.8066666666666" y="1164.7333333333333" type="qcurve" smooth="yes"/>
      <point x="614.0966666666667" y="1164.7333333333333"/>
      <point x="672.2433333333333" y="1223.7033333333334"/>
      <point x="672.2433333333333" y="1268.49" type="qcurve" smooth="yes"/>
      <point x="672.2433333333333" y="1322.7433333333333"/>
      <point x="589.3133333333334" y="1366.7733333333333"/>
      <point x="531.17" y="1366.7733333333333" type="qcurve" smooth="yes"/>
      <point x="486.38" y="1366.7733333333333"/>
      <point x="390.87333333333333" y="1344.9833333333333"/>
      <point x="353.3666666666667" y="1328.1933333333334" type="qcurve"/>
      <point x="328.02000000000004" y="1393.2533333333333" type="line"/>
      <point x="376.49333333333334" y="1414.8933333333334"/>
      <point x="482.9633333333333" y="1441.7966666666666"/>
      <point x="540.3733333333333" y="1441.7966666666666" type="qcurve" smooth="yes"/>
      <point x="647.5766666666667" y="1441.7966666666666"/>
      <point x="769.69" y="1359.97"/>
      <point x="769.69" y="1267.96" type="qcurve" smooth="yes"/>
      <point x="769.69" y="1184.5733333333333"/>
      <point x="658.5699999999999" y="1092.8633333333332"/>
      <point x="583.2933333333334" y="1092.8633333333332" type="qcurve" smooth="yes"/>
      <point x="557.5966666666667" y="1092.8633333333332"/>
      <point x="517.5" y="1098.26"/>
      <point x="503.71" y="1102.24" type="qcurve"/>
      <point x="503.71" y="1013.55" type="line"/>
    </contour>
  </outline>
</glyph>
<glyph name="breveinvertedcomb" format="2">
  <advance width="1024"/>
  <unicode hex="030F"/>
  <outline>
    <contour>
      <point x="275.77000000000004" y="1153.2733333333333" type="qcurve"/>
      <point x="225.28333333333333" y="1174.64" type="line"/>
      <point x="241.12" y="1258.1233333333334"/>
      <point x="401.27000000000004" y="1404.3500000000001"/>
      <point x="511.0" y="1404.3500000000001" type="qcurve"/>
      <point x="622.5" y="1404.3500000000001"/>
      <point x="781.8333333333334" y="1266.3666666666666"/>
      <point x="798.7166666666667" y="1176.1133333333335" type="qcurve"/>
      <point x="746.02" y="1152.5366666666666" type="line"/>
      <point x="719.7566666666667" y="1208.11"/>
      <point x="601.9399999999999" y="1301.9033333333334"/>
      <point x="510.52666666666664" y="1301.9033333333334" type="qcurve"/>
      <point x="418.80333333333334" y="1301.9033333333334"/>
      <point x="298.87666666666667" y="1207.3733333333332"/>
    </contour>
  </outline>
</glyph>
<glyph name="dblgravecomb" format="2">
  <advance width="1024"/>
  <unicode hex="0311"/>
  <outline>
    <contour>
      <point x="155.95333333333335" y="1402.48" type="qcurve"/>
      <point x="156.09333333333333" y="1423.5866666666666"/>
      <point x="190.08" y="1453.9533333333334"/>
      <point x="213.75666666666666" y="1453.8533333333332" type="qcurve" smooth="yes"/>
      <point x="239.0533333333333" y="1453.7533333333333"/>
      <point x="277.34000000000003" y="1421.8933333333334"/>
      <point x="299.6333333333333" y="1394.01" type="qcurve" smooth="yes"/>
      <point x="492.0933333333333" y="1156.09" type="line"/>
      <point x="451.38" y="1115.5733333333333" type="line"/>
      <point x="208.71666666666667" y="1320.5566666666666" type="line" smooth="yes"/>
      <point x="187.22333333333333" y="1339.05"/>
      <point x="155.81333333333333" y="1381.1033333333335"/>
    </contour>
    <contour>
      <point x="452.60999999999996" y="1402.46" type="qcurve"/>
      <point x="452.75" y="1423.5866666666666"/>
      <point x="486.7366666666667" y="1453.9533333333334"/>
      <point x="510.4133333333333" y="1453.8533333333332" type="qcurve" smooth="yes"/>
      <point x="535.7099999999999" y="1453.7333333333333"/>
      <point x="574.26" y="1421.63"/>
      <point x="596.5533333333334" y="1393.7466666666667" type="qcurve" smooth="yes"/>
      <point x="788.75" y="1156.09" type="line"/>
      <point x="748.0366666666667" y="1115.5733333333333" type="line"/>
      <point x="505.37333333333333" y="1320.5566666666666" type="line" smooth="yes"/>
      <point x="483.9" y="1339.05"/>
      <point x="452.46999999999997" y="1381.1033333333335"/>
    </contour>
  </outline>
</glyph>
<glyph name="horncomb" format="2">
  <advance width="1024"/>
  <unicode hex="031B"/>
  <outline>
    <contour>
      <point x="-0.16000000000000003" y="999.42" type="line"/>
      <point x="34.76" y="992.81"/>
      <point x="87.65666666666667" y="984.0500000000001"/>
      <point x="144.88333333333333" y="984.0500000000001" type="qcurve" smooth="yes"/>
      <point x="210.6233333333333" y="984.0500000000001"/>
      <point x="285.32" y="1032.28"/>
      <point x="285.32" y="1084.08" type="qcurve" smooth="yes"/>
      <point x="285.32" y="1118.94"/>
      <point x="274.79333333333335" y="1197.98"/>
      <point x="256.2333333333333" y="1254.38" type="qcurve"/>
      <point x="327.98" y="1254.38" type="line"/>
      <point x="346.14666666666665" y="1212.4633333333334"/>
      <point x="371.5933333333333" y="1119.3133333333333"/>
      <point x="371.5933333333333" y="1076.4933333333333" type="qcurve" smooth="yes"/>
      <point x="371.5933333333333" y="986.8533333333334"/>
      <point x="263.0333333333333" y="901.5300000000001"/>
      <point x="157.15666666666667" y="901.5300000000001" type="qcurve" smooth="yes"/>
      <point x="119.03333333333333" y="901.5300000000001"/>
      <point x="44.03666666666667" y="916.3633333333333"/>
      <point x="-0.16000000000000003" y="931.86" type="qcurve"/>
    </contour>
  </outline>
</glyph>
<glyph name="dotbelowcomb" format="2">
  <advance width="1024"/>
  <unicode hex="0323"/>
  <outline>
    <contour>
      <point x="419.50333333333333" y="-254.76999999999998" type="qcurve" smooth="yes"/>
      <point x="419.50333333333333" y="-211.29666666666665"/>
      <point x="466.40333333333336" y="-163.6"/>
      <point x="511.28333333333336" y="-163.6" type="qcurve" smooth="yes"/>
      <point x="554.3333333333333" y="-163.6"/>
      <point x="604.4966666666667" y="-213.86333333333332"/>
      <point x="604.4966666666667" y="-254.76999999999998" type="qcurve" smooth="yes"/>
      <point x="604.4966666666667" y="-298.4866666666667"/>
      <point x="557.5966666666667" y="-346.2033333333334"/>
      <point x="511.28333333333336" y="-346.2033333333334" type="qcurve" smooth="yes"/>
      <point x="468.95" y="-346.2033333333334"/>
      <point x="419.50333333333333" y="-296.65666666666664"/>
    </contour>
  </outline>
</glyph>
<glyph name="dieresisbelowcomb" format="2">
  <advance width="1024"/>
  <unicode hex="0324"/>
  <outline>
    <contour>
      <point x="246.09666666666666" y="-276.97" type="qcurve" smooth="yes"/>
      <point x="246.09666666666666" y="-236.42333333333332"/>
      <point x="291.5233333333333" y="-191.87666666666667"/>
      <point x="333.68666666666667" y="-191.87666666666667" type="qcurve" smooth="yes"/>
      <point x="372.85" y="-191.87666666666667"/>
      <point x="419.12666666666667" y="-238.97"/>
      <point x="419.12666666666667" y="-276.97" type="qcurve" smooth="yes"/>
      <point x="419.12666666666667" y="-317.96999999999997"/>
      <point x="376.1333333333333" y="-362.51666666666665"/>
      <point x="333.68666666666667" y="-362.51666666666665" type="qcurve" smooth="yes"/>
      <point x="293.09000000000003" y="-362.51666666666665"/>
      <point x="246.09666666666666" y="-316.4033333333333"/>
    </contour>
    <contour>
      <point x="604.8733333333333" y="-276.97" type="qcurve" smooth="yes"/>
      <point x="604.8733333333333" y="-236.42333333333332"/>
      <point x="648.8666666666667" y="-191.87666666666667"/>
      <point x="690.3133333333334" y="-191.87666666666667" type="qcurve" smooth="yes"/>
      <point x="730.91" y="-191.87666666666667"/>
      <point x="777.9033333333333" y="-238.97"/>
      <point x="777.9033333333333" y="-276.97" type="qcurve" smooth="yes"/>
      <point x="777.9033333333333" y="-317.96999999999997"/>
      <point x="733.4766666666667" y="-362.51666666666665"/>
      <point x="690.3133333333334" y="-362.51666666666665" type="qcurve" smooth="yes"/>
      <point x="651.1500000000001" y="-362.51666666666665"/>
      <point x="604.8733333333333" y="-316.4033333333333"/>
    </contour>
  </outline>
</glyph>
<glyph name="macronbelowcomb" format="2">
  <advance width="1024"/>
  <unicode hex="0331"/>
  <outline>
    <contour>
      <point x="245.84666666666666" y="-272.4866666666667" type="line"/>
      <point x="245.84666666666666" y="-172.19" type="line"/>
      <point x="778.1533333333334" y="-172.19" type="line"/>
      <point x="778.1533333333334" y="-272.4866666666667" type="line"/>
    </contour>
  </outline>
</glyph>
<glyph name="lownumeralsign" format="2">
  <advance width="349"/>
  <unicode hex="0375"/>
  <outline>
    <contour>
      <point x="85.04333333333334" y="-216.36666666666667" type="line"/>
      <point x="-15.506666666666668" y="-204.67666666666668" type="line"/>
      <point x="-32.33" y="-176.9766666666667" type="line"/>
      <point x="160.20333333333332" y="265.0" type="line"/>
      <point x="201.53333333333333" y="250.01666666666665" type="line"/>
    </contour>
  </outline>
</glyph>
<glyph name="Theta" format="2">
  <advance width="1653"/>
  <unicode hex="0398"/>
  <outline>
    <contour>
      <point x="830.26" y="-30.82" type="qcurve" smooth="yes"/>
      <point x="503.62" y="-30.82"/>
      <point x="83.26333333333334" y="396.14"/>
      <point x="83.26333333333334" y="737.08" type="qcurve" smooth="yes"/>
      <point x="83.26333333333334" y="1068.04"/>
      <point x="491.72" y="1520.0"/>
      <point x="826.3" y="1520.0" type="qcurve" smooth="yes"/>
      <point x="1160.88" y="1520.0"/>
      <point x="1569.3166666666668" y="1097.04"/>
      <point x="1569.3166666666668" y="752.08" type="qcurve" smooth="yes"/>
      <point x="1569.3166666666668" y="423.12"/>
      <point x="1164.86" y="-30.82"/>
    </contour>
    <contour>
      <point x="830.43" y="52.42666666666666" type="qcurve" smooth="yes"/>
      <point x="1130.2933333333333" y="52.42666666666666"/>
      <point x="1458.8633333333335" y="421.07"/>
      <point x="1458.8633333333335" y="747.9466666666667" type="qcurve" smooth="yes"/>
      <point x="1458.8633333333335" y="1045.1433333333332"/>
      <point x="1117.64" y="1434.4866666666667"/>
      <point x="830.43" y="1434.4866666666667" type="qcurve" smooth="yes"/>
      <point x="528.4166666666666" y="1434.4866666666667"/>
      <point x="194.45333333333332" y="1073.8433333333332"/>
      <point x="194.45333333333332" y="776.8133333333334" type="qcurve" smooth="yes"/>
      <point x="194.45333333333332" y="459.4866666666667"/>
      <point x="546.2" y="52.42666666666666"/>
    </contour>
    <contour>
      <point x="397.9166666666667" y="684.3166666666667" type="line"/>
      <point x="397.9166666666667" y="799.4666666666667" type="line"/>
      <point x="408.2166666666667" y="799.4666666666667" type="line"/>
      <point x="821.6666666666667" y="781.8666666666667" type="line"/>
      <point x="831.9666666666667" y="781.8666666666667" type="line"/>
      <point x="1245.5866666666668" y="799.4666666666667" type="line"/>
      <point x="1255.9066666666668" y="799.4666666666667" type="line"/>
      <point x="1255.9066666666668" y="684.3166666666667" type="line"/>
      <point x="1245.5866666666668" y="684.3166666666667" type="line"/>
      <point x="831.9666666666667" y="701.9166666666666" type="line"/>
      <point x="821.6666666666667" y="701.9166666666666" type="line"/>
      <point x="408.2166666666667" y="684.3166666666667" type="line"/>
    </contour>
  </outline>
</glyph>
<glyph name="Lambda" format="2">
  <advance width="1459"/>
  <unicode hex="039B"/>
  <outline>
    <contour>
      <point x="-30.033333333333335" y="0.0" type="line"/>
      <point x="-30.033333333333335" y="62.653333333333336" type="line"/>
      <point x="161.78333333333333" y="97.65333333333334" type="line"/>
      <point x="332.63666666666666" y="546.83" type="line"/>
      <point x="678.6566666666666" y="1508.0" type="line"/>
      <point x="769.0633333333334" y="1508.0" type="line"/>
      <point x="1106.6566666666668" y="556.25" type="line"/>
      <point x="1281.0333333333335" y="97.63333333333334" type="line"/>
      <point x="1487.9333333333334" y="62.653333333333336" type="line"/>
      <point x="1487.9333333333334" y="0.0" type="line"/>
      <point x="953.2366666666667" y="0.0" type="line"/>
      <point x="953.9533333333333" y="62.653333333333336" type="line"/>
      <point x="1166.2533333333333" y="97.29666666666667" type="line"/>
      <point x="1008.8566666666667" y="529.9033333333333" type="line"/>
      <point x="715.99" y="1362.6733333333334" type="line"/>
      <point x="409.08666666666664" y="520.88" type="line"/>
      <point x="257.71666666666664" y="96.31666666666666" type="line"/>
      <point x="467.3" y="62.653333333333336" type="line"/>
      <point x="467.3" y="0.0" type="line"/>
    </contour>
  </outline>
</glyph>
<glyph name="Xi" format="2">
  <advance width="1404"/>
  <unicode hex="039E"/>
  <guideline x="695.2" y="879.7166666666667" angle="90.0" identifier="GCiNqpylsp"/>
  <outline>
    <contour>
      <point x="117.22666666666667" y="0.0" type="line"/>
      <point x="67.26333333333334" y="411.15000000000003" type="line"/>
      <point x="138.44" y="411.15000000000003" type="line"/>
      <point x="223.73" y="101.41666666666666" type="line"/>
      <point x="700.9833333333333" y="99.13333333333333" type="line"/>
      <point x="1180.3866666666665" y="101.41666666666666" type="line"/>
      <point x="1265.6766666666665" y="411.15000000000003" type="line"/>
      <point x="1336.8533333333332" y="411.15000000000003" type="line"/>
      <point x="1286.89" y="0.0" type="line"/>
    </contour>
    <contour>
      <point x="321.06333333333333" y="518.9166666666667" type="line"/>
      <point x="321.06333333333333" y="954.2" type="line"/>
      <point x="387.52" y="954.2" type="line"/>
      <point x="416.5466666666666" y="786.9833333333333" type="line"/>
      <point x="702.4166666666666" y="777.0033333333333" type="line"/>
      <point x="987.5699999999999" y="786.9833333333333" type="line"/>
      <point x="1016.5966666666666" y="954.2" type="line"/>
      <point x="1083.0533333333335" y="954.2" type="line"/>
      <point x="1083.0533333333335" y="518.9166666666667" type="line"/>
      <point x="1016.5966666666666" y="518.9166666666667" type="line"/>
      <point x="987.5699999999999" y="686.1333333333333" type="line"/>
      <point x="702.4166666666666" y="696.1133333333332" type="line"/>
      <point x="416.5466666666666" y="686.1333333333333" type="line"/>
      <point x="387.52" y="518.9166666666667" type="line"/>
    </contour>
    <contour>
      <point x="120.35" y="1103.2333333333333" type="line"/>
      <point x="120.35" y="1500.0" type="line"/>
      <point x="1283.7666666666667" y="1500.0" type="line"/>
      <point x="1283.7666666666667" y="1103.2333333333333" type="line"/>
      <point x="1215.0" y="1103.2333333333333" type="line"/>
      <point x="1171.6133333333335" y="1395.75" type="line"/>
      <point x="700.9833333333333" y="1398.0333333333333" type="line"/>
      <point x="232.50333333333333" y="1395.75" type="line"/>
      <point x="189.11666666666667" y="1103.2333333333333" type="line"/>
    </contour>
  </outline>
</glyph>
<glyph name="Sigma" format="2">
  <advance width="1165"/>
  <unicode hex="03A3"/>
  <outline>
    <contour>
      <point x="61.596666666666664" y="0.0" type="line"/>
      <point x="39.6" y="66.2" type="line"/>
      <point x="567.11" y="747.7700000000001" type="line"/>
      <point x="104.07333333333334" y="1426.6666666666667" type="line"/>
      <point x="104.07333333333334" y="1500.0" type="line"/>
      <point x="1100.1233333333334" y="1500.0" type="line"/>
      <point x="1100.1233333333334" y="1103.2333333333333" type="line"/>
      <point x="1031.3566666666668" y="1103.2333333333333" type="line"/>
      <point x="983.95" y="1425.7166666666667" type="line"/>
      <point x="248.90333333333334" y="1425.7166666666667" type="line"/>
      <point x="242.0933333333333" y="1416.2833333333333" type="line"/>
      <point x="672.8533333333334" y="781.0733333333334" type="line"/>
      <point x="672.8533333333334" y="755.08" type="line"/>
      <point x="165.51333333333332" y="95.11" type="line"/>
      <point x="171.34333333333333" y="84.80999999999999" type="line"/>
      <point x="992.99" y="84.80999999999999" type="line"/>
      <point x="1078.96" y="383.9166666666667" type="line"/>
      <point x="1153.0033333333333" y="383.9166666666667" type="line"/>
      <point x="1107.3400000000001" y="0.0" type="line"/>
    </contour>
  </outline>
</glyph>
<glyph name="Phi" format="2">
  <advance width="1535"/>
  <unicode hex="03A6"/>
  <outline>
    <contour>
      <point x="559.9233333333333" y="-23.92" type="line"/>
      <point x="559.9233333333333" y="40.626666666666665" type="line"/>
      <point x="752.6899999999999" y="74.62666666666667" type="line"/>
      <point x="754.2366666666667" y="258.1933333333333" type="line"/>
      <point x="760.5533333333333" y="258.1933333333333" type="line"/>
      <point x="761.08" y="741.6333333333333" type="line"/>
      <point x="846.2166666666667" y="741.6333333333333" type="line"/>
      <point x="846.7433333333333" y="258.4566666666667" type="line"/>
      <point x="853.06" y="258.1933333333333" type="line"/>
      <point x="854.5666666666666" y="74.62666666666667" type="line"/>
      <point x="1048.09" y="40.626666666666665" type="line"/>
      <point x="1048.09" y="-23.92" type="line"/>
    </contour>
    <contour>
      <point x="761.08" y="741.6333333333333" type="line"/>
      <point x="760.5533333333333" y="1237.6233333333332" type="line"/>
      <point x="754.2366666666667" y="1237.8866666666665" type="line"/>
      <point x="752.6899999999999" y="1421.4533333333334" type="line"/>
      <point x="559.2066666666666" y="1455.4533333333334" type="line"/>
      <point x="559.2066666666666" y="1520.0" type="line"/>
      <point x="1047.3733333333332" y="1520.0" type="line"/>
      <point x="1047.3733333333332" y="1455.4533333333334" type="line"/>
      <point x="854.5666666666666" y="1421.4533333333334" type="line"/>
      <point x="853.06" y="1237.8866666666665" type="line"/>
      <point x="846.7433333333333" y="1237.8866666666665" type="line"/>
      <point x="846.2166666666667" y="741.6333333333333" type="line"/>
    </contour>
    <contour>
      <point x="784.1133333333332" y="232.20666666666665" type="line"/>
      <point x="393.15000000000003" y="238.08"/>
      <point x="83.06333333333333" y="500.78000000000003"/>
      <point x="83.06333333333333" y="713.0433333333333" type="qcurve" smooth="yes"/>
      <point x="83.06333333333333" y="965.6766666666666"/>
      <point x="422.24333333333334" y="1261.8899999999999"/>
      <point x="784.1133333333332" y="1264.4" type="qcurve"/>
      <point x="784.1133333333332" y="1184.7333333333333" type="line"/>
      <point x="469.91333333333336" y="1184.1666666666667"/>
      <point x="192.16666666666666" y="949.1066666666667"/>
      <point x="192.16666666666666" y="723.8233333333333" type="qcurve" smooth="yes"/>
      <point x="192.16666666666666" y="519.9966666666667"/>
      <point x="454.1466666666667" y="317.69"/>
      <point x="784.1133333333332" y="309.76666666666665" type="qcurve"/>
    </contour>
    <contour>
      <point x="822.4666666666667" y="232.20666666666665" type="qcurve"/>
      <point x="822.4666666666667" y="309.76666666666665" type="line"/>
      <point x="1136.9299999999998" y="310.3333333333333"/>
      <point x="1414.6766666666667" y="545.4333333333333"/>
      <point x="1414.6766666666667" y="770.7166666666667" type="qcurve" smooth="yes"/>
      <point x="1414.6766666666667" y="974.5433333333333"/>
      <point x="1152.6966666666665" y="1176.8100000000002"/>
      <point x="822.4666666666667" y="1184.7333333333333" type="qcurve"/>
      <point x="822.4666666666667" y="1264.4" type="line"/>
      <point x="1213.6933333333334" y="1258.5266666666666"/>
      <point x="1523.78" y="995.8666666666667"/>
      <point x="1523.78" y="783.6033333333334" type="qcurve" smooth="yes"/>
      <point x="1523.78" y="530.97"/>
      <point x="1184.6" y="234.71666666666667"/>
    </contour>
  </outline>
</glyph>
<glyph name="beta" format="2">
  <advance width="1186"/>
  <unicode hex="03B2"/>
  <outline>
    <contour>
      <point x="193.44333333333336" y="-480.0" type="line"/>
      <point x="167.04333333333335" y="-460.1666666666667" type="line"/>
      <point x="176.89" y="145.46666666666667" type="line"/>
      <point x="180.22333333333333" y="961.8066666666667" type="line" smooth="yes"/>
      <point x="180.46666666666667" y="1262.6566666666668"/>
      <point x="417.28000000000003" y="1537.7166666666667"/>
      <point x="622.2866666666666" y="1537.7166666666667" type="qcurve" smooth="yes"/>
      <point x="796.54" y="1537.7166666666667"/>
      <point x="1000.1433333333333" y="1348.1833333333334"/>
      <point x="1000.1433333333333" y="1186.3466666666666" type="qcurve" smooth="yes"/>
      <point x="1000.1433333333333" y="1028.25"/>
      <point x="812.87" y="795.3433333333332"/>
      <point x="594.9766666666666" y="756.4599999999999" type="qcurve" smooth="yes"/>
      <point x="516.2866666666667" y="742.1766666666667" type="line"/>
      <point x="500.8933333333334" y="780.1433333333333" type="line"/>
      <point x="531.6733333333334" y="882.9" type="line"/>
      <point x="593.01" y="876.2666666666668" type="line" smooth="yes"/>
      <point x="887.8166666666667" y="846.4033333333334"/>
      <point x="1118.6633333333332" y="623.6333333333333"/>
      <point x="1118.6633333333332" y="429.3333333333333" type="qcurve" smooth="yes"/>
      <point x="1118.6633333333332" y="229.96666666666667"/>
      <point x="858.49" y="-21.183333333333334"/>
      <point x="649.0" y="-21.183333333333334" type="qcurve"/>
      <point x="512.25" y="-21.183333333333334"/>
      <point x="312.25" y="69.3"/>
      <point x="229.85999999999999" y="173.61666666666665" type="qcurve"/>
      <point x="229.85999999999999" y="242.11" type="line"/>
      <point x="258.2866666666667" y="242.11" type="line"/>
      <point x="326.43" y="145.15333333333334"/>
      <point x="512.3933333333333" y="47.21"/>
      <point x="644.1999999999999" y="47.21" type="qcurve" smooth="yes"/>
      <point x="803.74" y="47.21"/>
      <point x="1003.2166666666667" y="251.63333333333333"/>
      <point x="1003.2166666666667" y="421.25" type="qcurve" smooth="yes"/>
      <point x="1003.2166666666667" y="618.45"/>
      <point x="778.3" y="792.3"/>
      <point x="609.7199999999999" y="796.6" type="qcurve"/>
      <point x="623.0433333333334" y="836.8666666666667" type="line"/>
      <point x="721.1266666666667" y="836.2866666666666"/>
      <point x="901.7566666666667" y="1027.0433333333333"/>
      <point x="901.7566666666667" y="1179.31" type="qcurve" smooth="yes"/>
      <point x="901.7566666666667" y="1319.78"/>
      <point x="742.32" y="1451.93"/>
      <point x="619.56" y="1451.93" type="qcurve" smooth="yes"/>
      <point x="443.7066666666667" y="1451.93"/>
      <point x="278.8066666666667" y="1223.4199999999998"/>
      <point x="280.95666666666665" y="971.85" type="qcurve" smooth="yes"/>
      <point x="279.5233333333333" y="154.72333333333333" type="line"/>
      <point x="288.07" y="-469.99333333333334" type="line"/>
    </contour>
  </outline>
</glyph>
<glyph name="zeta" format="2">
  <advance width="847"/>
  <unicode hex="03B6"/>
  <outline>
    <contour>
      <point x="706.6766666666666" y="-298.6666666666667" type="line"/>
      <point x="686.6533333333333" y="-134.11333333333334" type="line" smooth="yes"/>
      <point x="679.1466666666666" y="-67.70333333333333"/>
      <point x="645.8166666666667" y="-23.993333333333336"/>
      <point x="603.1" y="-20.973333333333333" type="qcurve" smooth="yes"/>
      <point x="576.3733333333333" y="-18.893333333333334" type="line" smooth="yes"/>
      <point x="316.27" y="0.8700000000000014"/>
      <point x="66.58666666666666" y="188.98"/>
      <point x="66.58666666666666" y="370.3833333333333" type="qcurve" smooth="yes"/>
      <point x="66.58666666666666" y="527.6033333333332"/>
      <point x="294.12" y="914.8566666666667"/>
      <point x="740.1666666666667" y="1429.7966666666669" type="qcurve"/>
      <point x="749.9666666666667" y="1406.3366666666668" type="line"/>
      <point x="148.30666666666667" y="1405.1599999999999" type="line"/>
      <point x="124.01333333333334" y="1426.8366666666666" type="line"/>
      <point x="136.37" y="1526.7533333333333" type="line"/>
      <point x="838.2566666666668" y="1507.55" type="line"/>
      <point x="838.2566666666668" y="1428.1200000000001" type="line"/>
      <point x="363.49333333333334" y="873.4100000000001"/>
      <point x="174.23666666666665" y="523.1333333333333"/>
      <point x="174.23666666666665" y="373.90000000000003" type="qcurve" smooth="yes"/>
      <point x="174.23666666666665" y="238.29666666666665"/>
      <point x="359.75666666666666" y="99.96000000000001"/>
      <point x="622.9733333333334" y="83.2" type="qcurve" smooth="yes"/>
      <point x="675.3433333333332" y="80.11999999999999" type="line" smooth="yes"/>
      <point x="739.8933333333333" y="75.85000000000001"/>
      <point x="790.9933333333333" y="29.013333333333332"/>
      <point x="791.2233333333332" y="-23.773333333333337" type="qcurve"/>
      <point x="770.5966666666667" y="-298.6666666666667" type="line"/>
    </contour>
  </outline>
</glyph>
<glyph name="eta" format="2">
  <advance width="1122"/>
  <unicode hex="03B7"/>
  <anchor x="558.8000000000001" y="1000.0" name="GRKtop"/>
  <outline>
    <contour>
      <point x="954.2933333333334" y="-480.0" type="line"/>
      <point x="927.8933333333334" y="-460.1666666666667" type="line"/>
      <point x="944.7566666666667" y="330.8333333333333" type="line"/>
      <point x="944.7566666666667" y="662.2166666666667" type="line" smooth="yes"/>
      <point x="944.7566666666667" y="801.6066666666667"/>
      <point x="826.5733333333334" y="922.7666666666667"/>
      <point x="718.5866666666667" y="922.7666666666667" type="qcurve"/>
      <point x="597.5766666666667" y="922.7666666666667"/>
      <point x="419.3633333333333" y="802.1366666666667"/>
      <point x="378.4033333333333" y="725.8866666666668" type="qcurve"/>
      <point x="377.87666666666667" y="553.8666666666667" type="line"/>
      <point x="380.65000000000003" y="10.006666666666666" type="line"/>
      <point x="287.1066666666667" y="0.0" type="line"/>
      <point x="260.7066666666667" y="19.833333333333332" type="line"/>
      <point x="281.5966666666667" y="721.42" type="line"/>
      <point x="279.6166666666667" y="835.1033333333334"/>
      <point x="237.30666666666664" y="902.4733333333334"/>
      <point x="195.66666666666666" y="907.85" type="qcurve" smooth="yes"/>
      <point x="96.27333333333334" y="920.1333333333333" type="line"/>
      <point x="96.27333333333334" y="983.3166666666667" type="line"/>
      <point x="259.09666666666664" y="1005.85" type="line"/>
      <point x="316.25666666666666" y="1007.2433333333333"/>
      <point x="368.49333333333334" y="927.4133333333333"/>
      <point x="377.1933333333333" y="817.6033333333334" type="qcurve"/>
      <point x="378.1933333333333" y="817.6033333333334" type="line"/>
      <point x="422.0" y="896.7466666666667"/>
      <point x="607.5166666666668" y="1020.9"/>
      <point x="745.3766666666667" y="1020.9" type="qcurve" smooth="yes"/>
      <point x="876.8366666666667" y="1020.9"/>
      <point x="1038.8966666666665" y="865.7733333333333"/>
      <point x="1044.23" y="674.0666666666667" type="qcurve" smooth="yes"/>
      <point x="1043.38" y="333.55" type="line"/>
      <point x="1048.92" y="-469.99333333333334" type="line"/>
    </contour>
  </outline>
</glyph>
<glyph name="theta" format="2">
  <advance width="1111"/>
  <unicode hex="03B8"/>
  <outline>
    <contour>
      <point x="573.4166666666666" y="-24.53333333333333" type="qcurve" smooth="yes"/>
      <point x="316.8366666666667" y="-24.53333333333333"/>
      <point x="76.59666666666666" y="327.5"/>
      <point x="75.63666666666666" y="725.12" type="qcurve" smooth="yes"/>
      <point x="74.67666666666666" y="1127.06"/>
      <point x="329.1566666666667" y="1537.0"/>
      <point x="579.3366666666667" y="1537.0" type="qcurve" smooth="yes"/>
      <point x="831.16" y="1537.0"/>
      <point x="1072.1366666666665" y="1174.6933333333334"/>
      <point x="1073.0966666666666" y="780.98" type="qcurve" smooth="yes"/>
      <point x="1074.0566666666666" y="390.98"/>
      <point x="820.1566666666666" y="-24.53333333333333"/>
    </contour>
    <contour>
      <point x="574.3766666666667" y="46.77666666666667" type="qcurve" smooth="yes"/>
      <point x="763.3466666666667" y="46.77666666666667"/>
      <point x="961.4533333333334" y="376.9033333333333"/>
      <point x="961.4533333333334" y="735.9" type="qcurve" smooth="yes"/>
      <point x="961.4533333333334" y="1192.5033333333333"/>
      <point x="752.7666666666667" y="1457.2233333333334"/>
      <point x="577.3766666666667" y="1457.2233333333334" type="qcurve" smooth="yes"/>
      <point x="389.1666666666667" y="1457.2233333333334"/>
      <point x="185.86666666666667" y="1144.53"/>
      <point x="185.86666666666667" y="760.4" type="qcurve" smooth="yes"/>
      <point x="185.86666666666667" y="333.9866666666667"/>
      <point x="397.44" y="46.77666666666667"/>
    </contour>
    <contour>
      <point x="150.24666666666667" y="687.9433333333334" type="line"/>
      <point x="150.24666666666667" y="797.9433333333334" type="line"/>
      <point x="570.4766666666667" y="777.5266666666666" type="line"/>
      <point x="988.2133333333334" y="797.9433333333334" type="line"/>
      <point x="988.2133333333334" y="687.9433333333334" type="line"/>
      <point x="570.4766666666667" y="708.36" type="line"/>
    </contour>
  </outline>
</glyph>
<glyph name="iota" format="2">
  <advance width="551"/>
  <unicode hex="03B9"/>
  <anchor x="245.86333333333334" y="1000.0" name="GRKtop"/>
  <outline>
    <contour>
      <point x="335.03333333333336" y="-8.0" type="line"/>
      <point x="254.62333333333333" y="-5.869999999999999"/>
      <point x="181.06333333333333" y="71.45"/>
      <point x="181.34666666666666" y="167.93333333333334" type="qcurve" smooth="yes"/>
      <point x="182.63" y="460.8333333333333" type="line"/>
      <point x="175.47666666666666" y="989.73" type="line"/>
      <point x="273.68666666666667" y="1000.0" type="line"/>
      <point x="300.08666666666664" y="980.1666666666666" type="line"/>
      <point x="283.83000000000004" y="460.8333333333333" type="line"/>
      <point x="284.5466666666667" y="203.29999999999998" type="line" smooth="yes"/>
      <point x="284.5466666666667" y="123.36999999999999"/>
      <point x="328.9066666666667" y="78.9"/>
      <point x="387.1466666666667" y="78.9" type="qcurve" smooth="yes"/>
      <point x="511.98333333333335" y="78.9" type="line"/>
      <point x="511.98333333333335" y="25.55" type="line"/>
    </contour>
  </outline>
</glyph>
<glyph name="mu" format="2">
  <advance width="1171"/>
  <unicode hex="03BC"/>
  <outline>
    <contour>
      <point x="194.54333333333332" y="-480.0" type="line"/>
      <point x="168.14333333333335" y="-460.1666666666667" type="line"/>
      <point x="180.35333333333332" y="379.18333333333334" type="line"/>
      <point x="172.48333333333332" y="989.9933333333333" type="line"/>
      <point x="270.6933333333333" y="1000.0" type="line"/>
      <point x="297.09333333333336" y="980.1666666666666" type="line"/>
      <point x="280.81666666666666" y="374.8833333333333" type="line"/>
      <point x="280.81666666666666" y="210.85"/>
      <point x="409.19" y="76.85000000000001"/>
      <point x="529.7866666666666" y="76.85000000000001" type="qcurve" smooth="yes"/>
      <point x="614.3333333333333" y="76.85000000000001"/>
      <point x="792.7433333333333" y="168.83333333333334"/>
      <point x="849.12" y="260.3" type="qcurve"/>
      <point x="846.97" y="420.95" type="line"/>
      <point x="838.74" y="989.9933333333333" type="line"/>
      <point x="936.95" y="1000.0" type="line"/>
      <point x="963.35" y="980.1666666666666" type="line"/>
      <point x="946.98" y="285.93333333333334" type="line"/>
      <point x="947.2433333333333" y="170.43"/>
      <point x="988.0233333333333" y="80.55333333333333"/>
      <point x="1067.1033333333332" y="81.98666666666665" type="qcurve" smooth="yes"/>
      <point x="1116.3966666666668" y="81.98666666666665" type="line"/>
      <point x="1116.3966666666668" y="26.016666666666666" type="line"/>
      <point x="997.1633333333334" y="-8.0" type="line"/>
      <point x="919.6433333333333" y="-5.363333333333333"/>
      <point x="860.4" y="64.93666666666667"/>
      <point x="851.18" y="158.54" type="qcurve"/>
      <point x="849.4633333333334" y="158.54" type="line"/>
      <point x="799.1666666666667" y="93.02"/>
      <point x="612.5066666666667" y="-18.650000000000002"/>
      <point x="514.4133333333334" y="-18.650000000000002" type="qcurve" smooth="yes"/>
      <point x="433.2033333333333" y="-18.650000000000002"/>
      <point x="300.64" y="49.94"/>
      <point x="275.99333333333334" y="96.74333333333334" type="qcurve"/>
      <point x="289.17" y="-469.99333333333334" type="line"/>
    </contour>
  </outline>
</glyph>
<glyph name="nu" format="2">
  <advance width="971"/>
  <unicode hex="03BD"/>
  <outline>
    <contour>
      <point x="464.4733333333333" y="-4.65" type="line"/>
      <point x="284.69" y="491.75" type="line"/>
      <point x="159.19333333333333" y="846.9000000000001" type="line" smooth="yes"/>
      <point x="149.27333333333334" y="875.2333333333333"/>
      <point x="116.62333333333333" y="902.0566666666666"/>
      <point x="88.73" y="905.9266666666666" type="qcurve" smooth="yes"/>
      <point x="-23.883333333333336" y="920.1733333333333" type="line"/>
      <point x="-23.883333333333336" y="983.3566666666667" type="line"/>
      <point x="141.42333333333332" y="1005.89" type="line"/>
      <point x="183.53666666666666" y="1005.89"/>
      <point x="230.22" y="970.1766666666667"/>
      <point x="246.5" y="917.55" type="qcurve" smooth="yes"/>
      <point x="376.1666666666667" y="522.8166666666667" type="line"/>
      <point x="537.14" y="86.80666666666666" type="line"/>
      <point x="515.37" y="86.80666666666666" type="line"/>
      <point x="677.88" y="527.25" type="line"/>
      <point x="827.4733333333334" y="989.9933333333333" type="line"/>
      <point x="925.8833333333333" y="1000.0" type="line"/>
      <point x="952.2833333333334" y="980.1666666666666" type="line"/>
      <point x="754.0" y="489.1166666666667" type="line"/>
      <point x="567.62" y="-4.65" type="line"/>
    </contour>
  </outline>
</glyph>
<glyph name="xi" format="2">
  <advance width="952"/>
  <unicode hex="03BE"/>
  <outline>
    <contour>
      <point x="748.9766666666667" y="-298.6666666666667" type="line"/>
      <point x="729.1966666666666" y="-134.62333333333333" type="line" smooth="yes"/>
      <point x="721.1833333333333" y="-66.12333333333333"/>
      <point x="686.7800000000001" y="-23.973333333333333"/>
      <point x="647.4466666666667" y="-21.216666666666665" type="qcurve" smooth="yes"/>
      <point x="619.22" y="-18.893333333333334" type="line" smooth="yes"/>
      <point x="344.62666666666667" y="3.1266666666666674"/>
      <point x="74.95333333333333" y="195.03666666666666"/>
      <point x="74.95333333333333" y="368.9" type="qcurve" smooth="yes"/>
      <point x="74.95333333333333" y="547.9266666666666"/>
      <point x="371.66" y="796.9066666666666"/>
      <point x="699.78" y="844.4566666666666" type="qcurve" smooth="yes"/>
      <point x="775.9033333333333" y="854.7966666666667" type="line"/>
      <point x="791.2966666666667" y="816.5666666666667" type="line"/>
      <point x="760.8" y="708.1233333333333" type="line"/>
      <point x="694.3933333333333" y="713.8399999999999" type="line" smooth="yes"/>
      <point x="375.55333333333334" y="743.53"/>
      <point x="151.56333333333333" y="932.35"/>
      <point x="151.56333333333333" y="1069.3899999999999" type="qcurve" smooth="yes"/>
      <point x="151.56333333333333" y="1194.1233333333332"/>
      <point x="313.3833333333333" y="1372.5833333333333"/>
      <point x="530.56" y="1415.5033333333333" type="qcurve"/>
      <point x="530.8233333333334" y="1409.6533333333334" type="line"/>
      <point x="167.2" y="1405.1599999999999" type="line"/>
      <point x="142.90666666666667" y="1426.8366666666666" type="line"/>
      <point x="155.26333333333332" y="1526.7533333333333" type="line"/>
      <point x="879.85" y="1507.55" type="line"/>
      <point x="879.85" y="1430.8333333333333" type="line"/>
      <point x="555.99" y="1404.0466666666669"/>
      <point x="249.41000000000003" y="1231.5633333333333"/>
      <point x="249.41000000000003" y="1079.1166666666666" type="qcurve" smooth="yes"/>
      <point x="249.41000000000003" y="964.5666666666666"/>
      <point x="437.8633333333333" y="825.5533333333333"/>
      <point x="659.69" y="793.3333333333334" type="qcurve"/>
      <point x="647.8333333333333" y="751.6066666666667" type="line"/>
      <point x="412.81666666666666" y="735.6066666666667"/>
      <point x="185.23666666666668" y="538.16"/>
      <point x="185.23666666666668" y="375.90333333333336" type="qcurve"/>
      <point x="185.23666666666668" y="246.46333333333334"/>
      <point x="383.7166666666667" y="101.92"/>
      <point x="661.0833333333334" y="83.50333333333334" type="qcurve" smooth="yes"/>
      <point x="717.26" y="80.14" type="line" smooth="yes"/>
      <point x="783.9966666666667" y="75.60666666666667"/>
      <point x="833.5566666666667" y="27.71666666666667"/>
      <point x="833.5233333333334" y="-23.509999999999998" type="qcurve"/>
      <point x="812.8966666666666" y="-298.6666666666667" type="line"/>
    </contour>
  </outline>
</glyph>
<glyph name="pi" format="2">
  <advance width="1223"/>
  <unicode hex="03C0"/>
  <outline>
    <contour>
      <point x="1153.29" y="889.8633333333333" type="line"/>
      <point x="61.08" y="898.1466666666666" type="line"/>
      <point x="61.08" y="959.8566666666667" type="line"/>
      <point x="184.14" y="992.6466666666666" type="line"/>
      <point x="1141.4333333333334" y="1009.8" type="line"/>
      <point x="1165.7266666666665" y="988.1233333333333" type="line"/>
    </contour>
    <contour>
      <point x="247.70000000000002" y="0.0" type="line"/>
      <point x="221.3" y="19.833333333333332" type="line"/>
      <point x="266.81333333333333" y="448.6433333333333" type="line"/>
      <point x="316.0" y="933.4633333333334" type="line"/>
      <point x="383.83" y="933.4633333333334" type="line"/>
      <point x="361.6333333333333" y="443.5" type="line"/>
      <point x="345.91" y="10.006666666666666" type="line"/>
    </contour>
    <contour>
      <point x="990.6233333333333" y="-8.0" type="line"/>
      <point x="910.01" y="-5.869999999999999"/>
      <point x="838.88" y="89.66000000000001"/>
      <point x="844.18" y="272.58666666666664" type="qcurve" smooth="yes"/>
      <point x="863.3299999999999" y="933.4633333333334" type="line"/>
      <point x="942.3966666666666" y="933.4633333333334" type="line"/>
      <point x="943.8000000000001" y="275.21999999999997" type="line" smooth="yes"/>
      <point x="943.82" y="174.82666666666668"/>
      <point x="991.6700000000001" y="81.34333333333335"/>
      <point x="1066.07" y="81.98666666666665" type="qcurve"/>
      <point x="1143.5466666666666" y="81.98666666666665" type="line"/>
      <point x="1143.5466666666666" y="26.076666666666668" type="line"/>
    </contour>
  </outline>
</glyph>
<glyph name="finalsigma" format="2">
  <advance width="922"/>
  <unicode hex="03C2"/>
  <outline>
    <contour>
      <point x="732.71" y="-298.6666666666667" type="line"/>
      <point x="713.2133333333334" y="-136.32000000000002" type="line" smooth="yes"/>
      <point x="704.9166666666667" y="-66.30333333333333"/>
      <point x="670.7966666666666" y="-24.073333333333334"/>
      <point x="631.7666666666667" y="-21.336666666666666" type="qcurve" smooth="yes"/>
      <point x="603.46" y="-19.033333333333335" type="line" smooth="yes"/>
      <point x="352.80333333333334" y="0.7166666666666671"/>
      <point x="66.58666666666666" y="243.72"/>
      <point x="66.58666666666666" y="486.5566666666667" type="qcurve" smooth="yes"/>
      <point x="66.58666666666666" y="734.7233333333334"/>
      <point x="325.49666666666667" y="1020.5266666666668"/>
      <point x="543.4133333333333" y="1020.5266666666668" type="qcurve"/>
      <point x="642.69" y="1020.5266666666668"/>
      <point x="827.9300000000001" y="966.4799999999999"/>
      <point x="874.51" y="930.8133333333333" type="qcurve"/>
      <point x="880.2433333333333" y="671.8566666666667" type="line"/>
      <point x="815.3933333333333" y="671.8566666666667" type="line"/>
      <point x="754.4499999999999" y="898.55" type="line"/>
      <point x="726.0466666666667" y="918.97"/>
      <point x="605.8733333333333" y="945.4399999999999"/>
      <point x="549.6033333333334" y="945.4399999999999" type="qcurve" smooth="yes"/>
      <point x="368.7866666666667" y="945.4399999999999"/>
      <point x="174.23666666666665" y="714.5"/>
      <point x="174.23666666666665" y="489.6" type="qcurve" smooth="yes"/>
      <point x="174.23666666666665" y="305.8666666666667"/>
      <point x="388.87" y="99.84"/>
      <point x="654.9666666666667" y="82.93666666666667" type="qcurve" smooth="yes"/>
      <point x="700.7533333333333" y="80.17999999999999" type="line" smooth="yes"/>
      <point x="767.0833333333334" y="75.70666666666668"/>
      <point x="816.7633333333333" y="28.546666666666663"/>
      <point x="817.2566666666667" y="-22.983333333333334" type="qcurve"/>
      <point x="796.63" y="-298.6666666666667" type="line"/>
    </contour>
  </outline>
</glyph>
<glyph name="tau" format="2">
  <advance width="891"/>
  <unicode hex="03C4"/>
  <outline>
    <contour>
      <point x="851.74" y="889.8633333333333" type="line"/>
      <point x="29.636666666666667" y="898.1466666666666" type="line"/>
      <point x="29.636666666666667" y="959.8566666666667" type="line"/>
      <point x="152.6966666666667" y="992.6466666666666" type="line"/>
      <point x="839.8833333333333" y="1009.8" type="line"/>
      <point x="864.1766666666666" y="988.1233333333333" type="line"/>
    </contour>
    <contour>
      <point x="521.99" y="-8.0" type="line"/>
      <point x="440.9533333333334" y="-5.85"/>
      <point x="364.2366666666667" y="91.72333333333333"/>
      <point x="372.23" y="269.3666666666667" type="qcurve" smooth="yes"/>
      <point x="402.07" y="939.75" type="line"/>
      <point x="475.99333333333334" y="939.75" type="line"/>
      <point x="476.75" y="275.28333333333336" type="line" smooth="yes"/>
      <point x="476.75" y="162.64333333333332"/>
      <point x="524.2633333333333" y="77.46666666666667"/>
      <point x="612.1733333333333" y="78.9" type="qcurve" smooth="yes"/>
      <point x="757.4866666666667" y="78.9" type="line"/>
      <point x="757.4866666666667" y="24.7" type="line"/>
    </contour>
  </outline>
</glyph>
<glyph name="upsilon" format="2">
  <advance width="1108"/>
  <unicode hex="03C5"/>
  <anchor x="551.2133333333334" y="1000.0" name="GRKtop"/>
  <outline>
    <contour>
      <point x="596.3266666666667" y="-18.630000000000003" type="qcurve" smooth="yes"/>
      <point x="427.6633333333333" y="-18.630000000000003"/>
      <point x="227.26999999999998" y="183.10333333333332"/>
      <point x="229.45666666666668" y="381.70666666666665" type="qcurve" smooth="yes"/>
      <point x="233.08" y="707.2333333333333" type="line" smooth="yes"/>
      <point x="234.19333333333333" y="822.8166666666667"/>
      <point x="194.01666666666668" y="901.8866666666667"/>
      <point x="143.69666666666666" y="908.5866666666667" type="qcurve"/>
      <point x="48.473333333333336" y="920.1333333333333" type="line"/>
      <point x="48.473333333333336" y="983.3166666666667" type="line"/>
      <point x="211.56" y="1005.85" type="line"/>
      <point x="276.8066666666667" y="1007.92"/>
      <point x="334.77666666666664" y="894.3166666666666"/>
      <point x="333.9266666666666" y="804.6166666666667" type="qcurve" smooth="yes"/>
      <point x="329.81" y="381.93666666666667" type="line" smooth="yes"/>
      <point x="328.71666666666664" y="242.04"/>
      <point x="457.9433333333333" y="72.57000000000001"/>
      <point x="600.64" y="72.57000000000001" type="qcurve" smooth="yes"/>
      <point x="749.9733333333334" y="72.57000000000001"/>
      <point x="922.5333333333334" y="285.61"/>
      <point x="922.5333333333334" y="476.26" type="qcurve" smooth="yes"/>
      <point x="922.5333333333334" y="633.86"/>
      <point x="820.8966666666666" y="881.12"/>
      <point x="745.1266666666667" y="979.17" type="qcurve"/>
      <point x="822.7166666666667" y="1027.5666666666666" type="line"/>
      <point x="926.6966666666666" y="898.9733333333334"/>
      <point x="1031.5433333333333" y="626.8133333333333"/>
      <point x="1031.5433333333333" y="485.0" type="qcurve" smooth="yes"/>
      <point x="1031.5433333333333" y="258.59666666666664"/>
      <point x="790.2966666666667" y="-18.630000000000003"/>
    </contour>
  </outline>
</glyph>
<glyph name="phi" format="2">
  <advance width="1330"/>
  <unicode hex="03C6"/>
  <outline>
    <contour>
      <point x="648.2533333333333" y="-21.446666666666665" type="line"/>
      <point x="347.5" y="-14.183333333333334"/>
      <point x="56.626666666666665" y="262.2866666666667"/>
      <point x="56.626666666666665" y="474.68333333333334" type="qcurve" smooth="yes"/>
      <point x="56.626666666666665" y="721.4866666666667"/>
      <point x="361.48333333333335" y="1019.3366666666666"/>
      <point x="652.2966666666666" y="1022.2033333333333" type="qcurve"/>
      <point x="652.2966666666666" y="957.0933333333334" type="line"/>
      <point x="417.5233333333333" y="953.51"/>
      <point x="167.79" y="720.0633333333334"/>
      <point x="167.79" y="491.08" type="qcurve" smooth="yes"/>
      <point x="167.79" y="278.71000000000004"/>
      <point x="419.6566666666667" y="50.379999999999995"/>
      <point x="648.2533333333333" y="47.39333333333333" type="qcurve"/>
    </contour>
    <contour>
      <point x="685.2833333333333" y="-21.446666666666665" type="qcurve"/>
      <point x="685.2833333333333" y="47.39333333333333" type="line"/>
      <point x="920.0799999999999" y="51.096666666666664"/>
      <point x="1162.5866666666668" y="284.66333333333336"/>
      <point x="1162.5866666666668" y="513.1666666666667" type="qcurve" smooth="yes"/>
      <point x="1162.5866666666668" y="726.0166666666667"/>
      <point x="917.8266666666666" y="954.2266666666667"/>
      <point x="679.3966666666666" y="957.0933333333334" type="qcurve"/>
      <point x="679.3966666666666" y="1022.2033333333333" type="line"/>
      <point x="982.4966666666667" y="1015.08"/>
      <point x="1273.75" y="738.7900000000001"/>
      <point x="1273.75" y="525.8333333333333" type="qcurve" smooth="yes"/>
      <point x="1273.75" y="279.59"/>
      <point x="969.2733333333333" y="-18.439999999999998"/>
    </contour>
    <contour>
      <point x="633.0133333333333" y="-480.0" type="line"/>
      <point x="606.6133333333333" y="-460.1666666666667" type="line"/>
      <point x="615.03" y="11.123333333333331" type="line"/>
      <point x="617.88" y="11.123333333333331" type="line"/>
      <point x="627.0633333333334" y="989.8666666666667" type="line"/>
      <point x="626.3633333333333" y="989.8666666666667" type="line"/>
      <point x="625.7800000000001" y="1429.1966666666667" type="line"/>
      <point x="678.7633333333333" y="1435.21" type="line"/>
      <point x="705.1233333333333" y="1415.1166666666668" type="line"/>
      <point x="705.3100000000001" y="989.8666666666667" type="line"/>
      <point x="704.61" y="989.8666666666667" type="line"/>
      <point x="716.3733333333333" y="11.123333333333331" type="line"/>
      <point x="719.2233333333334" y="11.123333333333331" type="line"/>
      <point x="727.64" y="-469.99333333333334" type="line"/>
    </contour>
  </outline>
</glyph>
<glyph name="psi" format="2">
  <advance width="1364"/>
  <unicode hex="03C8"/>
  <outline>
    <contour>
      <point x="712.1866666666667" y="-18.630000000000003" type="line"/>
      <point x="462.62" y="-16.26"/>
      <point x="226.57999999999998" y="190.15333333333334"/>
      <point x="229.53666666666666" y="389.6066666666666" type="qcurve" smooth="yes"/>
      <point x="233.08" y="715.19" type="line"/>
      <point x="233.91" y="823.7533333333333"/>
      <point x="195.11333333333334" y="900.4533333333334"/>
      <point x="144.75" y="908.3233333333333" type="qcurve" smooth="yes"/>
      <point x="48.473333333333336" y="920.1333333333333" type="line"/>
      <point x="48.473333333333336" y="983.3166666666667" type="line"/>
      <point x="211.29666666666665" y="1005.85" type="line"/>
      <point x="277.5233333333333" y="1007.2033333333333"/>
      <point x="334.65666666666664" y="894.58"/>
      <point x="333.82666666666665" y="804.6166666666667" type="qcurve"/>
      <point x="329.81" y="389.0466666666667" type="line" smooth="yes"/>
      <point x="328.47333333333336" y="228.57999999999998"/>
      <point x="520.1333333333333" y="74.78333333333335"/>
      <point x="712.1866666666667" y="73.08666666666667" type="qcurve"/>
    </contour>
    <contour>
      <point x="748.4766666666666" y="-18.630000000000003" type="qcurve"/>
      <point x="748.4766666666666" y="73.08666666666667" type="line"/>
      <point x="955.0433333333333" y="73.80333333333334"/>
      <point x="1178.7466666666667" y="289.95666666666665"/>
      <point x="1178.7466666666667" y="506.2" type="qcurve" smooth="yes"/>
      <point x="1178.7466666666667" y="661.1666666666666"/>
      <point x="1077.3999999999999" y="899.1700000000001"/>
      <point x="1001.76" y="979.17" type="qcurve"/>
      <point x="1079.35" y="1027.5666666666666" type="line"/>
      <point x="1177.5033333333333" y="923.75"/>
      <point x="1287.7566666666667" y="662.6766666666666"/>
      <point x="1287.7566666666667" y="509.44" type="qcurve" smooth="yes"/>
      <point x="1287.7566666666667" y="257.91"/>
      <point x="987.4533333333333" y="-13.92"/>
    </contour>
    <contour>
      <point x="696.01" y="-480.0" type="line"/>
      <point x="669.61" y="-460.1666666666667" type="line"/>
      <point x="677.9266666666667" y="25.456666666666667" type="line"/>
      <point x="680.7766666666666" y="25.456666666666667" type="line"/>
      <point x="688.7766666666666" y="1429.1966666666667" type="line"/>
      <point x="741.76" y="1435.21" type="line"/>
      <point x="768.12" y="1415.1166666666668" type="line"/>
      <point x="779.47" y="25.456666666666667" type="line"/>
      <point x="782.32" y="25.456666666666667" type="line"/>
      <point x="790.6366666666667" y="-469.99333333333334" type="line"/>
    </contour>
  </outline>
</glyph>
<glyph name="omega" format="2">
  <advance width="1463"/>
  <unicode hex="03C9"/>
  <anchor x="743.6466666666666" y="1000.0" name="GRKtop"/>
  <outline>
    <contour>
      <point x="447.16333333333336" y="-21.9" type="qcurve" smooth="yes"/>
      <point x="257.69666666666666" y="-21.9"/>
      <point x="76.62666666666667" y="229.19666666666666"/>
      <point x="76.62666666666667" y="420.1333333333333" type="qcurve" smooth="yes"/>
      <point x="76.62666666666667" y="615.5666666666667"/>
      <point x="249.98333333333332" y="932.0066666666667"/>
      <point x="389.7033333333333" y="1006.2833333333333" type="qcurve"/>
      <point x="433.5966666666667" y="977.57" type="line"/>
      <point x="319.07" y="890.37"/>
      <point x="186.36333333333334" y="621.8333333333334"/>
      <point x="186.36333333333334" y="418.1333333333333" type="qcurve" smooth="yes"/>
      <point x="186.36333333333334" y="248.50666666666666"/>
      <point x="319.3633333333333" y="68.78333333333335"/>
      <point x="443.88666666666666" y="68.78333333333335" type="qcurve" smooth="yes"/>
      <point x="573.7966666666667" y="68.78333333333335"/>
      <point x="705.23" y="300.18333333333334"/>
      <point x="706.3233333333334" y="541.7333333333333" type="qcurve"/>
      <point x="760.5500000000001" y="541.7333333333333" type="line"/>
      <point x="762.3933333333333" y="297.09666666666664"/>
      <point x="881.71" y="68.78333333333335"/>
      <point x="1005.69" y="68.78333333333335" type="qcurve" smooth="yes"/>
      <point x="1134.3966666666668" y="68.78333333333335"/>
      <point x="1275.3466666666668" y="279.7166666666667"/>
      <point x="1275.3466666666668" y="469.48333333333335" type="qcurve" smooth="yes"/>
      <point x="1275.3466666666668" y="623.4466666666666"/>
      <point x="1168.3233333333335" y="872.37"/>
      <point x="1060.0733333333333" y="979.17" type="qcurve"/>
      <point x="1137.6633333333334" y="1027.5666666666666" type="line"/>
      <point x="1257.3200000000002" y="919.0566666666667"/>
      <point x="1386.5166666666667" y="636.8733333333333"/>
      <point x="1386.5166666666667" y="491.8" type="qcurve" smooth="yes"/>
      <point x="1386.5166666666667" y="260.0566666666667"/>
      <point x="1172.65" y="-21.9"/>
      <point x="1011.05" y="-21.9" type="qcurve" smooth="yes"/>
      <point x="838.7166666666667" y="-21.9"/>
      <point x="672.8100000000001" y="295.7266666666667"/>
      <point x="672.8100000000001" y="618.0033333333333" type="qcurve" smooth="yes"/>
      <point x="672.8100000000001" y="713.3866666666667" type="line"/>
      <point x="768.3533333333334" y="726.26" type="line"/>
      <point x="794.7533333333333" y="706.4266666666666" type="line"/>
      <point x="794.7533333333333" y="618.0433333333333" type="line" smooth="yes"/>
      <point x="794.7533333333333" y="310.57666666666665"/>
      <point x="617.0633333333334" y="-21.9"/>
    </contour>
  </outline>
</glyph>
<glyph name="Kaisymbol" format="2">
  <advance width="1446"/>
  <unicode hex="03CF"/>
  <outline>
    <contour>
      <point x="85.38" y="0.0" type="line"/>
      <point x="85.38" y="62.653333333333336" type="line"/>
      <point x="306.7133333333333" y="97.65333333333334" type="line"/>
      <point x="308.7133333333333" y="754.0" type="line"/>
      <point x="306.7133333333333" y="1400.1366666666665" type="line"/>
      <point x="85.38" y="1434.1366666666665" type="line"/>
      <point x="85.38" y="1500.0" type="line"/>
      <point x="640.5133333333333" y="1500.0" type="line"/>
      <point x="640.5133333333333" y="1434.1366666666665" type="line"/>
      <point x="414.8466666666667" y="1400.1366666666665" type="line"/>
      <point x="412.8466666666667" y="754.0" type="line"/>
      <point x="414.8466666666667" y="97.65333333333334" type="line"/>
      <point x="643.1466666666666" y="62.653333333333336" type="line"/>
      <point x="643.1466666666666" y="0.0" type="line"/>
    </contour>
    <contour>
      <point x="364.24333333333334" y="501.40666666666664" type="line"/>
      <point x="364.30333333333334" y="605.0799999999999" type="line"/>
      <point x="1097.6933333333334" y="1396.45" type="line"/>
      <point x="924.12" y="1434.1366666666665" type="line"/>
      <point x="924.12" y="1500.0" type="line"/>
      <point x="1399.4666666666667" y="1500.0" type="line"/>
      <point x="1399.4666666666667" y="1434.1366666666665" type="line"/>
      <point x="1209.6266666666666" y="1396.45" type="line"/>
      <point x="692.7333333333333" y="847.9133333333333" type="line"/>
      <point x="672.44" y="826.4166666666666" type="line"/>
    </contour>
    <contour>
      <point x="1233.5533333333335" y="15.68" type="line"/>
      <point x="627.13" y="827.27" type="line"/>
      <point x="701.8000000000001" y="881.53" type="line"/>
      <point x="1296.8833333333332" y="96.95333333333333" type="line"/>
      <point x="1488.7266666666667" y="60.733333333333334" type="line"/>
      <point x="1484.0066666666667" y="0.0" type="line"/>
    </contour>
    <contour>
      <point x="715.1166666666667" y="-502.8333333333333" type="qcurve"/>
      <point x="578.82" y="-502.8333333333333"/>
      <point x="326.50666666666666" y="-418.44"/>
      <point x="248.04" y="-347.31666666666666" type="qcurve"/>
      <point x="281.68" y="-289.05" type="line"/>
      <point x="360.13" y="-342.8666666666667"/>
      <point x="570.0366666666666" y="-417.01666666666665"/>
      <point x="720.8133333333333" y="-417.01666666666665" type="qcurve" smooth="yes"/>
      <point x="997.2366666666667" y="-417.01666666666665"/>
      <point x="1350.3466666666666" y="-186.56666666666666"/>
      <point x="1417.3966666666668" y="0.0" type="qcurve"/>
      <point x="1488.7266666666667" y="0.0" type="line"/>
      <point x="1434.5166666666667" y="-214.08333333333334"/>
      <point x="1023.3833333333332" y="-502.8333333333333"/>
    </contour>
  </outline>
</glyph>
<glyph name="kaisymbol" format="2">
  <advance width="1111"/>
  <unicode hex="03D7"/>
  <outline>
    <contour>
      <point x="501.74333333333334" y="-502.8333333333333" type="qcurve" smooth="yes"/>
      <point x="337.21666666666664" y="-502.8333333333333"/>
      <point x="51.34" y="-351.72"/>
      <point x="-33.803333333333335" y="-193.01" type="qcurve"/>
      <point x="17.316666666666666" y="-156.5" type="line"/>
      <point x="81.35333333333332" y="-258.96333333333337"/>
      <point x="316.0133333333333" y="-416.0333333333333"/>
      <point x="504.25666666666666" y="-416.0333333333333" type="qcurve" smooth="yes"/>
      <point x="739.0766666666666" y="-416.0333333333333"/>
      <point x="988.0966666666667" y="-135.01333333333332"/>
      <point x="985.7766666666666" y="81.96666666666665" type="qcurve"/>
      <point x="1061.2833333333335" y="81.96666666666665" type="line"/>
      <point x="1072.6933333333334" y="-169.89666666666665"/>
      <point x="750.9766666666667" y="-502.8333333333333"/>
    </contour>
    <component base="kappa"/>
  </outline>
</glyph>
<glyph name="Ieukran" format="2">
  <advance width="1433"/>
  <unicode hex="0404"/>
  <guideline x="211.0" y="787.0" angle="90.0" identifier="mFTeE97JTj"/>
  <outline>
    <contour>
      <point x="140.42333333333332" y="729.5833333333334" type="line"/>
      <point x="140.42333333333332" y="791.1833333333334" type="line"/>
      <point x="852.0133333333333" y="797.6" type="line"/>
      <point x="882.5133333333333" y="976.2333333333333" type="line"/>
      <point x="951.6033333333334" y="976.2333333333333" type="line"/>
      <point x="951.6033333333334" y="543.1" type="line"/>
      <point x="882.5133333333333" y="543.1" type="line"/>
      <point x="852.0133333333333" y="725.3166666666667" type="line"/>
    </contour>
    <contour>
      <point x="83.26333333333334" y="704.16" type="qcurve" smooth="yes"/>
      <point x="83.26333333333334" y="1069.9199999999998"/>
      <point x="500.40333333333336" y="1519.1633333333334"/>
      <point x="832.5799999999999" y="1519.1633333333334" type="qcurve" smooth="yes"/>
      <point x="964.2700000000001" y="1519.1633333333334"/>
      <point x="1173.2866666666666" y="1458.0566666666666"/>
      <point x="1241.0600000000002" y="1413.3366666666666" type="qcurve"/>
      <point x="1264.8966666666668" y="1499.98" type="line"/>
      <point x="1333.0366666666666" y="1499.98" type="line"/>
      <point x="1333.0366666666666" y="1043.8133333333333" type="line"/>
      <point x="1260.6833333333334" y="1043.8133333333333" type="line"/>
      <point x="1232.3466666666666" y="1215.0" type="line" smooth="yes"/>
      <point x="1211.7933333333333" y="1336.75"/>
      <point x="988.5433333333333" y="1437.0300000000002"/>
      <point x="841.2766666666666" y="1437.0300000000002" type="qcurve" smooth="yes"/>
      <point x="554.4848478730697" y="1437.0300000000002"/>
      <point x="193.90666643210164" y="1073.440027445395"/>
      <point x="196.58333333333334" y="731.16" type="qcurve" smooth="yes"/>
      <point x="198.54333342191333" y="425.5933196967433"/>
      <point x="563.0533681558551" y="63.156666666666666"/>
      <point x="845.1433333333333" y="63.156666666666666" type="qcurve" smooth="yes"/>
      <point x="1043.79" y="63.156666666666666"/>
      <point x="1298.9599999999998" y="197.89"/>
      <point x="1365.9533333333334" y="294.6133333333333" type="qcurve"/>
      <point x="1423.2133333333334" y="239.92333333333332" type="line"/>
      <point x="1333.2733333333333" y="116.13333333333334"/>
      <point x="1036.3266666666666" y="-29.363333333333333"/>
      <point x="839.5899999999999" y="-29.363333333333333" type="qcurve" smooth="yes"/>
      <point x="490.43666666666667" y="-29.363333333333333"/>
      <point x="83.26333333333334" y="389.99"/>
    </contour>
  </outline>
</glyph>
<glyph name="Lje" format="2">
  <advance width="1972"/>
  <unicode hex="0409"/>
  <outline>
    <contour>
      <point x="807.9799999999999" y="0.0" type="line"/>
      <point x="807.9799999999999" y="62.653333333333336" type="line"/>
      <point x="1029.3133333333335" y="97.65333333333334" type="line"/>
      <point x="1031.3133333333335" y="749.26" type="line"/>
      <point x="1029.3133333333335" y="1399.3100000000002" type="line"/>
      <point x="999.0300000000001" y="1425.7166666666667" type="line"/>
      <point x="576.0" y="1425.7166666666667" type="line"/>
      <point x="538.5500000000001" y="1399.27" type="line"/>
      <point x="487.09" y="753.42" type="line" smooth="yes"/>
      <point x="452.1733333333333" y="319.94666666666666"/>
      <point x="317.2933333333333" y="-17.0"/>
      <point x="138.6" y="-17.0" type="qcurve" smooth="yes"/>
      <point x="114.6" y="-17.0"/>
      <point x="73.58333333333333" y="-9.283333333333333"/>
      <point x="49.6" y="0.0" type="qcurve"/>
      <point x="49.6" y="125.66666666666666" type="line"/>
      <point x="73.6" y="117.66666666666666"/>
      <point x="113.36" y="112.66666666666666"/>
      <point x="134.38" y="112.66666666666666" type="qcurve" smooth="yes"/>
      <point x="274.44" y="112.66666666666666"/>
      <point x="373.98170839947164" y="439.2292195960983"/>
      <point x="399.14" y="753.58" type="qcurve" smooth="yes"/>
      <point x="450.6" y="1400.1366666666665" type="line"/>
      <point x="229.26666666666665" y="1434.1366666666665" type="line"/>
      <point x="229.26666666666665" y="1500.0" type="line"/>
      <point x="1358.78" y="1500.0" type="line"/>
      <point x="1358.78" y="1434.1366666666665" type="line"/>
      <point x="1137.4466666666667" y="1400.1366666666665" type="line"/>
      <point x="1135.71" y="898.5166666666667" type="line"/>
      <point x="1143.9333333333334" y="886.6666666666666" type="line"/>
      <point x="1421.61" y="886.6666666666666" type="line" smooth="yes"/>
      <point x="1668.51" y="886.6666666666666"/>
      <point x="1922.6266666666668" y="665.65"/>
      <point x="1922.6266666666668" y="454.3666666666667" type="qcurve" smooth="yes"/>
      <point x="1922.6266666666668" y="242.63333333333333"/>
      <point x="1657.1933333333334" y="0.0"/>
      <point x="1423.45" y="0.0" type="qcurve" smooth="yes"/>
    </contour>
    <contour>
      <point x="1135.9733333333334" y="798.9833333333333" type="line"/>
      <point x="1136.9933333333333" y="92.03666666666666" type="line"/>
      <point x="1168.0066666666667" y="73.6" type="line"/>
      <point x="1401.0600000000002" y="72.88333333333333" type="line" smooth="yes"/>
      <point x="1593.9533333333331" y="72.16666666666666"/>
      <point x="1805.3866666666665" y="264.5833333333333"/>
      <point x="1805.3866666666665" y="454.3666666666667" type="qcurve" smooth="yes"/>
      <point x="1805.3866666666665" y="632.3"/>
      <point x="1596.0233333333333" y="810.8333333333333"/>
      <point x="1403.6166666666666" y="810.8333333333333" type="qcurve" smooth="yes"/>
      <point x="1142.0666666666668" y="810.8333333333333" type="line"/>
    </contour>
  </outline>
</glyph>
<glyph name="Tshe" format="2">
  <advance width="1759"/>
  <unicode hex="040B"/>
  <outline>
    <contour>
      <point x="1718.9033333333334" y="62.653333333333336" type="line"/>
      <point x="1718.9033333333334" y="0.0" type="line"/>
      <point x="1387.0233333333333" y="0.0" type="line"/>
      <point x="1389.4566666666667" y="436.93333333333334" type="line" smooth="yes"/>
      <point x="1390.1733333333334" y="611.15"/>
      <point x="1220.7141880341853" y="772.0"/>
      <point x="1044.2033333333331" y="772.0" type="qcurve" smooth="yes"/>
      <point x="916.363447655512" y="772.0"/>
      <point x="728.6846002757296" y="740.0298035228374"/>
      <point x="636.75" y="707.8366666666667" type="qcurve"/>
      <point x="636.75" y="786.5400000000001" type="line"/>
      <point x="728.9848697204056" y="820.7355524521637"/>
      <point x="928.1628966360654" y="855.12"/>
      <point x="1052.6233333333332" y="855.12" type="qcurve" smooth="yes"/>
      <point x="1273.2635261707992" y="855.12"/>
      <point x="1495.38" y="657.1133333333333"/>
      <point x="1496.1166666666668" y="442.1166666666667" type="qcurve" smooth="yes"/>
      <point x="1496.8533333333335" y="97.65333333333334" type="line"/>
    </contour>
    <contour>
      <point x="59.35" y="1098.9833333333333" type="line"/>
      <point x="59.35" y="1500.0" type="line"/>
      <point x="1267.7666666666667" y="1500.0" type="line"/>
      <point x="1267.7666666666667" y="1110.1166666666668" type="line"/>
      <point x="1197.9" y="1110.1166666666668" type="line"/>
      <point x="1150.0" y="1425.7166666666667" type="line"/>
      <point x="714.7333333333333" y="1425.7166666666667" type="line"/>
      <point x="690.8166666666667" y="1411.45" type="line"/>
      <point x="688.8166666666667" y="754.0" type="line"/>
      <point x="690.8166666666667" y="97.89666666666666" type="line"/>
      <point x="932.4266666666666" y="62.63333333333333" type="line"/>
      <point x="932.4266666666666" y="0.0" type="line"/>
      <point x="336.73333333333335" y="0.0" type="line"/>
      <point x="336.73333333333335" y="62.63333333333333" type="line"/>
      <point x="582.6833333333333" y="97.89666666666666" type="line"/>
      <point x="584.6833333333333" y="754.0" type="line"/>
      <point x="582.6833333333333" y="1410.0166666666667" type="line"/>
      <point x="562.1166666666667" y="1425.7166666666667" type="line"/>
      <point x="171.38333333333333" y="1425.7166666666667" type="line"/>
      <point x="129.93333333333334" y="1098.9833333333333" type="line"/>
    </contour>
  </outline>
</glyph>
<glyph name="De" format="2">
  <advance width="1633"/>
  <unicode hex="0414"/>
  <outline>
    <contour>
      <point x="1483.22" y="-338.0" type="line"/>
      <point x="1418.72" y="0.0" type="line"/>
      <point x="179.60000000000002" y="0.0" type="line"/>
      <point x="115.1" y="-338.0" type="line"/>
      <point x="42.13333333333333" y="-338.0" type="line"/>
      <point x="52.13333333333333" y="71.45" type="line"/>
      <point x="1546.1866666666667" y="71.45" type="line"/>
      <point x="1556.1866666666667" y="-338.0" type="line"/>
    </contour>
    <contour>
      <point x="379.9533333333333" y="792.78" type="qcurve" smooth="yes"/>
      <point x="428.21000000000004" y="1400.1366666666665" type="line"/>
      <point x="207.59333333333333" y="1434.1366666666665" type="line"/>
      <point x="207.59333333333333" y="1500.0" type="line"/>
      <point x="1546.1866666666667" y="1500.0" type="line"/>
      <point x="1546.1866666666667" y="1434.1366666666665" type="line"/>
      <point x="1324.8533333333332" y="1400.1366666666665" type="line"/>
      <point x="1322.8533333333332" y="754.0" type="line"/>
      <point x="1324.8533333333332" y="0.0" type="line"/>
      <point x="1216.72" y="0.0" type="line"/>
      <point x="1218.72" y="754.0" type="line"/>
      <point x="1216.72" y="1399.3100000000002" type="line"/>
      <point x="1186.4366666666665" y="1425.7166666666667" type="line"/>
      <point x="553.61" y="1425.7166666666667" type="line"/>
      <point x="516.16" y="1399.27" type="line"/>
      <point x="467.64" y="791.64" type="line" smooth="yes"/>
      <point x="447.28000000000003" y="538.9933333333333"/>
      <point x="376.87333333333333" y="185.91666666666666"/>
      <point x="320.05333333333334" y="57.17666666666667" type="qcurve"/>
      <point x="206.99333333333334" y="57.17666666666667" type="line"/>
      <point x="278.81333333333333" y="189.85666666666665"/>
      <point x="359.49333333333334" y="543.8533333333334"/>
    </contour>
  </outline>
</glyph>
<glyph name="Ze" format="2">
  <advance width="1279"/>
  <unicode hex="0417"/>
  <outline>
    <contour>
      <point x="682.7566666666667" y="-30.103333333333335" type="qcurve" smooth="yes"/>
      <point x="543.1633333333333" y="-30.103333333333335"/>
      <point x="336.1766666666666" y="38.29333333333334"/>
      <point x="263.26666666666665" y="98.05999999999999" type="qcurve"/>
      <point x="239.43" y="-10.8" type="line"/>
      <point x="171.29000000000002" y="-10.8" type="line"/>
      <point x="171.29000000000002" y="448.71666666666664" type="line"/>
      <point x="244.35999999999999" y="448.71666666666664" type="line"/>
      <point x="268.45666666666665" y="319.19" type="line" smooth="yes"/>
      <point x="293.21666666666664" y="181.34333333333333"/>
      <point x="507.17333333333335" y="52.82666666666666"/>
      <point x="678.9733333333334" y="52.82666666666666" type="qcurve" smooth="yes"/>
      <point x="881.8533333333334" y="52.82666666666666"/>
      <point x="1089.46" y="234.83333333333331"/>
      <point x="1089.46" y="410.8066666666667" type="qcurve" smooth="yes"/>
      <point x="1089.46" y="558.0466666666667"/>
      <point x="916.2766666666668" y="743.6733333333334"/>
      <point x="695.8633333333333" y="743.6133333333333" type="qcurve" smooth="yes"/>
      <point x="512.39" y="743.5533333333334" type="line"/>
      <point x="512.39" y="820.1766666666666" type="line"/>
      <point x="691.3633333333333" y="820.1366666666667" type="line" smooth="yes"/>
      <point x="846.2566666666667" y="820.0966666666666"/>
      <point x="1019.9966666666668" y="983.920460992905"/>
      <point x="1019.9966666666668" y="1139.1499999999999" type="qcurve" smooth="yes"/>
      <point x="1019.9966666666668" y="1289.2033333333334"/>
      <point x="834.7133333333334" y="1437.0300000000002"/>
      <point x="680.8833333333333" y="1437.0300000000002" type="qcurve" smooth="yes"/>
      <point x="524.6833333333333" y="1437.0300000000002"/>
      <point x="322.1566666666667" y="1306.97"/>
      <point x="300.9066666666667" y="1178.59" type="qcurve" smooth="yes"/>
      <point x="278.96" y="1050.98" type="line"/>
      <point x="205.89000000000001" y="1050.98" type="line"/>
      <point x="205.89000000000001" y="1499.98" type="line"/>
      <point x="274.03" y="1499.98" type="line"/>
      <point x="301.45" y="1398.2866666666666" type="line"/>
      <point x="360.67957547694266" y="1451.1031599243202"/>
      <point x="560.7743579766541" y="1519.2833333333333"/>
      <point x="686.5266666666666" y="1519.2833333333333" type="qcurve" smooth="yes"/>
      <point x="899.2768115942027" y="1519.2833333333333"/>
      <point x="1131.7733333333333" y="1322.23"/>
      <point x="1131.7733333333333" y="1148.5800000000002" type="qcurve" smooth="yes"/>
      <point x="1131.7733333333333" y="1015.6172639691783"/>
      <point x="1001.6733740481487" y="834.4320378365483"/>
      <point x="884.15" y="797.9966666666667" type="qcurve"/>
      <point x="884.15" y="790.9966666666667" type="line"/>
      <point x="1017.3612070429836" y="765.40849028085"/>
      <point x="1204.33" y="581.3144148936277"/>
      <point x="1204.33" y="408.03333333333336" type="qcurve" smooth="yes"/>
      <point x="1204.33" y="206.48999999999998"/>
      <point x="931.9" y="-30.103333333333335"/>
    </contour>
  </outline>
</glyph>
